%TF.GenerationSoftware,KiCad,Pcbnew,(7.0.0)*%
%TF.CreationDate,2024-03-24T15:02:48+02:00*%
%TF.ProjectId,MMPCB,4d4d5043-422e-46b6-9963-61645f706362,rev?*%
%TF.SameCoordinates,Original*%
%TF.FileFunction,Soldermask,Bot*%
%TF.FilePolarity,Negative*%
%FSLAX46Y46*%
G04 Gerber Fmt 4.6, Leading zero omitted, Abs format (unit mm)*
G04 Created by KiCad (PCBNEW (7.0.0)) date 2024-03-24 15:02:48*
%MOMM*%
%LPD*%
G01*
G04 APERTURE LIST*
%ADD10R,1.800000X1.800000*%
%ADD11C,1.800000*%
%ADD12R,1.700000X1.700000*%
%ADD13O,1.700000X1.700000*%
G04 APERTURE END LIST*
D10*
%TO.C,Q6*%
X170074999Y-108749999D03*
D11*
X170075000Y-106210000D03*
%TD*%
D10*
%TO.C,Q5*%
X145449999Y-103824999D03*
D11*
X142910000Y-103825000D03*
%TD*%
D10*
%TO.C,Q4*%
X120324999Y-106249999D03*
D11*
X120325000Y-108790000D03*
%TD*%
D12*
%TO.C,J1*%
X161519999Y-141799999D03*
D13*
X161519999Y-139259999D03*
X158979999Y-141799999D03*
X158979999Y-139259999D03*
X156439999Y-141799999D03*
X156439999Y-139259999D03*
X153899999Y-141799999D03*
X153899999Y-139259999D03*
X151359999Y-141799999D03*
X151359999Y-139259999D03*
X148819999Y-141799999D03*
X148819999Y-139259999D03*
X146279999Y-141799999D03*
X146279999Y-139259999D03*
X143739999Y-141799999D03*
X143739999Y-139259999D03*
X141199999Y-141799999D03*
X141199999Y-139259999D03*
X138659999Y-141799999D03*
X138659999Y-139259999D03*
X136119999Y-141799999D03*
X136119999Y-139259999D03*
X133579999Y-141799999D03*
X133579999Y-139259999D03*
X131039999Y-141799999D03*
X131039999Y-139259999D03*
X128499999Y-141799999D03*
X128499999Y-139259999D03*
%TD*%
D10*
%TO.C,D6*%
X166524999Y-115274999D03*
D11*
X166525000Y-112735000D03*
%TD*%
%TO.C,D5*%
X166325000Y-99735000D03*
D10*
X166324999Y-102274999D03*
%TD*%
D11*
%TO.C,D4*%
X149335000Y-107275000D03*
D10*
X151874999Y-107274999D03*
%TD*%
%TO.C,D3*%
X138974999Y-107174999D03*
D11*
X136435000Y-107175000D03*
%TD*%
D10*
%TO.C,D2*%
X123674999Y-99624999D03*
D11*
X123675000Y-102165000D03*
%TD*%
D10*
%TO.C,D1*%
X123874999Y-112824999D03*
D11*
X123875000Y-115365000D03*
%TD*%
M02*
