%TF.GenerationSoftware,KiCad,Pcbnew,(7.0.0)*%
%TF.CreationDate,2024-03-24T15:02:48+02:00*%
%TF.ProjectId,MMPCB,4d4d5043-422e-46b6-9963-61645f706362,rev?*%
%TF.SameCoordinates,Original*%
%TF.FileFunction,Soldermask,Top*%
%TF.FilePolarity,Negative*%
%FSLAX46Y46*%
G04 Gerber Fmt 4.6, Leading zero omitted, Abs format (unit mm)*
G04 Created by KiCad (PCBNEW (7.0.0)) date 2024-03-24 15:02:48*
%MOMM*%
%LPD*%
G01*
G04 APERTURE LIST*
G04 Aperture macros list*
%AMRoundRect*
0 Rectangle with rounded corners*
0 $1 Rounding radius*
0 $2 $3 $4 $5 $6 $7 $8 $9 X,Y pos of 4 corners*
0 Add a 4 corners polygon primitive as box body*
4,1,4,$2,$3,$4,$5,$6,$7,$8,$9,$2,$3,0*
0 Add four circle primitives for the rounded corners*
1,1,$1+$1,$2,$3*
1,1,$1+$1,$4,$5*
1,1,$1+$1,$6,$7*
1,1,$1+$1,$8,$9*
0 Add four rect primitives between the rounded corners*
20,1,$1+$1,$2,$3,$4,$5,0*
20,1,$1+$1,$4,$5,$6,$7,0*
20,1,$1+$1,$6,$7,$8,$9,0*
20,1,$1+$1,$8,$9,$2,$3,0*%
%AMFreePoly0*
4,1,19,0.550000,-0.750000,0.000000,-0.750000,0.000000,-0.744911,-0.071157,-0.744911,-0.207708,-0.704816,-0.327430,-0.627875,-0.420627,-0.520320,-0.479746,-0.390866,-0.500000,-0.250000,-0.500000,0.250000,-0.479746,0.390866,-0.420627,0.520320,-0.327430,0.627875,-0.207708,0.704816,-0.071157,0.744911,0.000000,0.744911,0.000000,0.750000,0.550000,0.750000,0.550000,-0.750000,0.550000,-0.750000,
$1*%
%AMFreePoly1*
4,1,19,0.000000,0.744911,0.071157,0.744911,0.207708,0.704816,0.327430,0.627875,0.420627,0.520320,0.479746,0.390866,0.500000,0.250000,0.500000,-0.250000,0.479746,-0.390866,0.420627,-0.520320,0.327430,-0.627875,0.207708,-0.704816,0.071157,-0.744911,0.000000,-0.744911,0.000000,-0.750000,-0.550000,-0.750000,-0.550000,0.750000,0.000000,0.750000,0.000000,0.744911,0.000000,0.744911,
$1*%
%AMFreePoly2*
4,1,19,0.500000,-0.750000,0.000000,-0.750000,0.000000,-0.744911,-0.071157,-0.744911,-0.207708,-0.704816,-0.327430,-0.627875,-0.420627,-0.520320,-0.479746,-0.390866,-0.500000,-0.250000,-0.500000,0.250000,-0.479746,0.390866,-0.420627,0.520320,-0.327430,0.627875,-0.207708,0.704816,-0.071157,0.744911,0.000000,0.744911,0.000000,0.750000,0.500000,0.750000,0.500000,-0.750000,0.500000,-0.750000,
$1*%
%AMFreePoly3*
4,1,19,0.000000,0.744911,0.071157,0.744911,0.207708,0.704816,0.327430,0.627875,0.420627,0.520320,0.479746,0.390866,0.500000,0.250000,0.500000,-0.250000,0.479746,-0.390866,0.420627,-0.520320,0.327430,-0.627875,0.207708,-0.704816,0.071157,-0.744911,0.000000,-0.744911,0.000000,-0.750000,-0.500000,-0.750000,-0.500000,0.750000,0.000000,0.750000,0.000000,0.744911,0.000000,0.744911,
$1*%
G04 Aperture macros list end*
%ADD10C,1.500000*%
%ADD11RoundRect,0.200000X-0.200000X-0.275000X0.200000X-0.275000X0.200000X0.275000X-0.200000X0.275000X0*%
%ADD12R,1.800000X1.800000*%
%ADD13C,1.800000*%
%ADD14RoundRect,0.150000X-0.587500X-0.150000X0.587500X-0.150000X0.587500X0.150000X-0.587500X0.150000X0*%
%ADD15FreePoly0,0.000000*%
%ADD16R,1.000000X1.500000*%
%ADD17FreePoly1,0.000000*%
%ADD18FreePoly2,0.000000*%
%ADD19FreePoly3,0.000000*%
%ADD20R,1.700000X1.700000*%
%ADD21O,1.700000X1.700000*%
%ADD22RoundRect,0.225000X-0.225000X-0.250000X0.225000X-0.250000X0.225000X0.250000X-0.225000X0.250000X0*%
G04 APERTURE END LIST*
D10*
%TO.C,TPS3*%
X175000000Y-134000000D03*
%TD*%
%TO.C,TPS2*%
X139300000Y-134300000D03*
%TD*%
%TO.C,TPS1*%
X115000000Y-134000000D03*
%TD*%
%TO.C,TPE3*%
X160200000Y-114500000D03*
%TD*%
%TO.C,TPE2*%
X157400000Y-126300000D03*
%TD*%
%TO.C,TPE1*%
X132900000Y-126200000D03*
%TD*%
%TO.C,TPPWM7*%
X127500000Y-129800000D03*
%TD*%
%TO.C,TPPWM4*%
X151400000Y-129600000D03*
%TD*%
%TO.C,TPPWM1*%
X164000000Y-129300000D03*
%TD*%
%TO.C,TPBATT1*%
X162100000Y-135100000D03*
%TD*%
%TO.C,TPA15*%
X131000000Y-135200000D03*
%TD*%
%TO.C,TPA11*%
X150900000Y-135200000D03*
%TD*%
%TO.C,TPA8*%
X156700000Y-135200000D03*
%TD*%
%TO.C,TP5*%
X164800000Y-107800000D03*
%TD*%
%TO.C,TP3V3*%
X124900000Y-107300000D03*
%TD*%
%TO.C,TP3*%
X135400000Y-114800000D03*
%TD*%
%TO.C,TP1*%
X130800000Y-114800000D03*
%TD*%
D11*
%TO.C,RS3*%
X168950000Y-133800000D03*
X170600000Y-133800000D03*
%TD*%
%TO.C,RS2*%
X144275000Y-134100000D03*
X145925000Y-134100000D03*
%TD*%
%TO.C,RS1*%
X119950000Y-133900000D03*
X121600000Y-133900000D03*
%TD*%
%TO.C,RB3*%
X163550000Y-120100000D03*
X165200000Y-120100000D03*
%TD*%
%TO.C,RB2*%
X149550000Y-120300000D03*
X151200000Y-120300000D03*
%TD*%
%TO.C,RB1*%
X125050000Y-120100000D03*
X126700000Y-120100000D03*
%TD*%
%TO.C,R6*%
X158450000Y-109900000D03*
X160100000Y-109900000D03*
%TD*%
%TO.C,R5*%
X158200000Y-101600000D03*
X159850000Y-101600000D03*
%TD*%
%TO.C,R4*%
X148100000Y-115900000D03*
X146450000Y-115900000D03*
%TD*%
%TO.C,R3*%
X140150000Y-115900000D03*
X141800000Y-115900000D03*
%TD*%
%TO.C,R2*%
X129850000Y-101900000D03*
X131500000Y-101900000D03*
%TD*%
%TO.C,R1*%
X129750000Y-110000000D03*
X131400000Y-110000000D03*
%TD*%
D12*
%TO.C,Q6*%
X170074999Y-108749999D03*
D13*
X170075000Y-106210000D03*
%TD*%
D12*
%TO.C,Q5*%
X145449999Y-103824999D03*
D13*
X142910000Y-103825000D03*
%TD*%
D12*
%TO.C,Q4*%
X120324999Y-106249999D03*
D13*
X120325000Y-108790000D03*
%TD*%
D14*
%TO.C,Q3*%
X154025000Y-113050000D03*
X154025000Y-114950000D03*
X155900000Y-114000000D03*
%TD*%
%TO.C,Q2*%
X156425000Y-119750000D03*
X156425000Y-121650000D03*
X158300000Y-120700000D03*
%TD*%
%TO.C,Q1*%
X134100000Y-120600000D03*
X132225000Y-121550000D03*
X132225000Y-119650000D03*
%TD*%
D15*
%TO.C,JPRS3*%
X168500000Y-129600000D03*
D16*
X169799999Y-129599999D03*
D17*
X171100000Y-129600000D03*
%TD*%
D15*
%TO.C,JPRS2*%
X143800000Y-129800000D03*
D16*
X145099999Y-129799999D03*
D17*
X146400000Y-129800000D03*
%TD*%
D15*
%TO.C,JPRS1*%
X119400000Y-129700000D03*
D16*
X120699999Y-129699999D03*
D17*
X122000000Y-129700000D03*
%TD*%
%TO.C,JPRB3*%
X165500000Y-124900000D03*
D16*
X164199999Y-124899999D03*
D15*
X162900000Y-124900000D03*
%TD*%
%TO.C,JPRB2*%
X149000000Y-125000000D03*
D16*
X150299999Y-124999999D03*
D17*
X151600000Y-125000000D03*
%TD*%
D15*
%TO.C,JPRB1*%
X124600000Y-125000000D03*
D16*
X125899999Y-124999999D03*
D17*
X127200000Y-125000000D03*
%TD*%
D15*
%TO.C,JPR6*%
X157900000Y-106200000D03*
D16*
X159199999Y-106199999D03*
D17*
X160500000Y-106200000D03*
%TD*%
D15*
%TO.C,JPR5*%
X157700000Y-98000000D03*
D16*
X158999999Y-97999999D03*
D17*
X160300000Y-98000000D03*
%TD*%
D15*
%TO.C,JPR4*%
X146000000Y-112300000D03*
D16*
X147299999Y-112299999D03*
D17*
X148600000Y-112300000D03*
%TD*%
D15*
%TO.C,JPR3*%
X139600000Y-112300000D03*
D16*
X140899999Y-112299999D03*
D17*
X142200000Y-112300000D03*
%TD*%
D15*
%TO.C,JPR2*%
X129400000Y-98300000D03*
D16*
X130699999Y-98299999D03*
D17*
X132000000Y-98300000D03*
%TD*%
D15*
%TO.C,JPR1*%
X129400000Y-106400000D03*
D16*
X130699999Y-106399999D03*
D17*
X132000000Y-106400000D03*
%TD*%
D18*
%TO.C,JPC9*%
X174350000Y-125000000D03*
D19*
X175650000Y-125000000D03*
%TD*%
D18*
%TO.C,JPC8*%
X169500000Y-125000000D03*
D19*
X170800000Y-125000000D03*
%TD*%
D18*
%TO.C,JPC7*%
X174350000Y-129600000D03*
D19*
X175650000Y-129600000D03*
%TD*%
D18*
%TO.C,JPC6*%
X143600000Y-124900000D03*
D19*
X144900000Y-124900000D03*
%TD*%
D18*
%TO.C,JPC5*%
X138900000Y-124900000D03*
D19*
X140200000Y-124900000D03*
%TD*%
D18*
%TO.C,JPC4*%
X138900000Y-129500000D03*
D19*
X140200000Y-129500000D03*
%TD*%
D18*
%TO.C,JPC3*%
X119400000Y-125000000D03*
D19*
X120700000Y-125000000D03*
%TD*%
D18*
%TO.C,JPC2*%
X114400000Y-124900000D03*
D19*
X115700000Y-124900000D03*
%TD*%
D18*
%TO.C,JPC1*%
X114350000Y-129600000D03*
D19*
X115650000Y-129600000D03*
%TD*%
D20*
%TO.C,J1*%
X161519999Y-141799999D03*
D21*
X161519999Y-139259999D03*
X158979999Y-141799999D03*
X158979999Y-139259999D03*
X156439999Y-141799999D03*
X156439999Y-139259999D03*
X153899999Y-141799999D03*
X153899999Y-139259999D03*
X151359999Y-141799999D03*
X151359999Y-139259999D03*
X148819999Y-141799999D03*
X148819999Y-139259999D03*
X146279999Y-141799999D03*
X146279999Y-139259999D03*
X143739999Y-141799999D03*
X143739999Y-139259999D03*
X141199999Y-141799999D03*
X141199999Y-139259999D03*
X138659999Y-141799999D03*
X138659999Y-139259999D03*
X136119999Y-141799999D03*
X136119999Y-139259999D03*
X133579999Y-141799999D03*
X133579999Y-139259999D03*
X131039999Y-141799999D03*
X131039999Y-139259999D03*
X128499999Y-141799999D03*
X128499999Y-139259999D03*
%TD*%
D12*
%TO.C,D6*%
X166524999Y-115274999D03*
D13*
X166525000Y-112735000D03*
%TD*%
%TO.C,D5*%
X166325000Y-99735000D03*
D12*
X166324999Y-102274999D03*
%TD*%
D13*
%TO.C,D4*%
X149335000Y-107275000D03*
D12*
X151874999Y-107274999D03*
%TD*%
%TO.C,D3*%
X138974999Y-107174999D03*
D13*
X136435000Y-107175000D03*
%TD*%
D12*
%TO.C,D2*%
X123674999Y-99624999D03*
D13*
X123675000Y-102165000D03*
%TD*%
D12*
%TO.C,D1*%
X123874999Y-112824999D03*
D13*
X123875000Y-115365000D03*
%TD*%
D22*
%TO.C,C9*%
X174250000Y-120200000D03*
X175800000Y-120200000D03*
%TD*%
%TO.C,C8*%
X169450000Y-120300000D03*
X171000000Y-120300000D03*
%TD*%
%TO.C,C6*%
X143650000Y-120100000D03*
X145200000Y-120100000D03*
%TD*%
%TO.C,C5*%
X138825000Y-120100000D03*
X140375000Y-120100000D03*
%TD*%
%TO.C,C3*%
X119250000Y-120200000D03*
X120800000Y-120200000D03*
%TD*%
%TO.C,C2*%
X114425000Y-120200000D03*
X115975000Y-120200000D03*
%TD*%
M02*
