%TF.GenerationSoftware,KiCad,Pcbnew,(7.0.0)*%
%TF.CreationDate,2024-03-24T15:02:48+02:00*%
%TF.ProjectId,MMPCB,4d4d5043-422e-46b6-9963-61645f706362,rev?*%
%TF.SameCoordinates,Original*%
%TF.FileFunction,Legend,Top*%
%TF.FilePolarity,Positive*%
%FSLAX46Y46*%
G04 Gerber Fmt 4.6, Leading zero omitted, Abs format (unit mm)*
G04 Created by KiCad (PCBNEW (7.0.0)) date 2024-03-24 15:02:48*
%MOMM*%
%LPD*%
G01*
G04 APERTURE LIST*
G04 Aperture macros list*
%AMRoundRect*
0 Rectangle with rounded corners*
0 $1 Rounding radius*
0 $2 $3 $4 $5 $6 $7 $8 $9 X,Y pos of 4 corners*
0 Add a 4 corners polygon primitive as box body*
4,1,4,$2,$3,$4,$5,$6,$7,$8,$9,$2,$3,0*
0 Add four circle primitives for the rounded corners*
1,1,$1+$1,$2,$3*
1,1,$1+$1,$4,$5*
1,1,$1+$1,$6,$7*
1,1,$1+$1,$8,$9*
0 Add four rect primitives between the rounded corners*
20,1,$1+$1,$2,$3,$4,$5,0*
20,1,$1+$1,$4,$5,$6,$7,0*
20,1,$1+$1,$6,$7,$8,$9,0*
20,1,$1+$1,$8,$9,$2,$3,0*%
%AMFreePoly0*
4,1,19,0.550000,-0.750000,0.000000,-0.750000,0.000000,-0.744911,-0.071157,-0.744911,-0.207708,-0.704816,-0.327430,-0.627875,-0.420627,-0.520320,-0.479746,-0.390866,-0.500000,-0.250000,-0.500000,0.250000,-0.479746,0.390866,-0.420627,0.520320,-0.327430,0.627875,-0.207708,0.704816,-0.071157,0.744911,0.000000,0.744911,0.000000,0.750000,0.550000,0.750000,0.550000,-0.750000,0.550000,-0.750000,
$1*%
%AMFreePoly1*
4,1,19,0.000000,0.744911,0.071157,0.744911,0.207708,0.704816,0.327430,0.627875,0.420627,0.520320,0.479746,0.390866,0.500000,0.250000,0.500000,-0.250000,0.479746,-0.390866,0.420627,-0.520320,0.327430,-0.627875,0.207708,-0.704816,0.071157,-0.744911,0.000000,-0.744911,0.000000,-0.750000,-0.550000,-0.750000,-0.550000,0.750000,0.000000,0.750000,0.000000,0.744911,0.000000,0.744911,
$1*%
%AMFreePoly2*
4,1,19,0.500000,-0.750000,0.000000,-0.750000,0.000000,-0.744911,-0.071157,-0.744911,-0.207708,-0.704816,-0.327430,-0.627875,-0.420627,-0.520320,-0.479746,-0.390866,-0.500000,-0.250000,-0.500000,0.250000,-0.479746,0.390866,-0.420627,0.520320,-0.327430,0.627875,-0.207708,0.704816,-0.071157,0.744911,0.000000,0.744911,0.000000,0.750000,0.500000,0.750000,0.500000,-0.750000,0.500000,-0.750000,
$1*%
%AMFreePoly3*
4,1,19,0.000000,0.744911,0.071157,0.744911,0.207708,0.704816,0.327430,0.627875,0.420627,0.520320,0.479746,0.390866,0.500000,0.250000,0.500000,-0.250000,0.479746,-0.390866,0.420627,-0.520320,0.327430,-0.627875,0.207708,-0.704816,0.071157,-0.744911,0.000000,-0.744911,0.000000,-0.750000,-0.500000,-0.750000,-0.500000,0.750000,0.000000,0.750000,0.000000,0.744911,0.000000,0.744911,
$1*%
G04 Aperture macros list end*
%ADD10C,0.150000*%
%ADD11C,0.120000*%
%ADD12C,1.500000*%
%ADD13RoundRect,0.200000X-0.200000X-0.275000X0.200000X-0.275000X0.200000X0.275000X-0.200000X0.275000X0*%
%ADD14R,1.800000X1.800000*%
%ADD15C,1.800000*%
%ADD16RoundRect,0.150000X-0.587500X-0.150000X0.587500X-0.150000X0.587500X0.150000X-0.587500X0.150000X0*%
%ADD17FreePoly0,0.000000*%
%ADD18R,1.000000X1.500000*%
%ADD19FreePoly1,0.000000*%
%ADD20FreePoly2,0.000000*%
%ADD21FreePoly3,0.000000*%
%ADD22R,1.700000X1.700000*%
%ADD23O,1.700000X1.700000*%
%ADD24RoundRect,0.225000X-0.225000X-0.250000X0.225000X-0.250000X0.225000X0.250000X-0.225000X0.250000X0*%
G04 APERTURE END LIST*
D10*
X179234761Y-135809523D02*
X179282380Y-135666666D01*
X179282380Y-135666666D02*
X179282380Y-135428571D01*
X179282380Y-135428571D02*
X179234761Y-135333333D01*
X179234761Y-135333333D02*
X179187142Y-135285714D01*
X179187142Y-135285714D02*
X179091904Y-135238095D01*
X179091904Y-135238095D02*
X178996666Y-135238095D01*
X178996666Y-135238095D02*
X178901428Y-135285714D01*
X178901428Y-135285714D02*
X178853809Y-135333333D01*
X178853809Y-135333333D02*
X178806190Y-135428571D01*
X178806190Y-135428571D02*
X178758571Y-135619047D01*
X178758571Y-135619047D02*
X178710952Y-135714285D01*
X178710952Y-135714285D02*
X178663333Y-135761904D01*
X178663333Y-135761904D02*
X178568095Y-135809523D01*
X178568095Y-135809523D02*
X178472857Y-135809523D01*
X178472857Y-135809523D02*
X178377619Y-135761904D01*
X178377619Y-135761904D02*
X178330000Y-135714285D01*
X178330000Y-135714285D02*
X178282380Y-135619047D01*
X178282380Y-135619047D02*
X178282380Y-135380952D01*
X178282380Y-135380952D02*
X178330000Y-135238095D01*
X179282380Y-134809523D02*
X178282380Y-134809523D01*
X178282380Y-134809523D02*
X179282380Y-134238095D01*
X179282380Y-134238095D02*
X178282380Y-134238095D01*
X178330000Y-133238095D02*
X178282380Y-133333333D01*
X178282380Y-133333333D02*
X178282380Y-133476190D01*
X178282380Y-133476190D02*
X178330000Y-133619047D01*
X178330000Y-133619047D02*
X178425238Y-133714285D01*
X178425238Y-133714285D02*
X178520476Y-133761904D01*
X178520476Y-133761904D02*
X178710952Y-133809523D01*
X178710952Y-133809523D02*
X178853809Y-133809523D01*
X178853809Y-133809523D02*
X179044285Y-133761904D01*
X179044285Y-133761904D02*
X179139523Y-133714285D01*
X179139523Y-133714285D02*
X179234761Y-133619047D01*
X179234761Y-133619047D02*
X179282380Y-133476190D01*
X179282380Y-133476190D02*
X179282380Y-133380952D01*
X179282380Y-133380952D02*
X179234761Y-133238095D01*
X179234761Y-133238095D02*
X179187142Y-133190476D01*
X179187142Y-133190476D02*
X178853809Y-133190476D01*
X178853809Y-133190476D02*
X178853809Y-133380952D01*
X179282380Y-132285714D02*
X179282380Y-132761904D01*
X179282380Y-132761904D02*
X178282380Y-132761904D01*
X179282380Y-131952380D02*
X178282380Y-131952380D01*
X178806190Y-131285714D02*
X179282380Y-131285714D01*
X178282380Y-131619047D02*
X178806190Y-131285714D01*
X178806190Y-131285714D02*
X178282380Y-130952381D01*
X178282380Y-130428571D02*
X178282380Y-130333333D01*
X178282380Y-130333333D02*
X178330000Y-130238095D01*
X178330000Y-130238095D02*
X178377619Y-130190476D01*
X178377619Y-130190476D02*
X178472857Y-130142857D01*
X178472857Y-130142857D02*
X178663333Y-130095238D01*
X178663333Y-130095238D02*
X178901428Y-130095238D01*
X178901428Y-130095238D02*
X179091904Y-130142857D01*
X179091904Y-130142857D02*
X179187142Y-130190476D01*
X179187142Y-130190476D02*
X179234761Y-130238095D01*
X179234761Y-130238095D02*
X179282380Y-130333333D01*
X179282380Y-130333333D02*
X179282380Y-130428571D01*
X179282380Y-130428571D02*
X179234761Y-130523809D01*
X179234761Y-130523809D02*
X179187142Y-130571428D01*
X179187142Y-130571428D02*
X179091904Y-130619047D01*
X179091904Y-130619047D02*
X178901428Y-130666666D01*
X178901428Y-130666666D02*
X178663333Y-130666666D01*
X178663333Y-130666666D02*
X178472857Y-130619047D01*
X178472857Y-130619047D02*
X178377619Y-130571428D01*
X178377619Y-130571428D02*
X178330000Y-130523809D01*
X178330000Y-130523809D02*
X178282380Y-130428571D01*
X178282380Y-129476190D02*
X178282380Y-129380952D01*
X178282380Y-129380952D02*
X178330000Y-129285714D01*
X178330000Y-129285714D02*
X178377619Y-129238095D01*
X178377619Y-129238095D02*
X178472857Y-129190476D01*
X178472857Y-129190476D02*
X178663333Y-129142857D01*
X178663333Y-129142857D02*
X178901428Y-129142857D01*
X178901428Y-129142857D02*
X179091904Y-129190476D01*
X179091904Y-129190476D02*
X179187142Y-129238095D01*
X179187142Y-129238095D02*
X179234761Y-129285714D01*
X179234761Y-129285714D02*
X179282380Y-129380952D01*
X179282380Y-129380952D02*
X179282380Y-129476190D01*
X179282380Y-129476190D02*
X179234761Y-129571428D01*
X179234761Y-129571428D02*
X179187142Y-129619047D01*
X179187142Y-129619047D02*
X179091904Y-129666666D01*
X179091904Y-129666666D02*
X178901428Y-129714285D01*
X178901428Y-129714285D02*
X178663333Y-129714285D01*
X178663333Y-129714285D02*
X178472857Y-129666666D01*
X178472857Y-129666666D02*
X178377619Y-129619047D01*
X178377619Y-129619047D02*
X178330000Y-129571428D01*
X178330000Y-129571428D02*
X178282380Y-129476190D01*
X179282380Y-128190476D02*
X179282380Y-128761904D01*
X179282380Y-128476190D02*
X178282380Y-128476190D01*
X178282380Y-128476190D02*
X178425238Y-128571428D01*
X178425238Y-128571428D02*
X178520476Y-128666666D01*
X178520476Y-128666666D02*
X178568095Y-128761904D01*
X179282380Y-127161904D02*
X178282380Y-127161904D01*
X178282380Y-127161904D02*
X178996666Y-126828571D01*
X178996666Y-126828571D02*
X178282380Y-126495238D01*
X178282380Y-126495238D02*
X179282380Y-126495238D01*
X179282380Y-126019047D02*
X178282380Y-126019047D01*
X178282380Y-126019047D02*
X178996666Y-125685714D01*
X178996666Y-125685714D02*
X178282380Y-125352381D01*
X178282380Y-125352381D02*
X179282380Y-125352381D01*
X179282380Y-124876190D02*
X178282380Y-124876190D01*
X178282380Y-124876190D02*
X178282380Y-124495238D01*
X178282380Y-124495238D02*
X178330000Y-124400000D01*
X178330000Y-124400000D02*
X178377619Y-124352381D01*
X178377619Y-124352381D02*
X178472857Y-124304762D01*
X178472857Y-124304762D02*
X178615714Y-124304762D01*
X178615714Y-124304762D02*
X178710952Y-124352381D01*
X178710952Y-124352381D02*
X178758571Y-124400000D01*
X178758571Y-124400000D02*
X178806190Y-124495238D01*
X178806190Y-124495238D02*
X178806190Y-124876190D01*
X179187142Y-123304762D02*
X179234761Y-123352381D01*
X179234761Y-123352381D02*
X179282380Y-123495238D01*
X179282380Y-123495238D02*
X179282380Y-123590476D01*
X179282380Y-123590476D02*
X179234761Y-123733333D01*
X179234761Y-123733333D02*
X179139523Y-123828571D01*
X179139523Y-123828571D02*
X179044285Y-123876190D01*
X179044285Y-123876190D02*
X178853809Y-123923809D01*
X178853809Y-123923809D02*
X178710952Y-123923809D01*
X178710952Y-123923809D02*
X178520476Y-123876190D01*
X178520476Y-123876190D02*
X178425238Y-123828571D01*
X178425238Y-123828571D02*
X178330000Y-123733333D01*
X178330000Y-123733333D02*
X178282380Y-123590476D01*
X178282380Y-123590476D02*
X178282380Y-123495238D01*
X178282380Y-123495238D02*
X178330000Y-123352381D01*
X178330000Y-123352381D02*
X178377619Y-123304762D01*
X178758571Y-122542857D02*
X178806190Y-122400000D01*
X178806190Y-122400000D02*
X178853809Y-122352381D01*
X178853809Y-122352381D02*
X178949047Y-122304762D01*
X178949047Y-122304762D02*
X179091904Y-122304762D01*
X179091904Y-122304762D02*
X179187142Y-122352381D01*
X179187142Y-122352381D02*
X179234761Y-122400000D01*
X179234761Y-122400000D02*
X179282380Y-122495238D01*
X179282380Y-122495238D02*
X179282380Y-122876190D01*
X179282380Y-122876190D02*
X178282380Y-122876190D01*
X178282380Y-122876190D02*
X178282380Y-122542857D01*
X178282380Y-122542857D02*
X178330000Y-122447619D01*
X178330000Y-122447619D02*
X178377619Y-122400000D01*
X178377619Y-122400000D02*
X178472857Y-122352381D01*
X178472857Y-122352381D02*
X178568095Y-122352381D01*
X178568095Y-122352381D02*
X178663333Y-122400000D01*
X178663333Y-122400000D02*
X178710952Y-122447619D01*
X178710952Y-122447619D02*
X178758571Y-122542857D01*
X178758571Y-122542857D02*
X178758571Y-122876190D01*
%TO.C,TPS3*%
X173261905Y-131719380D02*
X173833333Y-131719380D01*
X173547619Y-132719380D02*
X173547619Y-131719380D01*
X174166667Y-132719380D02*
X174166667Y-131719380D01*
X174166667Y-131719380D02*
X174547619Y-131719380D01*
X174547619Y-131719380D02*
X174642857Y-131767000D01*
X174642857Y-131767000D02*
X174690476Y-131814619D01*
X174690476Y-131814619D02*
X174738095Y-131909857D01*
X174738095Y-131909857D02*
X174738095Y-132052714D01*
X174738095Y-132052714D02*
X174690476Y-132147952D01*
X174690476Y-132147952D02*
X174642857Y-132195571D01*
X174642857Y-132195571D02*
X174547619Y-132243190D01*
X174547619Y-132243190D02*
X174166667Y-132243190D01*
X175119048Y-132671761D02*
X175261905Y-132719380D01*
X175261905Y-132719380D02*
X175500000Y-132719380D01*
X175500000Y-132719380D02*
X175595238Y-132671761D01*
X175595238Y-132671761D02*
X175642857Y-132624142D01*
X175642857Y-132624142D02*
X175690476Y-132528904D01*
X175690476Y-132528904D02*
X175690476Y-132433666D01*
X175690476Y-132433666D02*
X175642857Y-132338428D01*
X175642857Y-132338428D02*
X175595238Y-132290809D01*
X175595238Y-132290809D02*
X175500000Y-132243190D01*
X175500000Y-132243190D02*
X175309524Y-132195571D01*
X175309524Y-132195571D02*
X175214286Y-132147952D01*
X175214286Y-132147952D02*
X175166667Y-132100333D01*
X175166667Y-132100333D02*
X175119048Y-132005095D01*
X175119048Y-132005095D02*
X175119048Y-131909857D01*
X175119048Y-131909857D02*
X175166667Y-131814619D01*
X175166667Y-131814619D02*
X175214286Y-131767000D01*
X175214286Y-131767000D02*
X175309524Y-131719380D01*
X175309524Y-131719380D02*
X175547619Y-131719380D01*
X175547619Y-131719380D02*
X175690476Y-131767000D01*
X176023810Y-131719380D02*
X176642857Y-131719380D01*
X176642857Y-131719380D02*
X176309524Y-132100333D01*
X176309524Y-132100333D02*
X176452381Y-132100333D01*
X176452381Y-132100333D02*
X176547619Y-132147952D01*
X176547619Y-132147952D02*
X176595238Y-132195571D01*
X176595238Y-132195571D02*
X176642857Y-132290809D01*
X176642857Y-132290809D02*
X176642857Y-132528904D01*
X176642857Y-132528904D02*
X176595238Y-132624142D01*
X176595238Y-132624142D02*
X176547619Y-132671761D01*
X176547619Y-132671761D02*
X176452381Y-132719380D01*
X176452381Y-132719380D02*
X176166667Y-132719380D01*
X176166667Y-132719380D02*
X176071429Y-132671761D01*
X176071429Y-132671761D02*
X176023810Y-132624142D01*
%TO.C,TPS2*%
X137561905Y-132019380D02*
X138133333Y-132019380D01*
X137847619Y-133019380D02*
X137847619Y-132019380D01*
X138466667Y-133019380D02*
X138466667Y-132019380D01*
X138466667Y-132019380D02*
X138847619Y-132019380D01*
X138847619Y-132019380D02*
X138942857Y-132067000D01*
X138942857Y-132067000D02*
X138990476Y-132114619D01*
X138990476Y-132114619D02*
X139038095Y-132209857D01*
X139038095Y-132209857D02*
X139038095Y-132352714D01*
X139038095Y-132352714D02*
X138990476Y-132447952D01*
X138990476Y-132447952D02*
X138942857Y-132495571D01*
X138942857Y-132495571D02*
X138847619Y-132543190D01*
X138847619Y-132543190D02*
X138466667Y-132543190D01*
X139419048Y-132971761D02*
X139561905Y-133019380D01*
X139561905Y-133019380D02*
X139800000Y-133019380D01*
X139800000Y-133019380D02*
X139895238Y-132971761D01*
X139895238Y-132971761D02*
X139942857Y-132924142D01*
X139942857Y-132924142D02*
X139990476Y-132828904D01*
X139990476Y-132828904D02*
X139990476Y-132733666D01*
X139990476Y-132733666D02*
X139942857Y-132638428D01*
X139942857Y-132638428D02*
X139895238Y-132590809D01*
X139895238Y-132590809D02*
X139800000Y-132543190D01*
X139800000Y-132543190D02*
X139609524Y-132495571D01*
X139609524Y-132495571D02*
X139514286Y-132447952D01*
X139514286Y-132447952D02*
X139466667Y-132400333D01*
X139466667Y-132400333D02*
X139419048Y-132305095D01*
X139419048Y-132305095D02*
X139419048Y-132209857D01*
X139419048Y-132209857D02*
X139466667Y-132114619D01*
X139466667Y-132114619D02*
X139514286Y-132067000D01*
X139514286Y-132067000D02*
X139609524Y-132019380D01*
X139609524Y-132019380D02*
X139847619Y-132019380D01*
X139847619Y-132019380D02*
X139990476Y-132067000D01*
X140371429Y-132114619D02*
X140419048Y-132067000D01*
X140419048Y-132067000D02*
X140514286Y-132019380D01*
X140514286Y-132019380D02*
X140752381Y-132019380D01*
X140752381Y-132019380D02*
X140847619Y-132067000D01*
X140847619Y-132067000D02*
X140895238Y-132114619D01*
X140895238Y-132114619D02*
X140942857Y-132209857D01*
X140942857Y-132209857D02*
X140942857Y-132305095D01*
X140942857Y-132305095D02*
X140895238Y-132447952D01*
X140895238Y-132447952D02*
X140323810Y-133019380D01*
X140323810Y-133019380D02*
X140942857Y-133019380D01*
%TO.C,TPS1*%
X113261905Y-131719380D02*
X113833333Y-131719380D01*
X113547619Y-132719380D02*
X113547619Y-131719380D01*
X114166667Y-132719380D02*
X114166667Y-131719380D01*
X114166667Y-131719380D02*
X114547619Y-131719380D01*
X114547619Y-131719380D02*
X114642857Y-131767000D01*
X114642857Y-131767000D02*
X114690476Y-131814619D01*
X114690476Y-131814619D02*
X114738095Y-131909857D01*
X114738095Y-131909857D02*
X114738095Y-132052714D01*
X114738095Y-132052714D02*
X114690476Y-132147952D01*
X114690476Y-132147952D02*
X114642857Y-132195571D01*
X114642857Y-132195571D02*
X114547619Y-132243190D01*
X114547619Y-132243190D02*
X114166667Y-132243190D01*
X115119048Y-132671761D02*
X115261905Y-132719380D01*
X115261905Y-132719380D02*
X115500000Y-132719380D01*
X115500000Y-132719380D02*
X115595238Y-132671761D01*
X115595238Y-132671761D02*
X115642857Y-132624142D01*
X115642857Y-132624142D02*
X115690476Y-132528904D01*
X115690476Y-132528904D02*
X115690476Y-132433666D01*
X115690476Y-132433666D02*
X115642857Y-132338428D01*
X115642857Y-132338428D02*
X115595238Y-132290809D01*
X115595238Y-132290809D02*
X115500000Y-132243190D01*
X115500000Y-132243190D02*
X115309524Y-132195571D01*
X115309524Y-132195571D02*
X115214286Y-132147952D01*
X115214286Y-132147952D02*
X115166667Y-132100333D01*
X115166667Y-132100333D02*
X115119048Y-132005095D01*
X115119048Y-132005095D02*
X115119048Y-131909857D01*
X115119048Y-131909857D02*
X115166667Y-131814619D01*
X115166667Y-131814619D02*
X115214286Y-131767000D01*
X115214286Y-131767000D02*
X115309524Y-131719380D01*
X115309524Y-131719380D02*
X115547619Y-131719380D01*
X115547619Y-131719380D02*
X115690476Y-131767000D01*
X116642857Y-132719380D02*
X116071429Y-132719380D01*
X116357143Y-132719380D02*
X116357143Y-131719380D01*
X116357143Y-131719380D02*
X116261905Y-131862238D01*
X116261905Y-131862238D02*
X116166667Y-131957476D01*
X116166667Y-131957476D02*
X116071429Y-132005095D01*
%TO.C,TPE3*%
X158485714Y-112219380D02*
X159057142Y-112219380D01*
X158771428Y-113219380D02*
X158771428Y-112219380D01*
X159390476Y-113219380D02*
X159390476Y-112219380D01*
X159390476Y-112219380D02*
X159771428Y-112219380D01*
X159771428Y-112219380D02*
X159866666Y-112267000D01*
X159866666Y-112267000D02*
X159914285Y-112314619D01*
X159914285Y-112314619D02*
X159961904Y-112409857D01*
X159961904Y-112409857D02*
X159961904Y-112552714D01*
X159961904Y-112552714D02*
X159914285Y-112647952D01*
X159914285Y-112647952D02*
X159866666Y-112695571D01*
X159866666Y-112695571D02*
X159771428Y-112743190D01*
X159771428Y-112743190D02*
X159390476Y-112743190D01*
X160390476Y-112695571D02*
X160723809Y-112695571D01*
X160866666Y-113219380D02*
X160390476Y-113219380D01*
X160390476Y-113219380D02*
X160390476Y-112219380D01*
X160390476Y-112219380D02*
X160866666Y-112219380D01*
X161200000Y-112219380D02*
X161819047Y-112219380D01*
X161819047Y-112219380D02*
X161485714Y-112600333D01*
X161485714Y-112600333D02*
X161628571Y-112600333D01*
X161628571Y-112600333D02*
X161723809Y-112647952D01*
X161723809Y-112647952D02*
X161771428Y-112695571D01*
X161771428Y-112695571D02*
X161819047Y-112790809D01*
X161819047Y-112790809D02*
X161819047Y-113028904D01*
X161819047Y-113028904D02*
X161771428Y-113124142D01*
X161771428Y-113124142D02*
X161723809Y-113171761D01*
X161723809Y-113171761D02*
X161628571Y-113219380D01*
X161628571Y-113219380D02*
X161342857Y-113219380D01*
X161342857Y-113219380D02*
X161247619Y-113171761D01*
X161247619Y-113171761D02*
X161200000Y-113124142D01*
%TO.C,TPE2*%
X155685714Y-124019380D02*
X156257142Y-124019380D01*
X155971428Y-125019380D02*
X155971428Y-124019380D01*
X156590476Y-125019380D02*
X156590476Y-124019380D01*
X156590476Y-124019380D02*
X156971428Y-124019380D01*
X156971428Y-124019380D02*
X157066666Y-124067000D01*
X157066666Y-124067000D02*
X157114285Y-124114619D01*
X157114285Y-124114619D02*
X157161904Y-124209857D01*
X157161904Y-124209857D02*
X157161904Y-124352714D01*
X157161904Y-124352714D02*
X157114285Y-124447952D01*
X157114285Y-124447952D02*
X157066666Y-124495571D01*
X157066666Y-124495571D02*
X156971428Y-124543190D01*
X156971428Y-124543190D02*
X156590476Y-124543190D01*
X157590476Y-124495571D02*
X157923809Y-124495571D01*
X158066666Y-125019380D02*
X157590476Y-125019380D01*
X157590476Y-125019380D02*
X157590476Y-124019380D01*
X157590476Y-124019380D02*
X158066666Y-124019380D01*
X158447619Y-124114619D02*
X158495238Y-124067000D01*
X158495238Y-124067000D02*
X158590476Y-124019380D01*
X158590476Y-124019380D02*
X158828571Y-124019380D01*
X158828571Y-124019380D02*
X158923809Y-124067000D01*
X158923809Y-124067000D02*
X158971428Y-124114619D01*
X158971428Y-124114619D02*
X159019047Y-124209857D01*
X159019047Y-124209857D02*
X159019047Y-124305095D01*
X159019047Y-124305095D02*
X158971428Y-124447952D01*
X158971428Y-124447952D02*
X158400000Y-125019380D01*
X158400000Y-125019380D02*
X159019047Y-125019380D01*
%TO.C,TPE1*%
X131185714Y-123919380D02*
X131757142Y-123919380D01*
X131471428Y-124919380D02*
X131471428Y-123919380D01*
X132090476Y-124919380D02*
X132090476Y-123919380D01*
X132090476Y-123919380D02*
X132471428Y-123919380D01*
X132471428Y-123919380D02*
X132566666Y-123967000D01*
X132566666Y-123967000D02*
X132614285Y-124014619D01*
X132614285Y-124014619D02*
X132661904Y-124109857D01*
X132661904Y-124109857D02*
X132661904Y-124252714D01*
X132661904Y-124252714D02*
X132614285Y-124347952D01*
X132614285Y-124347952D02*
X132566666Y-124395571D01*
X132566666Y-124395571D02*
X132471428Y-124443190D01*
X132471428Y-124443190D02*
X132090476Y-124443190D01*
X133090476Y-124395571D02*
X133423809Y-124395571D01*
X133566666Y-124919380D02*
X133090476Y-124919380D01*
X133090476Y-124919380D02*
X133090476Y-123919380D01*
X133090476Y-123919380D02*
X133566666Y-123919380D01*
X134519047Y-124919380D02*
X133947619Y-124919380D01*
X134233333Y-124919380D02*
X134233333Y-123919380D01*
X134233333Y-123919380D02*
X134138095Y-124062238D01*
X134138095Y-124062238D02*
X134042857Y-124157476D01*
X134042857Y-124157476D02*
X133947619Y-124205095D01*
%TO.C,TPPWM7*%
X124595238Y-127519380D02*
X125166666Y-127519380D01*
X124880952Y-128519380D02*
X124880952Y-127519380D01*
X125500000Y-128519380D02*
X125500000Y-127519380D01*
X125500000Y-127519380D02*
X125880952Y-127519380D01*
X125880952Y-127519380D02*
X125976190Y-127567000D01*
X125976190Y-127567000D02*
X126023809Y-127614619D01*
X126023809Y-127614619D02*
X126071428Y-127709857D01*
X126071428Y-127709857D02*
X126071428Y-127852714D01*
X126071428Y-127852714D02*
X126023809Y-127947952D01*
X126023809Y-127947952D02*
X125976190Y-127995571D01*
X125976190Y-127995571D02*
X125880952Y-128043190D01*
X125880952Y-128043190D02*
X125500000Y-128043190D01*
X126500000Y-128519380D02*
X126500000Y-127519380D01*
X126500000Y-127519380D02*
X126880952Y-127519380D01*
X126880952Y-127519380D02*
X126976190Y-127567000D01*
X126976190Y-127567000D02*
X127023809Y-127614619D01*
X127023809Y-127614619D02*
X127071428Y-127709857D01*
X127071428Y-127709857D02*
X127071428Y-127852714D01*
X127071428Y-127852714D02*
X127023809Y-127947952D01*
X127023809Y-127947952D02*
X126976190Y-127995571D01*
X126976190Y-127995571D02*
X126880952Y-128043190D01*
X126880952Y-128043190D02*
X126500000Y-128043190D01*
X127404762Y-127519380D02*
X127642857Y-128519380D01*
X127642857Y-128519380D02*
X127833333Y-127805095D01*
X127833333Y-127805095D02*
X128023809Y-128519380D01*
X128023809Y-128519380D02*
X128261905Y-127519380D01*
X128642857Y-128519380D02*
X128642857Y-127519380D01*
X128642857Y-127519380D02*
X128976190Y-128233666D01*
X128976190Y-128233666D02*
X129309523Y-127519380D01*
X129309523Y-127519380D02*
X129309523Y-128519380D01*
X129690476Y-127519380D02*
X130357142Y-127519380D01*
X130357142Y-127519380D02*
X129928571Y-128519380D01*
%TO.C,TPPWM4*%
X148495238Y-127319380D02*
X149066666Y-127319380D01*
X148780952Y-128319380D02*
X148780952Y-127319380D01*
X149400000Y-128319380D02*
X149400000Y-127319380D01*
X149400000Y-127319380D02*
X149780952Y-127319380D01*
X149780952Y-127319380D02*
X149876190Y-127367000D01*
X149876190Y-127367000D02*
X149923809Y-127414619D01*
X149923809Y-127414619D02*
X149971428Y-127509857D01*
X149971428Y-127509857D02*
X149971428Y-127652714D01*
X149971428Y-127652714D02*
X149923809Y-127747952D01*
X149923809Y-127747952D02*
X149876190Y-127795571D01*
X149876190Y-127795571D02*
X149780952Y-127843190D01*
X149780952Y-127843190D02*
X149400000Y-127843190D01*
X150400000Y-128319380D02*
X150400000Y-127319380D01*
X150400000Y-127319380D02*
X150780952Y-127319380D01*
X150780952Y-127319380D02*
X150876190Y-127367000D01*
X150876190Y-127367000D02*
X150923809Y-127414619D01*
X150923809Y-127414619D02*
X150971428Y-127509857D01*
X150971428Y-127509857D02*
X150971428Y-127652714D01*
X150971428Y-127652714D02*
X150923809Y-127747952D01*
X150923809Y-127747952D02*
X150876190Y-127795571D01*
X150876190Y-127795571D02*
X150780952Y-127843190D01*
X150780952Y-127843190D02*
X150400000Y-127843190D01*
X151304762Y-127319380D02*
X151542857Y-128319380D01*
X151542857Y-128319380D02*
X151733333Y-127605095D01*
X151733333Y-127605095D02*
X151923809Y-128319380D01*
X151923809Y-128319380D02*
X152161905Y-127319380D01*
X152542857Y-128319380D02*
X152542857Y-127319380D01*
X152542857Y-127319380D02*
X152876190Y-128033666D01*
X152876190Y-128033666D02*
X153209523Y-127319380D01*
X153209523Y-127319380D02*
X153209523Y-128319380D01*
X154114285Y-127652714D02*
X154114285Y-128319380D01*
X153876190Y-127271761D02*
X153638095Y-127986047D01*
X153638095Y-127986047D02*
X154257142Y-127986047D01*
%TO.C,TPPWM1*%
X161095238Y-127019380D02*
X161666666Y-127019380D01*
X161380952Y-128019380D02*
X161380952Y-127019380D01*
X162000000Y-128019380D02*
X162000000Y-127019380D01*
X162000000Y-127019380D02*
X162380952Y-127019380D01*
X162380952Y-127019380D02*
X162476190Y-127067000D01*
X162476190Y-127067000D02*
X162523809Y-127114619D01*
X162523809Y-127114619D02*
X162571428Y-127209857D01*
X162571428Y-127209857D02*
X162571428Y-127352714D01*
X162571428Y-127352714D02*
X162523809Y-127447952D01*
X162523809Y-127447952D02*
X162476190Y-127495571D01*
X162476190Y-127495571D02*
X162380952Y-127543190D01*
X162380952Y-127543190D02*
X162000000Y-127543190D01*
X163000000Y-128019380D02*
X163000000Y-127019380D01*
X163000000Y-127019380D02*
X163380952Y-127019380D01*
X163380952Y-127019380D02*
X163476190Y-127067000D01*
X163476190Y-127067000D02*
X163523809Y-127114619D01*
X163523809Y-127114619D02*
X163571428Y-127209857D01*
X163571428Y-127209857D02*
X163571428Y-127352714D01*
X163571428Y-127352714D02*
X163523809Y-127447952D01*
X163523809Y-127447952D02*
X163476190Y-127495571D01*
X163476190Y-127495571D02*
X163380952Y-127543190D01*
X163380952Y-127543190D02*
X163000000Y-127543190D01*
X163904762Y-127019380D02*
X164142857Y-128019380D01*
X164142857Y-128019380D02*
X164333333Y-127305095D01*
X164333333Y-127305095D02*
X164523809Y-128019380D01*
X164523809Y-128019380D02*
X164761905Y-127019380D01*
X165142857Y-128019380D02*
X165142857Y-127019380D01*
X165142857Y-127019380D02*
X165476190Y-127733666D01*
X165476190Y-127733666D02*
X165809523Y-127019380D01*
X165809523Y-127019380D02*
X165809523Y-128019380D01*
X166809523Y-128019380D02*
X166238095Y-128019380D01*
X166523809Y-128019380D02*
X166523809Y-127019380D01*
X166523809Y-127019380D02*
X166428571Y-127162238D01*
X166428571Y-127162238D02*
X166333333Y-127257476D01*
X166333333Y-127257476D02*
X166238095Y-127305095D01*
%TO.C,TPBATT1*%
X159147619Y-132819380D02*
X159719047Y-132819380D01*
X159433333Y-133819380D02*
X159433333Y-132819380D01*
X160052381Y-133819380D02*
X160052381Y-132819380D01*
X160052381Y-132819380D02*
X160433333Y-132819380D01*
X160433333Y-132819380D02*
X160528571Y-132867000D01*
X160528571Y-132867000D02*
X160576190Y-132914619D01*
X160576190Y-132914619D02*
X160623809Y-133009857D01*
X160623809Y-133009857D02*
X160623809Y-133152714D01*
X160623809Y-133152714D02*
X160576190Y-133247952D01*
X160576190Y-133247952D02*
X160528571Y-133295571D01*
X160528571Y-133295571D02*
X160433333Y-133343190D01*
X160433333Y-133343190D02*
X160052381Y-133343190D01*
X161385714Y-133295571D02*
X161528571Y-133343190D01*
X161528571Y-133343190D02*
X161576190Y-133390809D01*
X161576190Y-133390809D02*
X161623809Y-133486047D01*
X161623809Y-133486047D02*
X161623809Y-133628904D01*
X161623809Y-133628904D02*
X161576190Y-133724142D01*
X161576190Y-133724142D02*
X161528571Y-133771761D01*
X161528571Y-133771761D02*
X161433333Y-133819380D01*
X161433333Y-133819380D02*
X161052381Y-133819380D01*
X161052381Y-133819380D02*
X161052381Y-132819380D01*
X161052381Y-132819380D02*
X161385714Y-132819380D01*
X161385714Y-132819380D02*
X161480952Y-132867000D01*
X161480952Y-132867000D02*
X161528571Y-132914619D01*
X161528571Y-132914619D02*
X161576190Y-133009857D01*
X161576190Y-133009857D02*
X161576190Y-133105095D01*
X161576190Y-133105095D02*
X161528571Y-133200333D01*
X161528571Y-133200333D02*
X161480952Y-133247952D01*
X161480952Y-133247952D02*
X161385714Y-133295571D01*
X161385714Y-133295571D02*
X161052381Y-133295571D01*
X162004762Y-133533666D02*
X162480952Y-133533666D01*
X161909524Y-133819380D02*
X162242857Y-132819380D01*
X162242857Y-132819380D02*
X162576190Y-133819380D01*
X162766667Y-132819380D02*
X163338095Y-132819380D01*
X163052381Y-133819380D02*
X163052381Y-132819380D01*
X163528572Y-132819380D02*
X164100000Y-132819380D01*
X163814286Y-133819380D02*
X163814286Y-132819380D01*
X164957143Y-133819380D02*
X164385715Y-133819380D01*
X164671429Y-133819380D02*
X164671429Y-132819380D01*
X164671429Y-132819380D02*
X164576191Y-132962238D01*
X164576191Y-132962238D02*
X164480953Y-133057476D01*
X164480953Y-133057476D02*
X164385715Y-133105095D01*
%TO.C,TPA15*%
X128833333Y-132919380D02*
X129404761Y-132919380D01*
X129119047Y-133919380D02*
X129119047Y-132919380D01*
X129738095Y-133919380D02*
X129738095Y-132919380D01*
X129738095Y-132919380D02*
X130119047Y-132919380D01*
X130119047Y-132919380D02*
X130214285Y-132967000D01*
X130214285Y-132967000D02*
X130261904Y-133014619D01*
X130261904Y-133014619D02*
X130309523Y-133109857D01*
X130309523Y-133109857D02*
X130309523Y-133252714D01*
X130309523Y-133252714D02*
X130261904Y-133347952D01*
X130261904Y-133347952D02*
X130214285Y-133395571D01*
X130214285Y-133395571D02*
X130119047Y-133443190D01*
X130119047Y-133443190D02*
X129738095Y-133443190D01*
X130690476Y-133633666D02*
X131166666Y-133633666D01*
X130595238Y-133919380D02*
X130928571Y-132919380D01*
X130928571Y-132919380D02*
X131261904Y-133919380D01*
X132119047Y-133919380D02*
X131547619Y-133919380D01*
X131833333Y-133919380D02*
X131833333Y-132919380D01*
X131833333Y-132919380D02*
X131738095Y-133062238D01*
X131738095Y-133062238D02*
X131642857Y-133157476D01*
X131642857Y-133157476D02*
X131547619Y-133205095D01*
X133023809Y-132919380D02*
X132547619Y-132919380D01*
X132547619Y-132919380D02*
X132500000Y-133395571D01*
X132500000Y-133395571D02*
X132547619Y-133347952D01*
X132547619Y-133347952D02*
X132642857Y-133300333D01*
X132642857Y-133300333D02*
X132880952Y-133300333D01*
X132880952Y-133300333D02*
X132976190Y-133347952D01*
X132976190Y-133347952D02*
X133023809Y-133395571D01*
X133023809Y-133395571D02*
X133071428Y-133490809D01*
X133071428Y-133490809D02*
X133071428Y-133728904D01*
X133071428Y-133728904D02*
X133023809Y-133824142D01*
X133023809Y-133824142D02*
X132976190Y-133871761D01*
X132976190Y-133871761D02*
X132880952Y-133919380D01*
X132880952Y-133919380D02*
X132642857Y-133919380D01*
X132642857Y-133919380D02*
X132547619Y-133871761D01*
X132547619Y-133871761D02*
X132500000Y-133824142D01*
%TO.C,TPA11*%
X148733333Y-132919380D02*
X149304761Y-132919380D01*
X149019047Y-133919380D02*
X149019047Y-132919380D01*
X149638095Y-133919380D02*
X149638095Y-132919380D01*
X149638095Y-132919380D02*
X150019047Y-132919380D01*
X150019047Y-132919380D02*
X150114285Y-132967000D01*
X150114285Y-132967000D02*
X150161904Y-133014619D01*
X150161904Y-133014619D02*
X150209523Y-133109857D01*
X150209523Y-133109857D02*
X150209523Y-133252714D01*
X150209523Y-133252714D02*
X150161904Y-133347952D01*
X150161904Y-133347952D02*
X150114285Y-133395571D01*
X150114285Y-133395571D02*
X150019047Y-133443190D01*
X150019047Y-133443190D02*
X149638095Y-133443190D01*
X150590476Y-133633666D02*
X151066666Y-133633666D01*
X150495238Y-133919380D02*
X150828571Y-132919380D01*
X150828571Y-132919380D02*
X151161904Y-133919380D01*
X152019047Y-133919380D02*
X151447619Y-133919380D01*
X151733333Y-133919380D02*
X151733333Y-132919380D01*
X151733333Y-132919380D02*
X151638095Y-133062238D01*
X151638095Y-133062238D02*
X151542857Y-133157476D01*
X151542857Y-133157476D02*
X151447619Y-133205095D01*
X152971428Y-133919380D02*
X152400000Y-133919380D01*
X152685714Y-133919380D02*
X152685714Y-132919380D01*
X152685714Y-132919380D02*
X152590476Y-133062238D01*
X152590476Y-133062238D02*
X152495238Y-133157476D01*
X152495238Y-133157476D02*
X152400000Y-133205095D01*
%TO.C,TPA8*%
X155009524Y-132919380D02*
X155580952Y-132919380D01*
X155295238Y-133919380D02*
X155295238Y-132919380D01*
X155914286Y-133919380D02*
X155914286Y-132919380D01*
X155914286Y-132919380D02*
X156295238Y-132919380D01*
X156295238Y-132919380D02*
X156390476Y-132967000D01*
X156390476Y-132967000D02*
X156438095Y-133014619D01*
X156438095Y-133014619D02*
X156485714Y-133109857D01*
X156485714Y-133109857D02*
X156485714Y-133252714D01*
X156485714Y-133252714D02*
X156438095Y-133347952D01*
X156438095Y-133347952D02*
X156390476Y-133395571D01*
X156390476Y-133395571D02*
X156295238Y-133443190D01*
X156295238Y-133443190D02*
X155914286Y-133443190D01*
X156866667Y-133633666D02*
X157342857Y-133633666D01*
X156771429Y-133919380D02*
X157104762Y-132919380D01*
X157104762Y-132919380D02*
X157438095Y-133919380D01*
X157914286Y-133347952D02*
X157819048Y-133300333D01*
X157819048Y-133300333D02*
X157771429Y-133252714D01*
X157771429Y-133252714D02*
X157723810Y-133157476D01*
X157723810Y-133157476D02*
X157723810Y-133109857D01*
X157723810Y-133109857D02*
X157771429Y-133014619D01*
X157771429Y-133014619D02*
X157819048Y-132967000D01*
X157819048Y-132967000D02*
X157914286Y-132919380D01*
X157914286Y-132919380D02*
X158104762Y-132919380D01*
X158104762Y-132919380D02*
X158200000Y-132967000D01*
X158200000Y-132967000D02*
X158247619Y-133014619D01*
X158247619Y-133014619D02*
X158295238Y-133109857D01*
X158295238Y-133109857D02*
X158295238Y-133157476D01*
X158295238Y-133157476D02*
X158247619Y-133252714D01*
X158247619Y-133252714D02*
X158200000Y-133300333D01*
X158200000Y-133300333D02*
X158104762Y-133347952D01*
X158104762Y-133347952D02*
X157914286Y-133347952D01*
X157914286Y-133347952D02*
X157819048Y-133395571D01*
X157819048Y-133395571D02*
X157771429Y-133443190D01*
X157771429Y-133443190D02*
X157723810Y-133538428D01*
X157723810Y-133538428D02*
X157723810Y-133728904D01*
X157723810Y-133728904D02*
X157771429Y-133824142D01*
X157771429Y-133824142D02*
X157819048Y-133871761D01*
X157819048Y-133871761D02*
X157914286Y-133919380D01*
X157914286Y-133919380D02*
X158104762Y-133919380D01*
X158104762Y-133919380D02*
X158200000Y-133871761D01*
X158200000Y-133871761D02*
X158247619Y-133824142D01*
X158247619Y-133824142D02*
X158295238Y-133728904D01*
X158295238Y-133728904D02*
X158295238Y-133538428D01*
X158295238Y-133538428D02*
X158247619Y-133443190D01*
X158247619Y-133443190D02*
X158200000Y-133395571D01*
X158200000Y-133395571D02*
X158104762Y-133347952D01*
%TO.C,TP5*%
X163538095Y-105519380D02*
X164109523Y-105519380D01*
X163823809Y-106519380D02*
X163823809Y-105519380D01*
X164442857Y-106519380D02*
X164442857Y-105519380D01*
X164442857Y-105519380D02*
X164823809Y-105519380D01*
X164823809Y-105519380D02*
X164919047Y-105567000D01*
X164919047Y-105567000D02*
X164966666Y-105614619D01*
X164966666Y-105614619D02*
X165014285Y-105709857D01*
X165014285Y-105709857D02*
X165014285Y-105852714D01*
X165014285Y-105852714D02*
X164966666Y-105947952D01*
X164966666Y-105947952D02*
X164919047Y-105995571D01*
X164919047Y-105995571D02*
X164823809Y-106043190D01*
X164823809Y-106043190D02*
X164442857Y-106043190D01*
X165919047Y-105519380D02*
X165442857Y-105519380D01*
X165442857Y-105519380D02*
X165395238Y-105995571D01*
X165395238Y-105995571D02*
X165442857Y-105947952D01*
X165442857Y-105947952D02*
X165538095Y-105900333D01*
X165538095Y-105900333D02*
X165776190Y-105900333D01*
X165776190Y-105900333D02*
X165871428Y-105947952D01*
X165871428Y-105947952D02*
X165919047Y-105995571D01*
X165919047Y-105995571D02*
X165966666Y-106090809D01*
X165966666Y-106090809D02*
X165966666Y-106328904D01*
X165966666Y-106328904D02*
X165919047Y-106424142D01*
X165919047Y-106424142D02*
X165871428Y-106471761D01*
X165871428Y-106471761D02*
X165776190Y-106519380D01*
X165776190Y-106519380D02*
X165538095Y-106519380D01*
X165538095Y-106519380D02*
X165442857Y-106471761D01*
X165442857Y-106471761D02*
X165395238Y-106424142D01*
%TO.C,TP3V3*%
X122733333Y-105019380D02*
X123304761Y-105019380D01*
X123019047Y-106019380D02*
X123019047Y-105019380D01*
X123638095Y-106019380D02*
X123638095Y-105019380D01*
X123638095Y-105019380D02*
X124019047Y-105019380D01*
X124019047Y-105019380D02*
X124114285Y-105067000D01*
X124114285Y-105067000D02*
X124161904Y-105114619D01*
X124161904Y-105114619D02*
X124209523Y-105209857D01*
X124209523Y-105209857D02*
X124209523Y-105352714D01*
X124209523Y-105352714D02*
X124161904Y-105447952D01*
X124161904Y-105447952D02*
X124114285Y-105495571D01*
X124114285Y-105495571D02*
X124019047Y-105543190D01*
X124019047Y-105543190D02*
X123638095Y-105543190D01*
X124542857Y-105019380D02*
X125161904Y-105019380D01*
X125161904Y-105019380D02*
X124828571Y-105400333D01*
X124828571Y-105400333D02*
X124971428Y-105400333D01*
X124971428Y-105400333D02*
X125066666Y-105447952D01*
X125066666Y-105447952D02*
X125114285Y-105495571D01*
X125114285Y-105495571D02*
X125161904Y-105590809D01*
X125161904Y-105590809D02*
X125161904Y-105828904D01*
X125161904Y-105828904D02*
X125114285Y-105924142D01*
X125114285Y-105924142D02*
X125066666Y-105971761D01*
X125066666Y-105971761D02*
X124971428Y-106019380D01*
X124971428Y-106019380D02*
X124685714Y-106019380D01*
X124685714Y-106019380D02*
X124590476Y-105971761D01*
X124590476Y-105971761D02*
X124542857Y-105924142D01*
X125447619Y-105019380D02*
X125780952Y-106019380D01*
X125780952Y-106019380D02*
X126114285Y-105019380D01*
X126352381Y-105019380D02*
X126971428Y-105019380D01*
X126971428Y-105019380D02*
X126638095Y-105400333D01*
X126638095Y-105400333D02*
X126780952Y-105400333D01*
X126780952Y-105400333D02*
X126876190Y-105447952D01*
X126876190Y-105447952D02*
X126923809Y-105495571D01*
X126923809Y-105495571D02*
X126971428Y-105590809D01*
X126971428Y-105590809D02*
X126971428Y-105828904D01*
X126971428Y-105828904D02*
X126923809Y-105924142D01*
X126923809Y-105924142D02*
X126876190Y-105971761D01*
X126876190Y-105971761D02*
X126780952Y-106019380D01*
X126780952Y-106019380D02*
X126495238Y-106019380D01*
X126495238Y-106019380D02*
X126400000Y-105971761D01*
X126400000Y-105971761D02*
X126352381Y-105924142D01*
%TO.C,TP3*%
X134138095Y-112519380D02*
X134709523Y-112519380D01*
X134423809Y-113519380D02*
X134423809Y-112519380D01*
X135042857Y-113519380D02*
X135042857Y-112519380D01*
X135042857Y-112519380D02*
X135423809Y-112519380D01*
X135423809Y-112519380D02*
X135519047Y-112567000D01*
X135519047Y-112567000D02*
X135566666Y-112614619D01*
X135566666Y-112614619D02*
X135614285Y-112709857D01*
X135614285Y-112709857D02*
X135614285Y-112852714D01*
X135614285Y-112852714D02*
X135566666Y-112947952D01*
X135566666Y-112947952D02*
X135519047Y-112995571D01*
X135519047Y-112995571D02*
X135423809Y-113043190D01*
X135423809Y-113043190D02*
X135042857Y-113043190D01*
X135947619Y-112519380D02*
X136566666Y-112519380D01*
X136566666Y-112519380D02*
X136233333Y-112900333D01*
X136233333Y-112900333D02*
X136376190Y-112900333D01*
X136376190Y-112900333D02*
X136471428Y-112947952D01*
X136471428Y-112947952D02*
X136519047Y-112995571D01*
X136519047Y-112995571D02*
X136566666Y-113090809D01*
X136566666Y-113090809D02*
X136566666Y-113328904D01*
X136566666Y-113328904D02*
X136519047Y-113424142D01*
X136519047Y-113424142D02*
X136471428Y-113471761D01*
X136471428Y-113471761D02*
X136376190Y-113519380D01*
X136376190Y-113519380D02*
X136090476Y-113519380D01*
X136090476Y-113519380D02*
X135995238Y-113471761D01*
X135995238Y-113471761D02*
X135947619Y-113424142D01*
%TO.C,TP1*%
X129538095Y-112519380D02*
X130109523Y-112519380D01*
X129823809Y-113519380D02*
X129823809Y-112519380D01*
X130442857Y-113519380D02*
X130442857Y-112519380D01*
X130442857Y-112519380D02*
X130823809Y-112519380D01*
X130823809Y-112519380D02*
X130919047Y-112567000D01*
X130919047Y-112567000D02*
X130966666Y-112614619D01*
X130966666Y-112614619D02*
X131014285Y-112709857D01*
X131014285Y-112709857D02*
X131014285Y-112852714D01*
X131014285Y-112852714D02*
X130966666Y-112947952D01*
X130966666Y-112947952D02*
X130919047Y-112995571D01*
X130919047Y-112995571D02*
X130823809Y-113043190D01*
X130823809Y-113043190D02*
X130442857Y-113043190D01*
X131966666Y-113519380D02*
X131395238Y-113519380D01*
X131680952Y-113519380D02*
X131680952Y-112519380D01*
X131680952Y-112519380D02*
X131585714Y-112662238D01*
X131585714Y-112662238D02*
X131490476Y-112757476D01*
X131490476Y-112757476D02*
X131395238Y-112805095D01*
%TO.C,RS3*%
X169132142Y-132737380D02*
X168798809Y-132261190D01*
X168560714Y-132737380D02*
X168560714Y-131737380D01*
X168560714Y-131737380D02*
X168941666Y-131737380D01*
X168941666Y-131737380D02*
X169036904Y-131785000D01*
X169036904Y-131785000D02*
X169084523Y-131832619D01*
X169084523Y-131832619D02*
X169132142Y-131927857D01*
X169132142Y-131927857D02*
X169132142Y-132070714D01*
X169132142Y-132070714D02*
X169084523Y-132165952D01*
X169084523Y-132165952D02*
X169036904Y-132213571D01*
X169036904Y-132213571D02*
X168941666Y-132261190D01*
X168941666Y-132261190D02*
X168560714Y-132261190D01*
X169513095Y-132689761D02*
X169655952Y-132737380D01*
X169655952Y-132737380D02*
X169894047Y-132737380D01*
X169894047Y-132737380D02*
X169989285Y-132689761D01*
X169989285Y-132689761D02*
X170036904Y-132642142D01*
X170036904Y-132642142D02*
X170084523Y-132546904D01*
X170084523Y-132546904D02*
X170084523Y-132451666D01*
X170084523Y-132451666D02*
X170036904Y-132356428D01*
X170036904Y-132356428D02*
X169989285Y-132308809D01*
X169989285Y-132308809D02*
X169894047Y-132261190D01*
X169894047Y-132261190D02*
X169703571Y-132213571D01*
X169703571Y-132213571D02*
X169608333Y-132165952D01*
X169608333Y-132165952D02*
X169560714Y-132118333D01*
X169560714Y-132118333D02*
X169513095Y-132023095D01*
X169513095Y-132023095D02*
X169513095Y-131927857D01*
X169513095Y-131927857D02*
X169560714Y-131832619D01*
X169560714Y-131832619D02*
X169608333Y-131785000D01*
X169608333Y-131785000D02*
X169703571Y-131737380D01*
X169703571Y-131737380D02*
X169941666Y-131737380D01*
X169941666Y-131737380D02*
X170084523Y-131785000D01*
X170417857Y-131737380D02*
X171036904Y-131737380D01*
X171036904Y-131737380D02*
X170703571Y-132118333D01*
X170703571Y-132118333D02*
X170846428Y-132118333D01*
X170846428Y-132118333D02*
X170941666Y-132165952D01*
X170941666Y-132165952D02*
X170989285Y-132213571D01*
X170989285Y-132213571D02*
X171036904Y-132308809D01*
X171036904Y-132308809D02*
X171036904Y-132546904D01*
X171036904Y-132546904D02*
X170989285Y-132642142D01*
X170989285Y-132642142D02*
X170941666Y-132689761D01*
X170941666Y-132689761D02*
X170846428Y-132737380D01*
X170846428Y-132737380D02*
X170560714Y-132737380D01*
X170560714Y-132737380D02*
X170465476Y-132689761D01*
X170465476Y-132689761D02*
X170417857Y-132642142D01*
%TO.C,RS2*%
X144457142Y-133037380D02*
X144123809Y-132561190D01*
X143885714Y-133037380D02*
X143885714Y-132037380D01*
X143885714Y-132037380D02*
X144266666Y-132037380D01*
X144266666Y-132037380D02*
X144361904Y-132085000D01*
X144361904Y-132085000D02*
X144409523Y-132132619D01*
X144409523Y-132132619D02*
X144457142Y-132227857D01*
X144457142Y-132227857D02*
X144457142Y-132370714D01*
X144457142Y-132370714D02*
X144409523Y-132465952D01*
X144409523Y-132465952D02*
X144361904Y-132513571D01*
X144361904Y-132513571D02*
X144266666Y-132561190D01*
X144266666Y-132561190D02*
X143885714Y-132561190D01*
X144838095Y-132989761D02*
X144980952Y-133037380D01*
X144980952Y-133037380D02*
X145219047Y-133037380D01*
X145219047Y-133037380D02*
X145314285Y-132989761D01*
X145314285Y-132989761D02*
X145361904Y-132942142D01*
X145361904Y-132942142D02*
X145409523Y-132846904D01*
X145409523Y-132846904D02*
X145409523Y-132751666D01*
X145409523Y-132751666D02*
X145361904Y-132656428D01*
X145361904Y-132656428D02*
X145314285Y-132608809D01*
X145314285Y-132608809D02*
X145219047Y-132561190D01*
X145219047Y-132561190D02*
X145028571Y-132513571D01*
X145028571Y-132513571D02*
X144933333Y-132465952D01*
X144933333Y-132465952D02*
X144885714Y-132418333D01*
X144885714Y-132418333D02*
X144838095Y-132323095D01*
X144838095Y-132323095D02*
X144838095Y-132227857D01*
X144838095Y-132227857D02*
X144885714Y-132132619D01*
X144885714Y-132132619D02*
X144933333Y-132085000D01*
X144933333Y-132085000D02*
X145028571Y-132037380D01*
X145028571Y-132037380D02*
X145266666Y-132037380D01*
X145266666Y-132037380D02*
X145409523Y-132085000D01*
X145790476Y-132132619D02*
X145838095Y-132085000D01*
X145838095Y-132085000D02*
X145933333Y-132037380D01*
X145933333Y-132037380D02*
X146171428Y-132037380D01*
X146171428Y-132037380D02*
X146266666Y-132085000D01*
X146266666Y-132085000D02*
X146314285Y-132132619D01*
X146314285Y-132132619D02*
X146361904Y-132227857D01*
X146361904Y-132227857D02*
X146361904Y-132323095D01*
X146361904Y-132323095D02*
X146314285Y-132465952D01*
X146314285Y-132465952D02*
X145742857Y-133037380D01*
X145742857Y-133037380D02*
X146361904Y-133037380D01*
%TO.C,RS1*%
X120132142Y-132837380D02*
X119798809Y-132361190D01*
X119560714Y-132837380D02*
X119560714Y-131837380D01*
X119560714Y-131837380D02*
X119941666Y-131837380D01*
X119941666Y-131837380D02*
X120036904Y-131885000D01*
X120036904Y-131885000D02*
X120084523Y-131932619D01*
X120084523Y-131932619D02*
X120132142Y-132027857D01*
X120132142Y-132027857D02*
X120132142Y-132170714D01*
X120132142Y-132170714D02*
X120084523Y-132265952D01*
X120084523Y-132265952D02*
X120036904Y-132313571D01*
X120036904Y-132313571D02*
X119941666Y-132361190D01*
X119941666Y-132361190D02*
X119560714Y-132361190D01*
X120513095Y-132789761D02*
X120655952Y-132837380D01*
X120655952Y-132837380D02*
X120894047Y-132837380D01*
X120894047Y-132837380D02*
X120989285Y-132789761D01*
X120989285Y-132789761D02*
X121036904Y-132742142D01*
X121036904Y-132742142D02*
X121084523Y-132646904D01*
X121084523Y-132646904D02*
X121084523Y-132551666D01*
X121084523Y-132551666D02*
X121036904Y-132456428D01*
X121036904Y-132456428D02*
X120989285Y-132408809D01*
X120989285Y-132408809D02*
X120894047Y-132361190D01*
X120894047Y-132361190D02*
X120703571Y-132313571D01*
X120703571Y-132313571D02*
X120608333Y-132265952D01*
X120608333Y-132265952D02*
X120560714Y-132218333D01*
X120560714Y-132218333D02*
X120513095Y-132123095D01*
X120513095Y-132123095D02*
X120513095Y-132027857D01*
X120513095Y-132027857D02*
X120560714Y-131932619D01*
X120560714Y-131932619D02*
X120608333Y-131885000D01*
X120608333Y-131885000D02*
X120703571Y-131837380D01*
X120703571Y-131837380D02*
X120941666Y-131837380D01*
X120941666Y-131837380D02*
X121084523Y-131885000D01*
X122036904Y-132837380D02*
X121465476Y-132837380D01*
X121751190Y-132837380D02*
X121751190Y-131837380D01*
X121751190Y-131837380D02*
X121655952Y-131980238D01*
X121655952Y-131980238D02*
X121560714Y-132075476D01*
X121560714Y-132075476D02*
X121465476Y-132123095D01*
%TO.C,RB3*%
X163708333Y-119037380D02*
X163375000Y-118561190D01*
X163136905Y-119037380D02*
X163136905Y-118037380D01*
X163136905Y-118037380D02*
X163517857Y-118037380D01*
X163517857Y-118037380D02*
X163613095Y-118085000D01*
X163613095Y-118085000D02*
X163660714Y-118132619D01*
X163660714Y-118132619D02*
X163708333Y-118227857D01*
X163708333Y-118227857D02*
X163708333Y-118370714D01*
X163708333Y-118370714D02*
X163660714Y-118465952D01*
X163660714Y-118465952D02*
X163613095Y-118513571D01*
X163613095Y-118513571D02*
X163517857Y-118561190D01*
X163517857Y-118561190D02*
X163136905Y-118561190D01*
X164470238Y-118513571D02*
X164613095Y-118561190D01*
X164613095Y-118561190D02*
X164660714Y-118608809D01*
X164660714Y-118608809D02*
X164708333Y-118704047D01*
X164708333Y-118704047D02*
X164708333Y-118846904D01*
X164708333Y-118846904D02*
X164660714Y-118942142D01*
X164660714Y-118942142D02*
X164613095Y-118989761D01*
X164613095Y-118989761D02*
X164517857Y-119037380D01*
X164517857Y-119037380D02*
X164136905Y-119037380D01*
X164136905Y-119037380D02*
X164136905Y-118037380D01*
X164136905Y-118037380D02*
X164470238Y-118037380D01*
X164470238Y-118037380D02*
X164565476Y-118085000D01*
X164565476Y-118085000D02*
X164613095Y-118132619D01*
X164613095Y-118132619D02*
X164660714Y-118227857D01*
X164660714Y-118227857D02*
X164660714Y-118323095D01*
X164660714Y-118323095D02*
X164613095Y-118418333D01*
X164613095Y-118418333D02*
X164565476Y-118465952D01*
X164565476Y-118465952D02*
X164470238Y-118513571D01*
X164470238Y-118513571D02*
X164136905Y-118513571D01*
X165041667Y-118037380D02*
X165660714Y-118037380D01*
X165660714Y-118037380D02*
X165327381Y-118418333D01*
X165327381Y-118418333D02*
X165470238Y-118418333D01*
X165470238Y-118418333D02*
X165565476Y-118465952D01*
X165565476Y-118465952D02*
X165613095Y-118513571D01*
X165613095Y-118513571D02*
X165660714Y-118608809D01*
X165660714Y-118608809D02*
X165660714Y-118846904D01*
X165660714Y-118846904D02*
X165613095Y-118942142D01*
X165613095Y-118942142D02*
X165565476Y-118989761D01*
X165565476Y-118989761D02*
X165470238Y-119037380D01*
X165470238Y-119037380D02*
X165184524Y-119037380D01*
X165184524Y-119037380D02*
X165089286Y-118989761D01*
X165089286Y-118989761D02*
X165041667Y-118942142D01*
%TO.C,RB2*%
X149708333Y-119237380D02*
X149375000Y-118761190D01*
X149136905Y-119237380D02*
X149136905Y-118237380D01*
X149136905Y-118237380D02*
X149517857Y-118237380D01*
X149517857Y-118237380D02*
X149613095Y-118285000D01*
X149613095Y-118285000D02*
X149660714Y-118332619D01*
X149660714Y-118332619D02*
X149708333Y-118427857D01*
X149708333Y-118427857D02*
X149708333Y-118570714D01*
X149708333Y-118570714D02*
X149660714Y-118665952D01*
X149660714Y-118665952D02*
X149613095Y-118713571D01*
X149613095Y-118713571D02*
X149517857Y-118761190D01*
X149517857Y-118761190D02*
X149136905Y-118761190D01*
X150470238Y-118713571D02*
X150613095Y-118761190D01*
X150613095Y-118761190D02*
X150660714Y-118808809D01*
X150660714Y-118808809D02*
X150708333Y-118904047D01*
X150708333Y-118904047D02*
X150708333Y-119046904D01*
X150708333Y-119046904D02*
X150660714Y-119142142D01*
X150660714Y-119142142D02*
X150613095Y-119189761D01*
X150613095Y-119189761D02*
X150517857Y-119237380D01*
X150517857Y-119237380D02*
X150136905Y-119237380D01*
X150136905Y-119237380D02*
X150136905Y-118237380D01*
X150136905Y-118237380D02*
X150470238Y-118237380D01*
X150470238Y-118237380D02*
X150565476Y-118285000D01*
X150565476Y-118285000D02*
X150613095Y-118332619D01*
X150613095Y-118332619D02*
X150660714Y-118427857D01*
X150660714Y-118427857D02*
X150660714Y-118523095D01*
X150660714Y-118523095D02*
X150613095Y-118618333D01*
X150613095Y-118618333D02*
X150565476Y-118665952D01*
X150565476Y-118665952D02*
X150470238Y-118713571D01*
X150470238Y-118713571D02*
X150136905Y-118713571D01*
X151089286Y-118332619D02*
X151136905Y-118285000D01*
X151136905Y-118285000D02*
X151232143Y-118237380D01*
X151232143Y-118237380D02*
X151470238Y-118237380D01*
X151470238Y-118237380D02*
X151565476Y-118285000D01*
X151565476Y-118285000D02*
X151613095Y-118332619D01*
X151613095Y-118332619D02*
X151660714Y-118427857D01*
X151660714Y-118427857D02*
X151660714Y-118523095D01*
X151660714Y-118523095D02*
X151613095Y-118665952D01*
X151613095Y-118665952D02*
X151041667Y-119237380D01*
X151041667Y-119237380D02*
X151660714Y-119237380D01*
%TO.C,RB1*%
X125208333Y-119037380D02*
X124875000Y-118561190D01*
X124636905Y-119037380D02*
X124636905Y-118037380D01*
X124636905Y-118037380D02*
X125017857Y-118037380D01*
X125017857Y-118037380D02*
X125113095Y-118085000D01*
X125113095Y-118085000D02*
X125160714Y-118132619D01*
X125160714Y-118132619D02*
X125208333Y-118227857D01*
X125208333Y-118227857D02*
X125208333Y-118370714D01*
X125208333Y-118370714D02*
X125160714Y-118465952D01*
X125160714Y-118465952D02*
X125113095Y-118513571D01*
X125113095Y-118513571D02*
X125017857Y-118561190D01*
X125017857Y-118561190D02*
X124636905Y-118561190D01*
X125970238Y-118513571D02*
X126113095Y-118561190D01*
X126113095Y-118561190D02*
X126160714Y-118608809D01*
X126160714Y-118608809D02*
X126208333Y-118704047D01*
X126208333Y-118704047D02*
X126208333Y-118846904D01*
X126208333Y-118846904D02*
X126160714Y-118942142D01*
X126160714Y-118942142D02*
X126113095Y-118989761D01*
X126113095Y-118989761D02*
X126017857Y-119037380D01*
X126017857Y-119037380D02*
X125636905Y-119037380D01*
X125636905Y-119037380D02*
X125636905Y-118037380D01*
X125636905Y-118037380D02*
X125970238Y-118037380D01*
X125970238Y-118037380D02*
X126065476Y-118085000D01*
X126065476Y-118085000D02*
X126113095Y-118132619D01*
X126113095Y-118132619D02*
X126160714Y-118227857D01*
X126160714Y-118227857D02*
X126160714Y-118323095D01*
X126160714Y-118323095D02*
X126113095Y-118418333D01*
X126113095Y-118418333D02*
X126065476Y-118465952D01*
X126065476Y-118465952D02*
X125970238Y-118513571D01*
X125970238Y-118513571D02*
X125636905Y-118513571D01*
X127160714Y-119037380D02*
X126589286Y-119037380D01*
X126875000Y-119037380D02*
X126875000Y-118037380D01*
X126875000Y-118037380D02*
X126779762Y-118180238D01*
X126779762Y-118180238D02*
X126684524Y-118275476D01*
X126684524Y-118275476D02*
X126589286Y-118323095D01*
%TO.C,R6*%
X159108333Y-108837380D02*
X158775000Y-108361190D01*
X158536905Y-108837380D02*
X158536905Y-107837380D01*
X158536905Y-107837380D02*
X158917857Y-107837380D01*
X158917857Y-107837380D02*
X159013095Y-107885000D01*
X159013095Y-107885000D02*
X159060714Y-107932619D01*
X159060714Y-107932619D02*
X159108333Y-108027857D01*
X159108333Y-108027857D02*
X159108333Y-108170714D01*
X159108333Y-108170714D02*
X159060714Y-108265952D01*
X159060714Y-108265952D02*
X159013095Y-108313571D01*
X159013095Y-108313571D02*
X158917857Y-108361190D01*
X158917857Y-108361190D02*
X158536905Y-108361190D01*
X159965476Y-107837380D02*
X159775000Y-107837380D01*
X159775000Y-107837380D02*
X159679762Y-107885000D01*
X159679762Y-107885000D02*
X159632143Y-107932619D01*
X159632143Y-107932619D02*
X159536905Y-108075476D01*
X159536905Y-108075476D02*
X159489286Y-108265952D01*
X159489286Y-108265952D02*
X159489286Y-108646904D01*
X159489286Y-108646904D02*
X159536905Y-108742142D01*
X159536905Y-108742142D02*
X159584524Y-108789761D01*
X159584524Y-108789761D02*
X159679762Y-108837380D01*
X159679762Y-108837380D02*
X159870238Y-108837380D01*
X159870238Y-108837380D02*
X159965476Y-108789761D01*
X159965476Y-108789761D02*
X160013095Y-108742142D01*
X160013095Y-108742142D02*
X160060714Y-108646904D01*
X160060714Y-108646904D02*
X160060714Y-108408809D01*
X160060714Y-108408809D02*
X160013095Y-108313571D01*
X160013095Y-108313571D02*
X159965476Y-108265952D01*
X159965476Y-108265952D02*
X159870238Y-108218333D01*
X159870238Y-108218333D02*
X159679762Y-108218333D01*
X159679762Y-108218333D02*
X159584524Y-108265952D01*
X159584524Y-108265952D02*
X159536905Y-108313571D01*
X159536905Y-108313571D02*
X159489286Y-108408809D01*
%TO.C,R5*%
X158858333Y-100537380D02*
X158525000Y-100061190D01*
X158286905Y-100537380D02*
X158286905Y-99537380D01*
X158286905Y-99537380D02*
X158667857Y-99537380D01*
X158667857Y-99537380D02*
X158763095Y-99585000D01*
X158763095Y-99585000D02*
X158810714Y-99632619D01*
X158810714Y-99632619D02*
X158858333Y-99727857D01*
X158858333Y-99727857D02*
X158858333Y-99870714D01*
X158858333Y-99870714D02*
X158810714Y-99965952D01*
X158810714Y-99965952D02*
X158763095Y-100013571D01*
X158763095Y-100013571D02*
X158667857Y-100061190D01*
X158667857Y-100061190D02*
X158286905Y-100061190D01*
X159763095Y-99537380D02*
X159286905Y-99537380D01*
X159286905Y-99537380D02*
X159239286Y-100013571D01*
X159239286Y-100013571D02*
X159286905Y-99965952D01*
X159286905Y-99965952D02*
X159382143Y-99918333D01*
X159382143Y-99918333D02*
X159620238Y-99918333D01*
X159620238Y-99918333D02*
X159715476Y-99965952D01*
X159715476Y-99965952D02*
X159763095Y-100013571D01*
X159763095Y-100013571D02*
X159810714Y-100108809D01*
X159810714Y-100108809D02*
X159810714Y-100346904D01*
X159810714Y-100346904D02*
X159763095Y-100442142D01*
X159763095Y-100442142D02*
X159715476Y-100489761D01*
X159715476Y-100489761D02*
X159620238Y-100537380D01*
X159620238Y-100537380D02*
X159382143Y-100537380D01*
X159382143Y-100537380D02*
X159286905Y-100489761D01*
X159286905Y-100489761D02*
X159239286Y-100442142D01*
%TO.C,R4*%
X147108333Y-114837380D02*
X146775000Y-114361190D01*
X146536905Y-114837380D02*
X146536905Y-113837380D01*
X146536905Y-113837380D02*
X146917857Y-113837380D01*
X146917857Y-113837380D02*
X147013095Y-113885000D01*
X147013095Y-113885000D02*
X147060714Y-113932619D01*
X147060714Y-113932619D02*
X147108333Y-114027857D01*
X147108333Y-114027857D02*
X147108333Y-114170714D01*
X147108333Y-114170714D02*
X147060714Y-114265952D01*
X147060714Y-114265952D02*
X147013095Y-114313571D01*
X147013095Y-114313571D02*
X146917857Y-114361190D01*
X146917857Y-114361190D02*
X146536905Y-114361190D01*
X147965476Y-114170714D02*
X147965476Y-114837380D01*
X147727381Y-113789761D02*
X147489286Y-114504047D01*
X147489286Y-114504047D02*
X148108333Y-114504047D01*
%TO.C,R3*%
X140808333Y-114837380D02*
X140475000Y-114361190D01*
X140236905Y-114837380D02*
X140236905Y-113837380D01*
X140236905Y-113837380D02*
X140617857Y-113837380D01*
X140617857Y-113837380D02*
X140713095Y-113885000D01*
X140713095Y-113885000D02*
X140760714Y-113932619D01*
X140760714Y-113932619D02*
X140808333Y-114027857D01*
X140808333Y-114027857D02*
X140808333Y-114170714D01*
X140808333Y-114170714D02*
X140760714Y-114265952D01*
X140760714Y-114265952D02*
X140713095Y-114313571D01*
X140713095Y-114313571D02*
X140617857Y-114361190D01*
X140617857Y-114361190D02*
X140236905Y-114361190D01*
X141141667Y-113837380D02*
X141760714Y-113837380D01*
X141760714Y-113837380D02*
X141427381Y-114218333D01*
X141427381Y-114218333D02*
X141570238Y-114218333D01*
X141570238Y-114218333D02*
X141665476Y-114265952D01*
X141665476Y-114265952D02*
X141713095Y-114313571D01*
X141713095Y-114313571D02*
X141760714Y-114408809D01*
X141760714Y-114408809D02*
X141760714Y-114646904D01*
X141760714Y-114646904D02*
X141713095Y-114742142D01*
X141713095Y-114742142D02*
X141665476Y-114789761D01*
X141665476Y-114789761D02*
X141570238Y-114837380D01*
X141570238Y-114837380D02*
X141284524Y-114837380D01*
X141284524Y-114837380D02*
X141189286Y-114789761D01*
X141189286Y-114789761D02*
X141141667Y-114742142D01*
%TO.C,R2*%
X130508333Y-100837380D02*
X130175000Y-100361190D01*
X129936905Y-100837380D02*
X129936905Y-99837380D01*
X129936905Y-99837380D02*
X130317857Y-99837380D01*
X130317857Y-99837380D02*
X130413095Y-99885000D01*
X130413095Y-99885000D02*
X130460714Y-99932619D01*
X130460714Y-99932619D02*
X130508333Y-100027857D01*
X130508333Y-100027857D02*
X130508333Y-100170714D01*
X130508333Y-100170714D02*
X130460714Y-100265952D01*
X130460714Y-100265952D02*
X130413095Y-100313571D01*
X130413095Y-100313571D02*
X130317857Y-100361190D01*
X130317857Y-100361190D02*
X129936905Y-100361190D01*
X130889286Y-99932619D02*
X130936905Y-99885000D01*
X130936905Y-99885000D02*
X131032143Y-99837380D01*
X131032143Y-99837380D02*
X131270238Y-99837380D01*
X131270238Y-99837380D02*
X131365476Y-99885000D01*
X131365476Y-99885000D02*
X131413095Y-99932619D01*
X131413095Y-99932619D02*
X131460714Y-100027857D01*
X131460714Y-100027857D02*
X131460714Y-100123095D01*
X131460714Y-100123095D02*
X131413095Y-100265952D01*
X131413095Y-100265952D02*
X130841667Y-100837380D01*
X130841667Y-100837380D02*
X131460714Y-100837380D01*
%TO.C,R1*%
X130408333Y-108937380D02*
X130075000Y-108461190D01*
X129836905Y-108937380D02*
X129836905Y-107937380D01*
X129836905Y-107937380D02*
X130217857Y-107937380D01*
X130217857Y-107937380D02*
X130313095Y-107985000D01*
X130313095Y-107985000D02*
X130360714Y-108032619D01*
X130360714Y-108032619D02*
X130408333Y-108127857D01*
X130408333Y-108127857D02*
X130408333Y-108270714D01*
X130408333Y-108270714D02*
X130360714Y-108365952D01*
X130360714Y-108365952D02*
X130313095Y-108413571D01*
X130313095Y-108413571D02*
X130217857Y-108461190D01*
X130217857Y-108461190D02*
X129836905Y-108461190D01*
X131360714Y-108937380D02*
X130789286Y-108937380D01*
X131075000Y-108937380D02*
X131075000Y-107937380D01*
X131075000Y-107937380D02*
X130979762Y-108080238D01*
X130979762Y-108080238D02*
X130884524Y-108175476D01*
X130884524Y-108175476D02*
X130789286Y-108223095D01*
%TO.C,Q6*%
X168577619Y-107575238D02*
X168530000Y-107670476D01*
X168530000Y-107670476D02*
X168434761Y-107765714D01*
X168434761Y-107765714D02*
X168291904Y-107908571D01*
X168291904Y-107908571D02*
X168244285Y-108003809D01*
X168244285Y-108003809D02*
X168244285Y-108099047D01*
X168482380Y-108051428D02*
X168434761Y-108146666D01*
X168434761Y-108146666D02*
X168339523Y-108241904D01*
X168339523Y-108241904D02*
X168149047Y-108289523D01*
X168149047Y-108289523D02*
X167815714Y-108289523D01*
X167815714Y-108289523D02*
X167625238Y-108241904D01*
X167625238Y-108241904D02*
X167530000Y-108146666D01*
X167530000Y-108146666D02*
X167482380Y-108051428D01*
X167482380Y-108051428D02*
X167482380Y-107860952D01*
X167482380Y-107860952D02*
X167530000Y-107765714D01*
X167530000Y-107765714D02*
X167625238Y-107670476D01*
X167625238Y-107670476D02*
X167815714Y-107622857D01*
X167815714Y-107622857D02*
X168149047Y-107622857D01*
X168149047Y-107622857D02*
X168339523Y-107670476D01*
X168339523Y-107670476D02*
X168434761Y-107765714D01*
X168434761Y-107765714D02*
X168482380Y-107860952D01*
X168482380Y-107860952D02*
X168482380Y-108051428D01*
X167482380Y-106765714D02*
X167482380Y-106956190D01*
X167482380Y-106956190D02*
X167530000Y-107051428D01*
X167530000Y-107051428D02*
X167577619Y-107099047D01*
X167577619Y-107099047D02*
X167720476Y-107194285D01*
X167720476Y-107194285D02*
X167910952Y-107241904D01*
X167910952Y-107241904D02*
X168291904Y-107241904D01*
X168291904Y-107241904D02*
X168387142Y-107194285D01*
X168387142Y-107194285D02*
X168434761Y-107146666D01*
X168434761Y-107146666D02*
X168482380Y-107051428D01*
X168482380Y-107051428D02*
X168482380Y-106860952D01*
X168482380Y-106860952D02*
X168434761Y-106765714D01*
X168434761Y-106765714D02*
X168387142Y-106718095D01*
X168387142Y-106718095D02*
X168291904Y-106670476D01*
X168291904Y-106670476D02*
X168053809Y-106670476D01*
X168053809Y-106670476D02*
X167958571Y-106718095D01*
X167958571Y-106718095D02*
X167910952Y-106765714D01*
X167910952Y-106765714D02*
X167863333Y-106860952D01*
X167863333Y-106860952D02*
X167863333Y-107051428D01*
X167863333Y-107051428D02*
X167910952Y-107146666D01*
X167910952Y-107146666D02*
X167958571Y-107194285D01*
X167958571Y-107194285D02*
X168053809Y-107241904D01*
%TO.C,Q5*%
X144084761Y-106247619D02*
X143989523Y-106200000D01*
X143989523Y-106200000D02*
X143894285Y-106104761D01*
X143894285Y-106104761D02*
X143751428Y-105961904D01*
X143751428Y-105961904D02*
X143656190Y-105914285D01*
X143656190Y-105914285D02*
X143560952Y-105914285D01*
X143608571Y-106152380D02*
X143513333Y-106104761D01*
X143513333Y-106104761D02*
X143418095Y-106009523D01*
X143418095Y-106009523D02*
X143370476Y-105819047D01*
X143370476Y-105819047D02*
X143370476Y-105485714D01*
X143370476Y-105485714D02*
X143418095Y-105295238D01*
X143418095Y-105295238D02*
X143513333Y-105200000D01*
X143513333Y-105200000D02*
X143608571Y-105152380D01*
X143608571Y-105152380D02*
X143799047Y-105152380D01*
X143799047Y-105152380D02*
X143894285Y-105200000D01*
X143894285Y-105200000D02*
X143989523Y-105295238D01*
X143989523Y-105295238D02*
X144037142Y-105485714D01*
X144037142Y-105485714D02*
X144037142Y-105819047D01*
X144037142Y-105819047D02*
X143989523Y-106009523D01*
X143989523Y-106009523D02*
X143894285Y-106104761D01*
X143894285Y-106104761D02*
X143799047Y-106152380D01*
X143799047Y-106152380D02*
X143608571Y-106152380D01*
X144941904Y-105152380D02*
X144465714Y-105152380D01*
X144465714Y-105152380D02*
X144418095Y-105628571D01*
X144418095Y-105628571D02*
X144465714Y-105580952D01*
X144465714Y-105580952D02*
X144560952Y-105533333D01*
X144560952Y-105533333D02*
X144799047Y-105533333D01*
X144799047Y-105533333D02*
X144894285Y-105580952D01*
X144894285Y-105580952D02*
X144941904Y-105628571D01*
X144941904Y-105628571D02*
X144989523Y-105723809D01*
X144989523Y-105723809D02*
X144989523Y-105961904D01*
X144989523Y-105961904D02*
X144941904Y-106057142D01*
X144941904Y-106057142D02*
X144894285Y-106104761D01*
X144894285Y-106104761D02*
X144799047Y-106152380D01*
X144799047Y-106152380D02*
X144560952Y-106152380D01*
X144560952Y-106152380D02*
X144465714Y-106104761D01*
X144465714Y-106104761D02*
X144418095Y-106057142D01*
%TO.C,Q4*%
X122747619Y-107615238D02*
X122700000Y-107710476D01*
X122700000Y-107710476D02*
X122604761Y-107805714D01*
X122604761Y-107805714D02*
X122461904Y-107948571D01*
X122461904Y-107948571D02*
X122414285Y-108043809D01*
X122414285Y-108043809D02*
X122414285Y-108139047D01*
X122652380Y-108091428D02*
X122604761Y-108186666D01*
X122604761Y-108186666D02*
X122509523Y-108281904D01*
X122509523Y-108281904D02*
X122319047Y-108329523D01*
X122319047Y-108329523D02*
X121985714Y-108329523D01*
X121985714Y-108329523D02*
X121795238Y-108281904D01*
X121795238Y-108281904D02*
X121700000Y-108186666D01*
X121700000Y-108186666D02*
X121652380Y-108091428D01*
X121652380Y-108091428D02*
X121652380Y-107900952D01*
X121652380Y-107900952D02*
X121700000Y-107805714D01*
X121700000Y-107805714D02*
X121795238Y-107710476D01*
X121795238Y-107710476D02*
X121985714Y-107662857D01*
X121985714Y-107662857D02*
X122319047Y-107662857D01*
X122319047Y-107662857D02*
X122509523Y-107710476D01*
X122509523Y-107710476D02*
X122604761Y-107805714D01*
X122604761Y-107805714D02*
X122652380Y-107900952D01*
X122652380Y-107900952D02*
X122652380Y-108091428D01*
X121985714Y-106805714D02*
X122652380Y-106805714D01*
X121604761Y-107043809D02*
X122319047Y-107281904D01*
X122319047Y-107281904D02*
X122319047Y-106662857D01*
%TO.C,Q3*%
X154867261Y-112062619D02*
X154772023Y-112015000D01*
X154772023Y-112015000D02*
X154676785Y-111919761D01*
X154676785Y-111919761D02*
X154533928Y-111776904D01*
X154533928Y-111776904D02*
X154438690Y-111729285D01*
X154438690Y-111729285D02*
X154343452Y-111729285D01*
X154391071Y-111967380D02*
X154295833Y-111919761D01*
X154295833Y-111919761D02*
X154200595Y-111824523D01*
X154200595Y-111824523D02*
X154152976Y-111634047D01*
X154152976Y-111634047D02*
X154152976Y-111300714D01*
X154152976Y-111300714D02*
X154200595Y-111110238D01*
X154200595Y-111110238D02*
X154295833Y-111015000D01*
X154295833Y-111015000D02*
X154391071Y-110967380D01*
X154391071Y-110967380D02*
X154581547Y-110967380D01*
X154581547Y-110967380D02*
X154676785Y-111015000D01*
X154676785Y-111015000D02*
X154772023Y-111110238D01*
X154772023Y-111110238D02*
X154819642Y-111300714D01*
X154819642Y-111300714D02*
X154819642Y-111634047D01*
X154819642Y-111634047D02*
X154772023Y-111824523D01*
X154772023Y-111824523D02*
X154676785Y-111919761D01*
X154676785Y-111919761D02*
X154581547Y-111967380D01*
X154581547Y-111967380D02*
X154391071Y-111967380D01*
X155152976Y-110967380D02*
X155772023Y-110967380D01*
X155772023Y-110967380D02*
X155438690Y-111348333D01*
X155438690Y-111348333D02*
X155581547Y-111348333D01*
X155581547Y-111348333D02*
X155676785Y-111395952D01*
X155676785Y-111395952D02*
X155724404Y-111443571D01*
X155724404Y-111443571D02*
X155772023Y-111538809D01*
X155772023Y-111538809D02*
X155772023Y-111776904D01*
X155772023Y-111776904D02*
X155724404Y-111872142D01*
X155724404Y-111872142D02*
X155676785Y-111919761D01*
X155676785Y-111919761D02*
X155581547Y-111967380D01*
X155581547Y-111967380D02*
X155295833Y-111967380D01*
X155295833Y-111967380D02*
X155200595Y-111919761D01*
X155200595Y-111919761D02*
X155152976Y-111872142D01*
%TO.C,Q2*%
X157267261Y-118762619D02*
X157172023Y-118715000D01*
X157172023Y-118715000D02*
X157076785Y-118619761D01*
X157076785Y-118619761D02*
X156933928Y-118476904D01*
X156933928Y-118476904D02*
X156838690Y-118429285D01*
X156838690Y-118429285D02*
X156743452Y-118429285D01*
X156791071Y-118667380D02*
X156695833Y-118619761D01*
X156695833Y-118619761D02*
X156600595Y-118524523D01*
X156600595Y-118524523D02*
X156552976Y-118334047D01*
X156552976Y-118334047D02*
X156552976Y-118000714D01*
X156552976Y-118000714D02*
X156600595Y-117810238D01*
X156600595Y-117810238D02*
X156695833Y-117715000D01*
X156695833Y-117715000D02*
X156791071Y-117667380D01*
X156791071Y-117667380D02*
X156981547Y-117667380D01*
X156981547Y-117667380D02*
X157076785Y-117715000D01*
X157076785Y-117715000D02*
X157172023Y-117810238D01*
X157172023Y-117810238D02*
X157219642Y-118000714D01*
X157219642Y-118000714D02*
X157219642Y-118334047D01*
X157219642Y-118334047D02*
X157172023Y-118524523D01*
X157172023Y-118524523D02*
X157076785Y-118619761D01*
X157076785Y-118619761D02*
X156981547Y-118667380D01*
X156981547Y-118667380D02*
X156791071Y-118667380D01*
X157600595Y-117762619D02*
X157648214Y-117715000D01*
X157648214Y-117715000D02*
X157743452Y-117667380D01*
X157743452Y-117667380D02*
X157981547Y-117667380D01*
X157981547Y-117667380D02*
X158076785Y-117715000D01*
X158076785Y-117715000D02*
X158124404Y-117762619D01*
X158124404Y-117762619D02*
X158172023Y-117857857D01*
X158172023Y-117857857D02*
X158172023Y-117953095D01*
X158172023Y-117953095D02*
X158124404Y-118095952D01*
X158124404Y-118095952D02*
X157552976Y-118667380D01*
X157552976Y-118667380D02*
X158172023Y-118667380D01*
%TO.C,Q1*%
X133067261Y-118662619D02*
X132972023Y-118615000D01*
X132972023Y-118615000D02*
X132876785Y-118519761D01*
X132876785Y-118519761D02*
X132733928Y-118376904D01*
X132733928Y-118376904D02*
X132638690Y-118329285D01*
X132638690Y-118329285D02*
X132543452Y-118329285D01*
X132591071Y-118567380D02*
X132495833Y-118519761D01*
X132495833Y-118519761D02*
X132400595Y-118424523D01*
X132400595Y-118424523D02*
X132352976Y-118234047D01*
X132352976Y-118234047D02*
X132352976Y-117900714D01*
X132352976Y-117900714D02*
X132400595Y-117710238D01*
X132400595Y-117710238D02*
X132495833Y-117615000D01*
X132495833Y-117615000D02*
X132591071Y-117567380D01*
X132591071Y-117567380D02*
X132781547Y-117567380D01*
X132781547Y-117567380D02*
X132876785Y-117615000D01*
X132876785Y-117615000D02*
X132972023Y-117710238D01*
X132972023Y-117710238D02*
X133019642Y-117900714D01*
X133019642Y-117900714D02*
X133019642Y-118234047D01*
X133019642Y-118234047D02*
X132972023Y-118424523D01*
X132972023Y-118424523D02*
X132876785Y-118519761D01*
X132876785Y-118519761D02*
X132781547Y-118567380D01*
X132781547Y-118567380D02*
X132591071Y-118567380D01*
X133972023Y-118567380D02*
X133400595Y-118567380D01*
X133686309Y-118567380D02*
X133686309Y-117567380D01*
X133686309Y-117567380D02*
X133591071Y-117710238D01*
X133591071Y-117710238D02*
X133495833Y-117805476D01*
X133495833Y-117805476D02*
X133400595Y-117853095D01*
%TO.C,JPRS3*%
X167990476Y-127167380D02*
X167990476Y-127881666D01*
X167990476Y-127881666D02*
X167942857Y-128024523D01*
X167942857Y-128024523D02*
X167847619Y-128119761D01*
X167847619Y-128119761D02*
X167704762Y-128167380D01*
X167704762Y-128167380D02*
X167609524Y-128167380D01*
X168466667Y-128167380D02*
X168466667Y-127167380D01*
X168466667Y-127167380D02*
X168847619Y-127167380D01*
X168847619Y-127167380D02*
X168942857Y-127215000D01*
X168942857Y-127215000D02*
X168990476Y-127262619D01*
X168990476Y-127262619D02*
X169038095Y-127357857D01*
X169038095Y-127357857D02*
X169038095Y-127500714D01*
X169038095Y-127500714D02*
X168990476Y-127595952D01*
X168990476Y-127595952D02*
X168942857Y-127643571D01*
X168942857Y-127643571D02*
X168847619Y-127691190D01*
X168847619Y-127691190D02*
X168466667Y-127691190D01*
X170038095Y-128167380D02*
X169704762Y-127691190D01*
X169466667Y-128167380D02*
X169466667Y-127167380D01*
X169466667Y-127167380D02*
X169847619Y-127167380D01*
X169847619Y-127167380D02*
X169942857Y-127215000D01*
X169942857Y-127215000D02*
X169990476Y-127262619D01*
X169990476Y-127262619D02*
X170038095Y-127357857D01*
X170038095Y-127357857D02*
X170038095Y-127500714D01*
X170038095Y-127500714D02*
X169990476Y-127595952D01*
X169990476Y-127595952D02*
X169942857Y-127643571D01*
X169942857Y-127643571D02*
X169847619Y-127691190D01*
X169847619Y-127691190D02*
X169466667Y-127691190D01*
X170419048Y-128119761D02*
X170561905Y-128167380D01*
X170561905Y-128167380D02*
X170800000Y-128167380D01*
X170800000Y-128167380D02*
X170895238Y-128119761D01*
X170895238Y-128119761D02*
X170942857Y-128072142D01*
X170942857Y-128072142D02*
X170990476Y-127976904D01*
X170990476Y-127976904D02*
X170990476Y-127881666D01*
X170990476Y-127881666D02*
X170942857Y-127786428D01*
X170942857Y-127786428D02*
X170895238Y-127738809D01*
X170895238Y-127738809D02*
X170800000Y-127691190D01*
X170800000Y-127691190D02*
X170609524Y-127643571D01*
X170609524Y-127643571D02*
X170514286Y-127595952D01*
X170514286Y-127595952D02*
X170466667Y-127548333D01*
X170466667Y-127548333D02*
X170419048Y-127453095D01*
X170419048Y-127453095D02*
X170419048Y-127357857D01*
X170419048Y-127357857D02*
X170466667Y-127262619D01*
X170466667Y-127262619D02*
X170514286Y-127215000D01*
X170514286Y-127215000D02*
X170609524Y-127167380D01*
X170609524Y-127167380D02*
X170847619Y-127167380D01*
X170847619Y-127167380D02*
X170990476Y-127215000D01*
X171323810Y-127167380D02*
X171942857Y-127167380D01*
X171942857Y-127167380D02*
X171609524Y-127548333D01*
X171609524Y-127548333D02*
X171752381Y-127548333D01*
X171752381Y-127548333D02*
X171847619Y-127595952D01*
X171847619Y-127595952D02*
X171895238Y-127643571D01*
X171895238Y-127643571D02*
X171942857Y-127738809D01*
X171942857Y-127738809D02*
X171942857Y-127976904D01*
X171942857Y-127976904D02*
X171895238Y-128072142D01*
X171895238Y-128072142D02*
X171847619Y-128119761D01*
X171847619Y-128119761D02*
X171752381Y-128167380D01*
X171752381Y-128167380D02*
X171466667Y-128167380D01*
X171466667Y-128167380D02*
X171371429Y-128119761D01*
X171371429Y-128119761D02*
X171323810Y-128072142D01*
X167485714Y-129967380D02*
X166914286Y-129967380D01*
X167200000Y-129967380D02*
X167200000Y-128967380D01*
X167200000Y-128967380D02*
X167104762Y-129110238D01*
X167104762Y-129110238D02*
X167009524Y-129205476D01*
X167009524Y-129205476D02*
X166914286Y-129253095D01*
X172066667Y-128967380D02*
X172685714Y-128967380D01*
X172685714Y-128967380D02*
X172352381Y-129348333D01*
X172352381Y-129348333D02*
X172495238Y-129348333D01*
X172495238Y-129348333D02*
X172590476Y-129395952D01*
X172590476Y-129395952D02*
X172638095Y-129443571D01*
X172638095Y-129443571D02*
X172685714Y-129538809D01*
X172685714Y-129538809D02*
X172685714Y-129776904D01*
X172685714Y-129776904D02*
X172638095Y-129872142D01*
X172638095Y-129872142D02*
X172590476Y-129919761D01*
X172590476Y-129919761D02*
X172495238Y-129967380D01*
X172495238Y-129967380D02*
X172209524Y-129967380D01*
X172209524Y-129967380D02*
X172114286Y-129919761D01*
X172114286Y-129919761D02*
X172066667Y-129872142D01*
%TO.C,JPRS2*%
X143290476Y-127367380D02*
X143290476Y-128081666D01*
X143290476Y-128081666D02*
X143242857Y-128224523D01*
X143242857Y-128224523D02*
X143147619Y-128319761D01*
X143147619Y-128319761D02*
X143004762Y-128367380D01*
X143004762Y-128367380D02*
X142909524Y-128367380D01*
X143766667Y-128367380D02*
X143766667Y-127367380D01*
X143766667Y-127367380D02*
X144147619Y-127367380D01*
X144147619Y-127367380D02*
X144242857Y-127415000D01*
X144242857Y-127415000D02*
X144290476Y-127462619D01*
X144290476Y-127462619D02*
X144338095Y-127557857D01*
X144338095Y-127557857D02*
X144338095Y-127700714D01*
X144338095Y-127700714D02*
X144290476Y-127795952D01*
X144290476Y-127795952D02*
X144242857Y-127843571D01*
X144242857Y-127843571D02*
X144147619Y-127891190D01*
X144147619Y-127891190D02*
X143766667Y-127891190D01*
X145338095Y-128367380D02*
X145004762Y-127891190D01*
X144766667Y-128367380D02*
X144766667Y-127367380D01*
X144766667Y-127367380D02*
X145147619Y-127367380D01*
X145147619Y-127367380D02*
X145242857Y-127415000D01*
X145242857Y-127415000D02*
X145290476Y-127462619D01*
X145290476Y-127462619D02*
X145338095Y-127557857D01*
X145338095Y-127557857D02*
X145338095Y-127700714D01*
X145338095Y-127700714D02*
X145290476Y-127795952D01*
X145290476Y-127795952D02*
X145242857Y-127843571D01*
X145242857Y-127843571D02*
X145147619Y-127891190D01*
X145147619Y-127891190D02*
X144766667Y-127891190D01*
X145719048Y-128319761D02*
X145861905Y-128367380D01*
X145861905Y-128367380D02*
X146100000Y-128367380D01*
X146100000Y-128367380D02*
X146195238Y-128319761D01*
X146195238Y-128319761D02*
X146242857Y-128272142D01*
X146242857Y-128272142D02*
X146290476Y-128176904D01*
X146290476Y-128176904D02*
X146290476Y-128081666D01*
X146290476Y-128081666D02*
X146242857Y-127986428D01*
X146242857Y-127986428D02*
X146195238Y-127938809D01*
X146195238Y-127938809D02*
X146100000Y-127891190D01*
X146100000Y-127891190D02*
X145909524Y-127843571D01*
X145909524Y-127843571D02*
X145814286Y-127795952D01*
X145814286Y-127795952D02*
X145766667Y-127748333D01*
X145766667Y-127748333D02*
X145719048Y-127653095D01*
X145719048Y-127653095D02*
X145719048Y-127557857D01*
X145719048Y-127557857D02*
X145766667Y-127462619D01*
X145766667Y-127462619D02*
X145814286Y-127415000D01*
X145814286Y-127415000D02*
X145909524Y-127367380D01*
X145909524Y-127367380D02*
X146147619Y-127367380D01*
X146147619Y-127367380D02*
X146290476Y-127415000D01*
X146671429Y-127462619D02*
X146719048Y-127415000D01*
X146719048Y-127415000D02*
X146814286Y-127367380D01*
X146814286Y-127367380D02*
X147052381Y-127367380D01*
X147052381Y-127367380D02*
X147147619Y-127415000D01*
X147147619Y-127415000D02*
X147195238Y-127462619D01*
X147195238Y-127462619D02*
X147242857Y-127557857D01*
X147242857Y-127557857D02*
X147242857Y-127653095D01*
X147242857Y-127653095D02*
X147195238Y-127795952D01*
X147195238Y-127795952D02*
X146623810Y-128367380D01*
X146623810Y-128367380D02*
X147242857Y-128367380D01*
X142785714Y-130167380D02*
X142214286Y-130167380D01*
X142500000Y-130167380D02*
X142500000Y-129167380D01*
X142500000Y-129167380D02*
X142404762Y-129310238D01*
X142404762Y-129310238D02*
X142309524Y-129405476D01*
X142309524Y-129405476D02*
X142214286Y-129453095D01*
X147366667Y-129167380D02*
X147985714Y-129167380D01*
X147985714Y-129167380D02*
X147652381Y-129548333D01*
X147652381Y-129548333D02*
X147795238Y-129548333D01*
X147795238Y-129548333D02*
X147890476Y-129595952D01*
X147890476Y-129595952D02*
X147938095Y-129643571D01*
X147938095Y-129643571D02*
X147985714Y-129738809D01*
X147985714Y-129738809D02*
X147985714Y-129976904D01*
X147985714Y-129976904D02*
X147938095Y-130072142D01*
X147938095Y-130072142D02*
X147890476Y-130119761D01*
X147890476Y-130119761D02*
X147795238Y-130167380D01*
X147795238Y-130167380D02*
X147509524Y-130167380D01*
X147509524Y-130167380D02*
X147414286Y-130119761D01*
X147414286Y-130119761D02*
X147366667Y-130072142D01*
%TO.C,JPRS1*%
X118890476Y-127267380D02*
X118890476Y-127981666D01*
X118890476Y-127981666D02*
X118842857Y-128124523D01*
X118842857Y-128124523D02*
X118747619Y-128219761D01*
X118747619Y-128219761D02*
X118604762Y-128267380D01*
X118604762Y-128267380D02*
X118509524Y-128267380D01*
X119366667Y-128267380D02*
X119366667Y-127267380D01*
X119366667Y-127267380D02*
X119747619Y-127267380D01*
X119747619Y-127267380D02*
X119842857Y-127315000D01*
X119842857Y-127315000D02*
X119890476Y-127362619D01*
X119890476Y-127362619D02*
X119938095Y-127457857D01*
X119938095Y-127457857D02*
X119938095Y-127600714D01*
X119938095Y-127600714D02*
X119890476Y-127695952D01*
X119890476Y-127695952D02*
X119842857Y-127743571D01*
X119842857Y-127743571D02*
X119747619Y-127791190D01*
X119747619Y-127791190D02*
X119366667Y-127791190D01*
X120938095Y-128267380D02*
X120604762Y-127791190D01*
X120366667Y-128267380D02*
X120366667Y-127267380D01*
X120366667Y-127267380D02*
X120747619Y-127267380D01*
X120747619Y-127267380D02*
X120842857Y-127315000D01*
X120842857Y-127315000D02*
X120890476Y-127362619D01*
X120890476Y-127362619D02*
X120938095Y-127457857D01*
X120938095Y-127457857D02*
X120938095Y-127600714D01*
X120938095Y-127600714D02*
X120890476Y-127695952D01*
X120890476Y-127695952D02*
X120842857Y-127743571D01*
X120842857Y-127743571D02*
X120747619Y-127791190D01*
X120747619Y-127791190D02*
X120366667Y-127791190D01*
X121319048Y-128219761D02*
X121461905Y-128267380D01*
X121461905Y-128267380D02*
X121700000Y-128267380D01*
X121700000Y-128267380D02*
X121795238Y-128219761D01*
X121795238Y-128219761D02*
X121842857Y-128172142D01*
X121842857Y-128172142D02*
X121890476Y-128076904D01*
X121890476Y-128076904D02*
X121890476Y-127981666D01*
X121890476Y-127981666D02*
X121842857Y-127886428D01*
X121842857Y-127886428D02*
X121795238Y-127838809D01*
X121795238Y-127838809D02*
X121700000Y-127791190D01*
X121700000Y-127791190D02*
X121509524Y-127743571D01*
X121509524Y-127743571D02*
X121414286Y-127695952D01*
X121414286Y-127695952D02*
X121366667Y-127648333D01*
X121366667Y-127648333D02*
X121319048Y-127553095D01*
X121319048Y-127553095D02*
X121319048Y-127457857D01*
X121319048Y-127457857D02*
X121366667Y-127362619D01*
X121366667Y-127362619D02*
X121414286Y-127315000D01*
X121414286Y-127315000D02*
X121509524Y-127267380D01*
X121509524Y-127267380D02*
X121747619Y-127267380D01*
X121747619Y-127267380D02*
X121890476Y-127315000D01*
X122842857Y-128267380D02*
X122271429Y-128267380D01*
X122557143Y-128267380D02*
X122557143Y-127267380D01*
X122557143Y-127267380D02*
X122461905Y-127410238D01*
X122461905Y-127410238D02*
X122366667Y-127505476D01*
X122366667Y-127505476D02*
X122271429Y-127553095D01*
X118385714Y-130067380D02*
X117814286Y-130067380D01*
X118100000Y-130067380D02*
X118100000Y-129067380D01*
X118100000Y-129067380D02*
X118004762Y-129210238D01*
X118004762Y-129210238D02*
X117909524Y-129305476D01*
X117909524Y-129305476D02*
X117814286Y-129353095D01*
X122966667Y-129067380D02*
X123585714Y-129067380D01*
X123585714Y-129067380D02*
X123252381Y-129448333D01*
X123252381Y-129448333D02*
X123395238Y-129448333D01*
X123395238Y-129448333D02*
X123490476Y-129495952D01*
X123490476Y-129495952D02*
X123538095Y-129543571D01*
X123538095Y-129543571D02*
X123585714Y-129638809D01*
X123585714Y-129638809D02*
X123585714Y-129876904D01*
X123585714Y-129876904D02*
X123538095Y-129972142D01*
X123538095Y-129972142D02*
X123490476Y-130019761D01*
X123490476Y-130019761D02*
X123395238Y-130067380D01*
X123395238Y-130067380D02*
X123109524Y-130067380D01*
X123109524Y-130067380D02*
X123014286Y-130019761D01*
X123014286Y-130019761D02*
X122966667Y-129972142D01*
%TO.C,JPRB3*%
X162366666Y-122467380D02*
X162366666Y-123181666D01*
X162366666Y-123181666D02*
X162319047Y-123324523D01*
X162319047Y-123324523D02*
X162223809Y-123419761D01*
X162223809Y-123419761D02*
X162080952Y-123467380D01*
X162080952Y-123467380D02*
X161985714Y-123467380D01*
X162842857Y-123467380D02*
X162842857Y-122467380D01*
X162842857Y-122467380D02*
X163223809Y-122467380D01*
X163223809Y-122467380D02*
X163319047Y-122515000D01*
X163319047Y-122515000D02*
X163366666Y-122562619D01*
X163366666Y-122562619D02*
X163414285Y-122657857D01*
X163414285Y-122657857D02*
X163414285Y-122800714D01*
X163414285Y-122800714D02*
X163366666Y-122895952D01*
X163366666Y-122895952D02*
X163319047Y-122943571D01*
X163319047Y-122943571D02*
X163223809Y-122991190D01*
X163223809Y-122991190D02*
X162842857Y-122991190D01*
X164414285Y-123467380D02*
X164080952Y-122991190D01*
X163842857Y-123467380D02*
X163842857Y-122467380D01*
X163842857Y-122467380D02*
X164223809Y-122467380D01*
X164223809Y-122467380D02*
X164319047Y-122515000D01*
X164319047Y-122515000D02*
X164366666Y-122562619D01*
X164366666Y-122562619D02*
X164414285Y-122657857D01*
X164414285Y-122657857D02*
X164414285Y-122800714D01*
X164414285Y-122800714D02*
X164366666Y-122895952D01*
X164366666Y-122895952D02*
X164319047Y-122943571D01*
X164319047Y-122943571D02*
X164223809Y-122991190D01*
X164223809Y-122991190D02*
X163842857Y-122991190D01*
X165176190Y-122943571D02*
X165319047Y-122991190D01*
X165319047Y-122991190D02*
X165366666Y-123038809D01*
X165366666Y-123038809D02*
X165414285Y-123134047D01*
X165414285Y-123134047D02*
X165414285Y-123276904D01*
X165414285Y-123276904D02*
X165366666Y-123372142D01*
X165366666Y-123372142D02*
X165319047Y-123419761D01*
X165319047Y-123419761D02*
X165223809Y-123467380D01*
X165223809Y-123467380D02*
X164842857Y-123467380D01*
X164842857Y-123467380D02*
X164842857Y-122467380D01*
X164842857Y-122467380D02*
X165176190Y-122467380D01*
X165176190Y-122467380D02*
X165271428Y-122515000D01*
X165271428Y-122515000D02*
X165319047Y-122562619D01*
X165319047Y-122562619D02*
X165366666Y-122657857D01*
X165366666Y-122657857D02*
X165366666Y-122753095D01*
X165366666Y-122753095D02*
X165319047Y-122848333D01*
X165319047Y-122848333D02*
X165271428Y-122895952D01*
X165271428Y-122895952D02*
X165176190Y-122943571D01*
X165176190Y-122943571D02*
X164842857Y-122943571D01*
X165747619Y-122467380D02*
X166366666Y-122467380D01*
X166366666Y-122467380D02*
X166033333Y-122848333D01*
X166033333Y-122848333D02*
X166176190Y-122848333D01*
X166176190Y-122848333D02*
X166271428Y-122895952D01*
X166271428Y-122895952D02*
X166319047Y-122943571D01*
X166319047Y-122943571D02*
X166366666Y-123038809D01*
X166366666Y-123038809D02*
X166366666Y-123276904D01*
X166366666Y-123276904D02*
X166319047Y-123372142D01*
X166319047Y-123372142D02*
X166271428Y-123419761D01*
X166271428Y-123419761D02*
X166176190Y-123467380D01*
X166176190Y-123467380D02*
X165890476Y-123467380D01*
X165890476Y-123467380D02*
X165795238Y-123419761D01*
X165795238Y-123419761D02*
X165747619Y-123372142D01*
X166466667Y-124267380D02*
X167085714Y-124267380D01*
X167085714Y-124267380D02*
X166752381Y-124648333D01*
X166752381Y-124648333D02*
X166895238Y-124648333D01*
X166895238Y-124648333D02*
X166990476Y-124695952D01*
X166990476Y-124695952D02*
X167038095Y-124743571D01*
X167038095Y-124743571D02*
X167085714Y-124838809D01*
X167085714Y-124838809D02*
X167085714Y-125076904D01*
X167085714Y-125076904D02*
X167038095Y-125172142D01*
X167038095Y-125172142D02*
X166990476Y-125219761D01*
X166990476Y-125219761D02*
X166895238Y-125267380D01*
X166895238Y-125267380D02*
X166609524Y-125267380D01*
X166609524Y-125267380D02*
X166514286Y-125219761D01*
X166514286Y-125219761D02*
X166466667Y-125172142D01*
X161885714Y-125267380D02*
X161314286Y-125267380D01*
X161600000Y-125267380D02*
X161600000Y-124267380D01*
X161600000Y-124267380D02*
X161504762Y-124410238D01*
X161504762Y-124410238D02*
X161409524Y-124505476D01*
X161409524Y-124505476D02*
X161314286Y-124553095D01*
%TO.C,JPRB2*%
X148466666Y-122567380D02*
X148466666Y-123281666D01*
X148466666Y-123281666D02*
X148419047Y-123424523D01*
X148419047Y-123424523D02*
X148323809Y-123519761D01*
X148323809Y-123519761D02*
X148180952Y-123567380D01*
X148180952Y-123567380D02*
X148085714Y-123567380D01*
X148942857Y-123567380D02*
X148942857Y-122567380D01*
X148942857Y-122567380D02*
X149323809Y-122567380D01*
X149323809Y-122567380D02*
X149419047Y-122615000D01*
X149419047Y-122615000D02*
X149466666Y-122662619D01*
X149466666Y-122662619D02*
X149514285Y-122757857D01*
X149514285Y-122757857D02*
X149514285Y-122900714D01*
X149514285Y-122900714D02*
X149466666Y-122995952D01*
X149466666Y-122995952D02*
X149419047Y-123043571D01*
X149419047Y-123043571D02*
X149323809Y-123091190D01*
X149323809Y-123091190D02*
X148942857Y-123091190D01*
X150514285Y-123567380D02*
X150180952Y-123091190D01*
X149942857Y-123567380D02*
X149942857Y-122567380D01*
X149942857Y-122567380D02*
X150323809Y-122567380D01*
X150323809Y-122567380D02*
X150419047Y-122615000D01*
X150419047Y-122615000D02*
X150466666Y-122662619D01*
X150466666Y-122662619D02*
X150514285Y-122757857D01*
X150514285Y-122757857D02*
X150514285Y-122900714D01*
X150514285Y-122900714D02*
X150466666Y-122995952D01*
X150466666Y-122995952D02*
X150419047Y-123043571D01*
X150419047Y-123043571D02*
X150323809Y-123091190D01*
X150323809Y-123091190D02*
X149942857Y-123091190D01*
X151276190Y-123043571D02*
X151419047Y-123091190D01*
X151419047Y-123091190D02*
X151466666Y-123138809D01*
X151466666Y-123138809D02*
X151514285Y-123234047D01*
X151514285Y-123234047D02*
X151514285Y-123376904D01*
X151514285Y-123376904D02*
X151466666Y-123472142D01*
X151466666Y-123472142D02*
X151419047Y-123519761D01*
X151419047Y-123519761D02*
X151323809Y-123567380D01*
X151323809Y-123567380D02*
X150942857Y-123567380D01*
X150942857Y-123567380D02*
X150942857Y-122567380D01*
X150942857Y-122567380D02*
X151276190Y-122567380D01*
X151276190Y-122567380D02*
X151371428Y-122615000D01*
X151371428Y-122615000D02*
X151419047Y-122662619D01*
X151419047Y-122662619D02*
X151466666Y-122757857D01*
X151466666Y-122757857D02*
X151466666Y-122853095D01*
X151466666Y-122853095D02*
X151419047Y-122948333D01*
X151419047Y-122948333D02*
X151371428Y-122995952D01*
X151371428Y-122995952D02*
X151276190Y-123043571D01*
X151276190Y-123043571D02*
X150942857Y-123043571D01*
X151895238Y-122662619D02*
X151942857Y-122615000D01*
X151942857Y-122615000D02*
X152038095Y-122567380D01*
X152038095Y-122567380D02*
X152276190Y-122567380D01*
X152276190Y-122567380D02*
X152371428Y-122615000D01*
X152371428Y-122615000D02*
X152419047Y-122662619D01*
X152419047Y-122662619D02*
X152466666Y-122757857D01*
X152466666Y-122757857D02*
X152466666Y-122853095D01*
X152466666Y-122853095D02*
X152419047Y-122995952D01*
X152419047Y-122995952D02*
X151847619Y-123567380D01*
X151847619Y-123567380D02*
X152466666Y-123567380D01*
X147985714Y-125367380D02*
X147414286Y-125367380D01*
X147700000Y-125367380D02*
X147700000Y-124367380D01*
X147700000Y-124367380D02*
X147604762Y-124510238D01*
X147604762Y-124510238D02*
X147509524Y-124605476D01*
X147509524Y-124605476D02*
X147414286Y-124653095D01*
X152566667Y-124367380D02*
X153185714Y-124367380D01*
X153185714Y-124367380D02*
X152852381Y-124748333D01*
X152852381Y-124748333D02*
X152995238Y-124748333D01*
X152995238Y-124748333D02*
X153090476Y-124795952D01*
X153090476Y-124795952D02*
X153138095Y-124843571D01*
X153138095Y-124843571D02*
X153185714Y-124938809D01*
X153185714Y-124938809D02*
X153185714Y-125176904D01*
X153185714Y-125176904D02*
X153138095Y-125272142D01*
X153138095Y-125272142D02*
X153090476Y-125319761D01*
X153090476Y-125319761D02*
X152995238Y-125367380D01*
X152995238Y-125367380D02*
X152709524Y-125367380D01*
X152709524Y-125367380D02*
X152614286Y-125319761D01*
X152614286Y-125319761D02*
X152566667Y-125272142D01*
%TO.C,JPRB1*%
X124066666Y-122567380D02*
X124066666Y-123281666D01*
X124066666Y-123281666D02*
X124019047Y-123424523D01*
X124019047Y-123424523D02*
X123923809Y-123519761D01*
X123923809Y-123519761D02*
X123780952Y-123567380D01*
X123780952Y-123567380D02*
X123685714Y-123567380D01*
X124542857Y-123567380D02*
X124542857Y-122567380D01*
X124542857Y-122567380D02*
X124923809Y-122567380D01*
X124923809Y-122567380D02*
X125019047Y-122615000D01*
X125019047Y-122615000D02*
X125066666Y-122662619D01*
X125066666Y-122662619D02*
X125114285Y-122757857D01*
X125114285Y-122757857D02*
X125114285Y-122900714D01*
X125114285Y-122900714D02*
X125066666Y-122995952D01*
X125066666Y-122995952D02*
X125019047Y-123043571D01*
X125019047Y-123043571D02*
X124923809Y-123091190D01*
X124923809Y-123091190D02*
X124542857Y-123091190D01*
X126114285Y-123567380D02*
X125780952Y-123091190D01*
X125542857Y-123567380D02*
X125542857Y-122567380D01*
X125542857Y-122567380D02*
X125923809Y-122567380D01*
X125923809Y-122567380D02*
X126019047Y-122615000D01*
X126019047Y-122615000D02*
X126066666Y-122662619D01*
X126066666Y-122662619D02*
X126114285Y-122757857D01*
X126114285Y-122757857D02*
X126114285Y-122900714D01*
X126114285Y-122900714D02*
X126066666Y-122995952D01*
X126066666Y-122995952D02*
X126019047Y-123043571D01*
X126019047Y-123043571D02*
X125923809Y-123091190D01*
X125923809Y-123091190D02*
X125542857Y-123091190D01*
X126876190Y-123043571D02*
X127019047Y-123091190D01*
X127019047Y-123091190D02*
X127066666Y-123138809D01*
X127066666Y-123138809D02*
X127114285Y-123234047D01*
X127114285Y-123234047D02*
X127114285Y-123376904D01*
X127114285Y-123376904D02*
X127066666Y-123472142D01*
X127066666Y-123472142D02*
X127019047Y-123519761D01*
X127019047Y-123519761D02*
X126923809Y-123567380D01*
X126923809Y-123567380D02*
X126542857Y-123567380D01*
X126542857Y-123567380D02*
X126542857Y-122567380D01*
X126542857Y-122567380D02*
X126876190Y-122567380D01*
X126876190Y-122567380D02*
X126971428Y-122615000D01*
X126971428Y-122615000D02*
X127019047Y-122662619D01*
X127019047Y-122662619D02*
X127066666Y-122757857D01*
X127066666Y-122757857D02*
X127066666Y-122853095D01*
X127066666Y-122853095D02*
X127019047Y-122948333D01*
X127019047Y-122948333D02*
X126971428Y-122995952D01*
X126971428Y-122995952D02*
X126876190Y-123043571D01*
X126876190Y-123043571D02*
X126542857Y-123043571D01*
X128066666Y-123567380D02*
X127495238Y-123567380D01*
X127780952Y-123567380D02*
X127780952Y-122567380D01*
X127780952Y-122567380D02*
X127685714Y-122710238D01*
X127685714Y-122710238D02*
X127590476Y-122805476D01*
X127590476Y-122805476D02*
X127495238Y-122853095D01*
X123585714Y-125367380D02*
X123014286Y-125367380D01*
X123300000Y-125367380D02*
X123300000Y-124367380D01*
X123300000Y-124367380D02*
X123204762Y-124510238D01*
X123204762Y-124510238D02*
X123109524Y-124605476D01*
X123109524Y-124605476D02*
X123014286Y-124653095D01*
X128166667Y-124367380D02*
X128785714Y-124367380D01*
X128785714Y-124367380D02*
X128452381Y-124748333D01*
X128452381Y-124748333D02*
X128595238Y-124748333D01*
X128595238Y-124748333D02*
X128690476Y-124795952D01*
X128690476Y-124795952D02*
X128738095Y-124843571D01*
X128738095Y-124843571D02*
X128785714Y-124938809D01*
X128785714Y-124938809D02*
X128785714Y-125176904D01*
X128785714Y-125176904D02*
X128738095Y-125272142D01*
X128738095Y-125272142D02*
X128690476Y-125319761D01*
X128690476Y-125319761D02*
X128595238Y-125367380D01*
X128595238Y-125367380D02*
X128309524Y-125367380D01*
X128309524Y-125367380D02*
X128214286Y-125319761D01*
X128214286Y-125319761D02*
X128166667Y-125272142D01*
%TO.C,JPR6*%
X157866666Y-103767380D02*
X157866666Y-104481666D01*
X157866666Y-104481666D02*
X157819047Y-104624523D01*
X157819047Y-104624523D02*
X157723809Y-104719761D01*
X157723809Y-104719761D02*
X157580952Y-104767380D01*
X157580952Y-104767380D02*
X157485714Y-104767380D01*
X158342857Y-104767380D02*
X158342857Y-103767380D01*
X158342857Y-103767380D02*
X158723809Y-103767380D01*
X158723809Y-103767380D02*
X158819047Y-103815000D01*
X158819047Y-103815000D02*
X158866666Y-103862619D01*
X158866666Y-103862619D02*
X158914285Y-103957857D01*
X158914285Y-103957857D02*
X158914285Y-104100714D01*
X158914285Y-104100714D02*
X158866666Y-104195952D01*
X158866666Y-104195952D02*
X158819047Y-104243571D01*
X158819047Y-104243571D02*
X158723809Y-104291190D01*
X158723809Y-104291190D02*
X158342857Y-104291190D01*
X159914285Y-104767380D02*
X159580952Y-104291190D01*
X159342857Y-104767380D02*
X159342857Y-103767380D01*
X159342857Y-103767380D02*
X159723809Y-103767380D01*
X159723809Y-103767380D02*
X159819047Y-103815000D01*
X159819047Y-103815000D02*
X159866666Y-103862619D01*
X159866666Y-103862619D02*
X159914285Y-103957857D01*
X159914285Y-103957857D02*
X159914285Y-104100714D01*
X159914285Y-104100714D02*
X159866666Y-104195952D01*
X159866666Y-104195952D02*
X159819047Y-104243571D01*
X159819047Y-104243571D02*
X159723809Y-104291190D01*
X159723809Y-104291190D02*
X159342857Y-104291190D01*
X160771428Y-103767380D02*
X160580952Y-103767380D01*
X160580952Y-103767380D02*
X160485714Y-103815000D01*
X160485714Y-103815000D02*
X160438095Y-103862619D01*
X160438095Y-103862619D02*
X160342857Y-104005476D01*
X160342857Y-104005476D02*
X160295238Y-104195952D01*
X160295238Y-104195952D02*
X160295238Y-104576904D01*
X160295238Y-104576904D02*
X160342857Y-104672142D01*
X160342857Y-104672142D02*
X160390476Y-104719761D01*
X160390476Y-104719761D02*
X160485714Y-104767380D01*
X160485714Y-104767380D02*
X160676190Y-104767380D01*
X160676190Y-104767380D02*
X160771428Y-104719761D01*
X160771428Y-104719761D02*
X160819047Y-104672142D01*
X160819047Y-104672142D02*
X160866666Y-104576904D01*
X160866666Y-104576904D02*
X160866666Y-104338809D01*
X160866666Y-104338809D02*
X160819047Y-104243571D01*
X160819047Y-104243571D02*
X160771428Y-104195952D01*
X160771428Y-104195952D02*
X160676190Y-104148333D01*
X160676190Y-104148333D02*
X160485714Y-104148333D01*
X160485714Y-104148333D02*
X160390476Y-104195952D01*
X160390476Y-104195952D02*
X160342857Y-104243571D01*
X160342857Y-104243571D02*
X160295238Y-104338809D01*
X156885714Y-106567380D02*
X156314286Y-106567380D01*
X156600000Y-106567380D02*
X156600000Y-105567380D01*
X156600000Y-105567380D02*
X156504762Y-105710238D01*
X156504762Y-105710238D02*
X156409524Y-105805476D01*
X156409524Y-105805476D02*
X156314286Y-105853095D01*
X161466667Y-105567380D02*
X162085714Y-105567380D01*
X162085714Y-105567380D02*
X161752381Y-105948333D01*
X161752381Y-105948333D02*
X161895238Y-105948333D01*
X161895238Y-105948333D02*
X161990476Y-105995952D01*
X161990476Y-105995952D02*
X162038095Y-106043571D01*
X162038095Y-106043571D02*
X162085714Y-106138809D01*
X162085714Y-106138809D02*
X162085714Y-106376904D01*
X162085714Y-106376904D02*
X162038095Y-106472142D01*
X162038095Y-106472142D02*
X161990476Y-106519761D01*
X161990476Y-106519761D02*
X161895238Y-106567380D01*
X161895238Y-106567380D02*
X161609524Y-106567380D01*
X161609524Y-106567380D02*
X161514286Y-106519761D01*
X161514286Y-106519761D02*
X161466667Y-106472142D01*
%TO.C,JPR5*%
X157666666Y-95567380D02*
X157666666Y-96281666D01*
X157666666Y-96281666D02*
X157619047Y-96424523D01*
X157619047Y-96424523D02*
X157523809Y-96519761D01*
X157523809Y-96519761D02*
X157380952Y-96567380D01*
X157380952Y-96567380D02*
X157285714Y-96567380D01*
X158142857Y-96567380D02*
X158142857Y-95567380D01*
X158142857Y-95567380D02*
X158523809Y-95567380D01*
X158523809Y-95567380D02*
X158619047Y-95615000D01*
X158619047Y-95615000D02*
X158666666Y-95662619D01*
X158666666Y-95662619D02*
X158714285Y-95757857D01*
X158714285Y-95757857D02*
X158714285Y-95900714D01*
X158714285Y-95900714D02*
X158666666Y-95995952D01*
X158666666Y-95995952D02*
X158619047Y-96043571D01*
X158619047Y-96043571D02*
X158523809Y-96091190D01*
X158523809Y-96091190D02*
X158142857Y-96091190D01*
X159714285Y-96567380D02*
X159380952Y-96091190D01*
X159142857Y-96567380D02*
X159142857Y-95567380D01*
X159142857Y-95567380D02*
X159523809Y-95567380D01*
X159523809Y-95567380D02*
X159619047Y-95615000D01*
X159619047Y-95615000D02*
X159666666Y-95662619D01*
X159666666Y-95662619D02*
X159714285Y-95757857D01*
X159714285Y-95757857D02*
X159714285Y-95900714D01*
X159714285Y-95900714D02*
X159666666Y-95995952D01*
X159666666Y-95995952D02*
X159619047Y-96043571D01*
X159619047Y-96043571D02*
X159523809Y-96091190D01*
X159523809Y-96091190D02*
X159142857Y-96091190D01*
X160619047Y-95567380D02*
X160142857Y-95567380D01*
X160142857Y-95567380D02*
X160095238Y-96043571D01*
X160095238Y-96043571D02*
X160142857Y-95995952D01*
X160142857Y-95995952D02*
X160238095Y-95948333D01*
X160238095Y-95948333D02*
X160476190Y-95948333D01*
X160476190Y-95948333D02*
X160571428Y-95995952D01*
X160571428Y-95995952D02*
X160619047Y-96043571D01*
X160619047Y-96043571D02*
X160666666Y-96138809D01*
X160666666Y-96138809D02*
X160666666Y-96376904D01*
X160666666Y-96376904D02*
X160619047Y-96472142D01*
X160619047Y-96472142D02*
X160571428Y-96519761D01*
X160571428Y-96519761D02*
X160476190Y-96567380D01*
X160476190Y-96567380D02*
X160238095Y-96567380D01*
X160238095Y-96567380D02*
X160142857Y-96519761D01*
X160142857Y-96519761D02*
X160095238Y-96472142D01*
X156685714Y-98367380D02*
X156114286Y-98367380D01*
X156400000Y-98367380D02*
X156400000Y-97367380D01*
X156400000Y-97367380D02*
X156304762Y-97510238D01*
X156304762Y-97510238D02*
X156209524Y-97605476D01*
X156209524Y-97605476D02*
X156114286Y-97653095D01*
X161266667Y-97367380D02*
X161885714Y-97367380D01*
X161885714Y-97367380D02*
X161552381Y-97748333D01*
X161552381Y-97748333D02*
X161695238Y-97748333D01*
X161695238Y-97748333D02*
X161790476Y-97795952D01*
X161790476Y-97795952D02*
X161838095Y-97843571D01*
X161838095Y-97843571D02*
X161885714Y-97938809D01*
X161885714Y-97938809D02*
X161885714Y-98176904D01*
X161885714Y-98176904D02*
X161838095Y-98272142D01*
X161838095Y-98272142D02*
X161790476Y-98319761D01*
X161790476Y-98319761D02*
X161695238Y-98367380D01*
X161695238Y-98367380D02*
X161409524Y-98367380D01*
X161409524Y-98367380D02*
X161314286Y-98319761D01*
X161314286Y-98319761D02*
X161266667Y-98272142D01*
%TO.C,JPR4*%
X145966666Y-109867380D02*
X145966666Y-110581666D01*
X145966666Y-110581666D02*
X145919047Y-110724523D01*
X145919047Y-110724523D02*
X145823809Y-110819761D01*
X145823809Y-110819761D02*
X145680952Y-110867380D01*
X145680952Y-110867380D02*
X145585714Y-110867380D01*
X146442857Y-110867380D02*
X146442857Y-109867380D01*
X146442857Y-109867380D02*
X146823809Y-109867380D01*
X146823809Y-109867380D02*
X146919047Y-109915000D01*
X146919047Y-109915000D02*
X146966666Y-109962619D01*
X146966666Y-109962619D02*
X147014285Y-110057857D01*
X147014285Y-110057857D02*
X147014285Y-110200714D01*
X147014285Y-110200714D02*
X146966666Y-110295952D01*
X146966666Y-110295952D02*
X146919047Y-110343571D01*
X146919047Y-110343571D02*
X146823809Y-110391190D01*
X146823809Y-110391190D02*
X146442857Y-110391190D01*
X148014285Y-110867380D02*
X147680952Y-110391190D01*
X147442857Y-110867380D02*
X147442857Y-109867380D01*
X147442857Y-109867380D02*
X147823809Y-109867380D01*
X147823809Y-109867380D02*
X147919047Y-109915000D01*
X147919047Y-109915000D02*
X147966666Y-109962619D01*
X147966666Y-109962619D02*
X148014285Y-110057857D01*
X148014285Y-110057857D02*
X148014285Y-110200714D01*
X148014285Y-110200714D02*
X147966666Y-110295952D01*
X147966666Y-110295952D02*
X147919047Y-110343571D01*
X147919047Y-110343571D02*
X147823809Y-110391190D01*
X147823809Y-110391190D02*
X147442857Y-110391190D01*
X148871428Y-110200714D02*
X148871428Y-110867380D01*
X148633333Y-109819761D02*
X148395238Y-110534047D01*
X148395238Y-110534047D02*
X149014285Y-110534047D01*
X144985714Y-112667380D02*
X144414286Y-112667380D01*
X144700000Y-112667380D02*
X144700000Y-111667380D01*
X144700000Y-111667380D02*
X144604762Y-111810238D01*
X144604762Y-111810238D02*
X144509524Y-111905476D01*
X144509524Y-111905476D02*
X144414286Y-111953095D01*
X149566667Y-111667380D02*
X150185714Y-111667380D01*
X150185714Y-111667380D02*
X149852381Y-112048333D01*
X149852381Y-112048333D02*
X149995238Y-112048333D01*
X149995238Y-112048333D02*
X150090476Y-112095952D01*
X150090476Y-112095952D02*
X150138095Y-112143571D01*
X150138095Y-112143571D02*
X150185714Y-112238809D01*
X150185714Y-112238809D02*
X150185714Y-112476904D01*
X150185714Y-112476904D02*
X150138095Y-112572142D01*
X150138095Y-112572142D02*
X150090476Y-112619761D01*
X150090476Y-112619761D02*
X149995238Y-112667380D01*
X149995238Y-112667380D02*
X149709524Y-112667380D01*
X149709524Y-112667380D02*
X149614286Y-112619761D01*
X149614286Y-112619761D02*
X149566667Y-112572142D01*
%TO.C,JPR3*%
X139566666Y-109867380D02*
X139566666Y-110581666D01*
X139566666Y-110581666D02*
X139519047Y-110724523D01*
X139519047Y-110724523D02*
X139423809Y-110819761D01*
X139423809Y-110819761D02*
X139280952Y-110867380D01*
X139280952Y-110867380D02*
X139185714Y-110867380D01*
X140042857Y-110867380D02*
X140042857Y-109867380D01*
X140042857Y-109867380D02*
X140423809Y-109867380D01*
X140423809Y-109867380D02*
X140519047Y-109915000D01*
X140519047Y-109915000D02*
X140566666Y-109962619D01*
X140566666Y-109962619D02*
X140614285Y-110057857D01*
X140614285Y-110057857D02*
X140614285Y-110200714D01*
X140614285Y-110200714D02*
X140566666Y-110295952D01*
X140566666Y-110295952D02*
X140519047Y-110343571D01*
X140519047Y-110343571D02*
X140423809Y-110391190D01*
X140423809Y-110391190D02*
X140042857Y-110391190D01*
X141614285Y-110867380D02*
X141280952Y-110391190D01*
X141042857Y-110867380D02*
X141042857Y-109867380D01*
X141042857Y-109867380D02*
X141423809Y-109867380D01*
X141423809Y-109867380D02*
X141519047Y-109915000D01*
X141519047Y-109915000D02*
X141566666Y-109962619D01*
X141566666Y-109962619D02*
X141614285Y-110057857D01*
X141614285Y-110057857D02*
X141614285Y-110200714D01*
X141614285Y-110200714D02*
X141566666Y-110295952D01*
X141566666Y-110295952D02*
X141519047Y-110343571D01*
X141519047Y-110343571D02*
X141423809Y-110391190D01*
X141423809Y-110391190D02*
X141042857Y-110391190D01*
X141947619Y-109867380D02*
X142566666Y-109867380D01*
X142566666Y-109867380D02*
X142233333Y-110248333D01*
X142233333Y-110248333D02*
X142376190Y-110248333D01*
X142376190Y-110248333D02*
X142471428Y-110295952D01*
X142471428Y-110295952D02*
X142519047Y-110343571D01*
X142519047Y-110343571D02*
X142566666Y-110438809D01*
X142566666Y-110438809D02*
X142566666Y-110676904D01*
X142566666Y-110676904D02*
X142519047Y-110772142D01*
X142519047Y-110772142D02*
X142471428Y-110819761D01*
X142471428Y-110819761D02*
X142376190Y-110867380D01*
X142376190Y-110867380D02*
X142090476Y-110867380D01*
X142090476Y-110867380D02*
X141995238Y-110819761D01*
X141995238Y-110819761D02*
X141947619Y-110772142D01*
X138585714Y-112667380D02*
X138014286Y-112667380D01*
X138300000Y-112667380D02*
X138300000Y-111667380D01*
X138300000Y-111667380D02*
X138204762Y-111810238D01*
X138204762Y-111810238D02*
X138109524Y-111905476D01*
X138109524Y-111905476D02*
X138014286Y-111953095D01*
X143166667Y-111667380D02*
X143785714Y-111667380D01*
X143785714Y-111667380D02*
X143452381Y-112048333D01*
X143452381Y-112048333D02*
X143595238Y-112048333D01*
X143595238Y-112048333D02*
X143690476Y-112095952D01*
X143690476Y-112095952D02*
X143738095Y-112143571D01*
X143738095Y-112143571D02*
X143785714Y-112238809D01*
X143785714Y-112238809D02*
X143785714Y-112476904D01*
X143785714Y-112476904D02*
X143738095Y-112572142D01*
X143738095Y-112572142D02*
X143690476Y-112619761D01*
X143690476Y-112619761D02*
X143595238Y-112667380D01*
X143595238Y-112667380D02*
X143309524Y-112667380D01*
X143309524Y-112667380D02*
X143214286Y-112619761D01*
X143214286Y-112619761D02*
X143166667Y-112572142D01*
%TO.C,JPR2*%
X129366666Y-95867380D02*
X129366666Y-96581666D01*
X129366666Y-96581666D02*
X129319047Y-96724523D01*
X129319047Y-96724523D02*
X129223809Y-96819761D01*
X129223809Y-96819761D02*
X129080952Y-96867380D01*
X129080952Y-96867380D02*
X128985714Y-96867380D01*
X129842857Y-96867380D02*
X129842857Y-95867380D01*
X129842857Y-95867380D02*
X130223809Y-95867380D01*
X130223809Y-95867380D02*
X130319047Y-95915000D01*
X130319047Y-95915000D02*
X130366666Y-95962619D01*
X130366666Y-95962619D02*
X130414285Y-96057857D01*
X130414285Y-96057857D02*
X130414285Y-96200714D01*
X130414285Y-96200714D02*
X130366666Y-96295952D01*
X130366666Y-96295952D02*
X130319047Y-96343571D01*
X130319047Y-96343571D02*
X130223809Y-96391190D01*
X130223809Y-96391190D02*
X129842857Y-96391190D01*
X131414285Y-96867380D02*
X131080952Y-96391190D01*
X130842857Y-96867380D02*
X130842857Y-95867380D01*
X130842857Y-95867380D02*
X131223809Y-95867380D01*
X131223809Y-95867380D02*
X131319047Y-95915000D01*
X131319047Y-95915000D02*
X131366666Y-95962619D01*
X131366666Y-95962619D02*
X131414285Y-96057857D01*
X131414285Y-96057857D02*
X131414285Y-96200714D01*
X131414285Y-96200714D02*
X131366666Y-96295952D01*
X131366666Y-96295952D02*
X131319047Y-96343571D01*
X131319047Y-96343571D02*
X131223809Y-96391190D01*
X131223809Y-96391190D02*
X130842857Y-96391190D01*
X131795238Y-95962619D02*
X131842857Y-95915000D01*
X131842857Y-95915000D02*
X131938095Y-95867380D01*
X131938095Y-95867380D02*
X132176190Y-95867380D01*
X132176190Y-95867380D02*
X132271428Y-95915000D01*
X132271428Y-95915000D02*
X132319047Y-95962619D01*
X132319047Y-95962619D02*
X132366666Y-96057857D01*
X132366666Y-96057857D02*
X132366666Y-96153095D01*
X132366666Y-96153095D02*
X132319047Y-96295952D01*
X132319047Y-96295952D02*
X131747619Y-96867380D01*
X131747619Y-96867380D02*
X132366666Y-96867380D01*
X128385714Y-98667380D02*
X127814286Y-98667380D01*
X128100000Y-98667380D02*
X128100000Y-97667380D01*
X128100000Y-97667380D02*
X128004762Y-97810238D01*
X128004762Y-97810238D02*
X127909524Y-97905476D01*
X127909524Y-97905476D02*
X127814286Y-97953095D01*
X132966667Y-97667380D02*
X133585714Y-97667380D01*
X133585714Y-97667380D02*
X133252381Y-98048333D01*
X133252381Y-98048333D02*
X133395238Y-98048333D01*
X133395238Y-98048333D02*
X133490476Y-98095952D01*
X133490476Y-98095952D02*
X133538095Y-98143571D01*
X133538095Y-98143571D02*
X133585714Y-98238809D01*
X133585714Y-98238809D02*
X133585714Y-98476904D01*
X133585714Y-98476904D02*
X133538095Y-98572142D01*
X133538095Y-98572142D02*
X133490476Y-98619761D01*
X133490476Y-98619761D02*
X133395238Y-98667380D01*
X133395238Y-98667380D02*
X133109524Y-98667380D01*
X133109524Y-98667380D02*
X133014286Y-98619761D01*
X133014286Y-98619761D02*
X132966667Y-98572142D01*
%TO.C,JPR1*%
X129333666Y-104125380D02*
X129333666Y-104839666D01*
X129333666Y-104839666D02*
X129286047Y-104982523D01*
X129286047Y-104982523D02*
X129190809Y-105077761D01*
X129190809Y-105077761D02*
X129047952Y-105125380D01*
X129047952Y-105125380D02*
X128952714Y-105125380D01*
X129809857Y-105125380D02*
X129809857Y-104125380D01*
X129809857Y-104125380D02*
X130190809Y-104125380D01*
X130190809Y-104125380D02*
X130286047Y-104173000D01*
X130286047Y-104173000D02*
X130333666Y-104220619D01*
X130333666Y-104220619D02*
X130381285Y-104315857D01*
X130381285Y-104315857D02*
X130381285Y-104458714D01*
X130381285Y-104458714D02*
X130333666Y-104553952D01*
X130333666Y-104553952D02*
X130286047Y-104601571D01*
X130286047Y-104601571D02*
X130190809Y-104649190D01*
X130190809Y-104649190D02*
X129809857Y-104649190D01*
X131381285Y-105125380D02*
X131047952Y-104649190D01*
X130809857Y-105125380D02*
X130809857Y-104125380D01*
X130809857Y-104125380D02*
X131190809Y-104125380D01*
X131190809Y-104125380D02*
X131286047Y-104173000D01*
X131286047Y-104173000D02*
X131333666Y-104220619D01*
X131333666Y-104220619D02*
X131381285Y-104315857D01*
X131381285Y-104315857D02*
X131381285Y-104458714D01*
X131381285Y-104458714D02*
X131333666Y-104553952D01*
X131333666Y-104553952D02*
X131286047Y-104601571D01*
X131286047Y-104601571D02*
X131190809Y-104649190D01*
X131190809Y-104649190D02*
X130809857Y-104649190D01*
X132333666Y-105125380D02*
X131762238Y-105125380D01*
X132047952Y-105125380D02*
X132047952Y-104125380D01*
X132047952Y-104125380D02*
X131952714Y-104268238D01*
X131952714Y-104268238D02*
X131857476Y-104363476D01*
X131857476Y-104363476D02*
X131762238Y-104411095D01*
X128385714Y-106767380D02*
X127814286Y-106767380D01*
X128100000Y-106767380D02*
X128100000Y-105767380D01*
X128100000Y-105767380D02*
X128004762Y-105910238D01*
X128004762Y-105910238D02*
X127909524Y-106005476D01*
X127909524Y-106005476D02*
X127814286Y-106053095D01*
X132966667Y-105767380D02*
X133585714Y-105767380D01*
X133585714Y-105767380D02*
X133252381Y-106148333D01*
X133252381Y-106148333D02*
X133395238Y-106148333D01*
X133395238Y-106148333D02*
X133490476Y-106195952D01*
X133490476Y-106195952D02*
X133538095Y-106243571D01*
X133538095Y-106243571D02*
X133585714Y-106338809D01*
X133585714Y-106338809D02*
X133585714Y-106576904D01*
X133585714Y-106576904D02*
X133538095Y-106672142D01*
X133538095Y-106672142D02*
X133490476Y-106719761D01*
X133490476Y-106719761D02*
X133395238Y-106767380D01*
X133395238Y-106767380D02*
X133109524Y-106767380D01*
X133109524Y-106767380D02*
X133014286Y-106719761D01*
X133014286Y-106719761D02*
X132966667Y-106672142D01*
%TO.C,JPC9*%
X173666666Y-122567380D02*
X173666666Y-123281666D01*
X173666666Y-123281666D02*
X173619047Y-123424523D01*
X173619047Y-123424523D02*
X173523809Y-123519761D01*
X173523809Y-123519761D02*
X173380952Y-123567380D01*
X173380952Y-123567380D02*
X173285714Y-123567380D01*
X174142857Y-123567380D02*
X174142857Y-122567380D01*
X174142857Y-122567380D02*
X174523809Y-122567380D01*
X174523809Y-122567380D02*
X174619047Y-122615000D01*
X174619047Y-122615000D02*
X174666666Y-122662619D01*
X174666666Y-122662619D02*
X174714285Y-122757857D01*
X174714285Y-122757857D02*
X174714285Y-122900714D01*
X174714285Y-122900714D02*
X174666666Y-122995952D01*
X174666666Y-122995952D02*
X174619047Y-123043571D01*
X174619047Y-123043571D02*
X174523809Y-123091190D01*
X174523809Y-123091190D02*
X174142857Y-123091190D01*
X175714285Y-123472142D02*
X175666666Y-123519761D01*
X175666666Y-123519761D02*
X175523809Y-123567380D01*
X175523809Y-123567380D02*
X175428571Y-123567380D01*
X175428571Y-123567380D02*
X175285714Y-123519761D01*
X175285714Y-123519761D02*
X175190476Y-123424523D01*
X175190476Y-123424523D02*
X175142857Y-123329285D01*
X175142857Y-123329285D02*
X175095238Y-123138809D01*
X175095238Y-123138809D02*
X175095238Y-122995952D01*
X175095238Y-122995952D02*
X175142857Y-122805476D01*
X175142857Y-122805476D02*
X175190476Y-122710238D01*
X175190476Y-122710238D02*
X175285714Y-122615000D01*
X175285714Y-122615000D02*
X175428571Y-122567380D01*
X175428571Y-122567380D02*
X175523809Y-122567380D01*
X175523809Y-122567380D02*
X175666666Y-122615000D01*
X175666666Y-122615000D02*
X175714285Y-122662619D01*
X176190476Y-123567380D02*
X176380952Y-123567380D01*
X176380952Y-123567380D02*
X176476190Y-123519761D01*
X176476190Y-123519761D02*
X176523809Y-123472142D01*
X176523809Y-123472142D02*
X176619047Y-123329285D01*
X176619047Y-123329285D02*
X176666666Y-123138809D01*
X176666666Y-123138809D02*
X176666666Y-122757857D01*
X176666666Y-122757857D02*
X176619047Y-122662619D01*
X176619047Y-122662619D02*
X176571428Y-122615000D01*
X176571428Y-122615000D02*
X176476190Y-122567380D01*
X176476190Y-122567380D02*
X176285714Y-122567380D01*
X176285714Y-122567380D02*
X176190476Y-122615000D01*
X176190476Y-122615000D02*
X176142857Y-122662619D01*
X176142857Y-122662619D02*
X176095238Y-122757857D01*
X176095238Y-122757857D02*
X176095238Y-122995952D01*
X176095238Y-122995952D02*
X176142857Y-123091190D01*
X176142857Y-123091190D02*
X176190476Y-123138809D01*
X176190476Y-123138809D02*
X176285714Y-123186428D01*
X176285714Y-123186428D02*
X176476190Y-123186428D01*
X176476190Y-123186428D02*
X176571428Y-123138809D01*
X176571428Y-123138809D02*
X176619047Y-123091190D01*
X176619047Y-123091190D02*
X176666666Y-122995952D01*
%TO.C,JPC8*%
X168816666Y-122567380D02*
X168816666Y-123281666D01*
X168816666Y-123281666D02*
X168769047Y-123424523D01*
X168769047Y-123424523D02*
X168673809Y-123519761D01*
X168673809Y-123519761D02*
X168530952Y-123567380D01*
X168530952Y-123567380D02*
X168435714Y-123567380D01*
X169292857Y-123567380D02*
X169292857Y-122567380D01*
X169292857Y-122567380D02*
X169673809Y-122567380D01*
X169673809Y-122567380D02*
X169769047Y-122615000D01*
X169769047Y-122615000D02*
X169816666Y-122662619D01*
X169816666Y-122662619D02*
X169864285Y-122757857D01*
X169864285Y-122757857D02*
X169864285Y-122900714D01*
X169864285Y-122900714D02*
X169816666Y-122995952D01*
X169816666Y-122995952D02*
X169769047Y-123043571D01*
X169769047Y-123043571D02*
X169673809Y-123091190D01*
X169673809Y-123091190D02*
X169292857Y-123091190D01*
X170864285Y-123472142D02*
X170816666Y-123519761D01*
X170816666Y-123519761D02*
X170673809Y-123567380D01*
X170673809Y-123567380D02*
X170578571Y-123567380D01*
X170578571Y-123567380D02*
X170435714Y-123519761D01*
X170435714Y-123519761D02*
X170340476Y-123424523D01*
X170340476Y-123424523D02*
X170292857Y-123329285D01*
X170292857Y-123329285D02*
X170245238Y-123138809D01*
X170245238Y-123138809D02*
X170245238Y-122995952D01*
X170245238Y-122995952D02*
X170292857Y-122805476D01*
X170292857Y-122805476D02*
X170340476Y-122710238D01*
X170340476Y-122710238D02*
X170435714Y-122615000D01*
X170435714Y-122615000D02*
X170578571Y-122567380D01*
X170578571Y-122567380D02*
X170673809Y-122567380D01*
X170673809Y-122567380D02*
X170816666Y-122615000D01*
X170816666Y-122615000D02*
X170864285Y-122662619D01*
X171435714Y-122995952D02*
X171340476Y-122948333D01*
X171340476Y-122948333D02*
X171292857Y-122900714D01*
X171292857Y-122900714D02*
X171245238Y-122805476D01*
X171245238Y-122805476D02*
X171245238Y-122757857D01*
X171245238Y-122757857D02*
X171292857Y-122662619D01*
X171292857Y-122662619D02*
X171340476Y-122615000D01*
X171340476Y-122615000D02*
X171435714Y-122567380D01*
X171435714Y-122567380D02*
X171626190Y-122567380D01*
X171626190Y-122567380D02*
X171721428Y-122615000D01*
X171721428Y-122615000D02*
X171769047Y-122662619D01*
X171769047Y-122662619D02*
X171816666Y-122757857D01*
X171816666Y-122757857D02*
X171816666Y-122805476D01*
X171816666Y-122805476D02*
X171769047Y-122900714D01*
X171769047Y-122900714D02*
X171721428Y-122948333D01*
X171721428Y-122948333D02*
X171626190Y-122995952D01*
X171626190Y-122995952D02*
X171435714Y-122995952D01*
X171435714Y-122995952D02*
X171340476Y-123043571D01*
X171340476Y-123043571D02*
X171292857Y-123091190D01*
X171292857Y-123091190D02*
X171245238Y-123186428D01*
X171245238Y-123186428D02*
X171245238Y-123376904D01*
X171245238Y-123376904D02*
X171292857Y-123472142D01*
X171292857Y-123472142D02*
X171340476Y-123519761D01*
X171340476Y-123519761D02*
X171435714Y-123567380D01*
X171435714Y-123567380D02*
X171626190Y-123567380D01*
X171626190Y-123567380D02*
X171721428Y-123519761D01*
X171721428Y-123519761D02*
X171769047Y-123472142D01*
X171769047Y-123472142D02*
X171816666Y-123376904D01*
X171816666Y-123376904D02*
X171816666Y-123186428D01*
X171816666Y-123186428D02*
X171769047Y-123091190D01*
X171769047Y-123091190D02*
X171721428Y-123043571D01*
X171721428Y-123043571D02*
X171626190Y-122995952D01*
%TO.C,JPC7*%
X173666666Y-127167380D02*
X173666666Y-127881666D01*
X173666666Y-127881666D02*
X173619047Y-128024523D01*
X173619047Y-128024523D02*
X173523809Y-128119761D01*
X173523809Y-128119761D02*
X173380952Y-128167380D01*
X173380952Y-128167380D02*
X173285714Y-128167380D01*
X174142857Y-128167380D02*
X174142857Y-127167380D01*
X174142857Y-127167380D02*
X174523809Y-127167380D01*
X174523809Y-127167380D02*
X174619047Y-127215000D01*
X174619047Y-127215000D02*
X174666666Y-127262619D01*
X174666666Y-127262619D02*
X174714285Y-127357857D01*
X174714285Y-127357857D02*
X174714285Y-127500714D01*
X174714285Y-127500714D02*
X174666666Y-127595952D01*
X174666666Y-127595952D02*
X174619047Y-127643571D01*
X174619047Y-127643571D02*
X174523809Y-127691190D01*
X174523809Y-127691190D02*
X174142857Y-127691190D01*
X175714285Y-128072142D02*
X175666666Y-128119761D01*
X175666666Y-128119761D02*
X175523809Y-128167380D01*
X175523809Y-128167380D02*
X175428571Y-128167380D01*
X175428571Y-128167380D02*
X175285714Y-128119761D01*
X175285714Y-128119761D02*
X175190476Y-128024523D01*
X175190476Y-128024523D02*
X175142857Y-127929285D01*
X175142857Y-127929285D02*
X175095238Y-127738809D01*
X175095238Y-127738809D02*
X175095238Y-127595952D01*
X175095238Y-127595952D02*
X175142857Y-127405476D01*
X175142857Y-127405476D02*
X175190476Y-127310238D01*
X175190476Y-127310238D02*
X175285714Y-127215000D01*
X175285714Y-127215000D02*
X175428571Y-127167380D01*
X175428571Y-127167380D02*
X175523809Y-127167380D01*
X175523809Y-127167380D02*
X175666666Y-127215000D01*
X175666666Y-127215000D02*
X175714285Y-127262619D01*
X176047619Y-127167380D02*
X176714285Y-127167380D01*
X176714285Y-127167380D02*
X176285714Y-128167380D01*
%TO.C,JPC6*%
X142916666Y-122467380D02*
X142916666Y-123181666D01*
X142916666Y-123181666D02*
X142869047Y-123324523D01*
X142869047Y-123324523D02*
X142773809Y-123419761D01*
X142773809Y-123419761D02*
X142630952Y-123467380D01*
X142630952Y-123467380D02*
X142535714Y-123467380D01*
X143392857Y-123467380D02*
X143392857Y-122467380D01*
X143392857Y-122467380D02*
X143773809Y-122467380D01*
X143773809Y-122467380D02*
X143869047Y-122515000D01*
X143869047Y-122515000D02*
X143916666Y-122562619D01*
X143916666Y-122562619D02*
X143964285Y-122657857D01*
X143964285Y-122657857D02*
X143964285Y-122800714D01*
X143964285Y-122800714D02*
X143916666Y-122895952D01*
X143916666Y-122895952D02*
X143869047Y-122943571D01*
X143869047Y-122943571D02*
X143773809Y-122991190D01*
X143773809Y-122991190D02*
X143392857Y-122991190D01*
X144964285Y-123372142D02*
X144916666Y-123419761D01*
X144916666Y-123419761D02*
X144773809Y-123467380D01*
X144773809Y-123467380D02*
X144678571Y-123467380D01*
X144678571Y-123467380D02*
X144535714Y-123419761D01*
X144535714Y-123419761D02*
X144440476Y-123324523D01*
X144440476Y-123324523D02*
X144392857Y-123229285D01*
X144392857Y-123229285D02*
X144345238Y-123038809D01*
X144345238Y-123038809D02*
X144345238Y-122895952D01*
X144345238Y-122895952D02*
X144392857Y-122705476D01*
X144392857Y-122705476D02*
X144440476Y-122610238D01*
X144440476Y-122610238D02*
X144535714Y-122515000D01*
X144535714Y-122515000D02*
X144678571Y-122467380D01*
X144678571Y-122467380D02*
X144773809Y-122467380D01*
X144773809Y-122467380D02*
X144916666Y-122515000D01*
X144916666Y-122515000D02*
X144964285Y-122562619D01*
X145821428Y-122467380D02*
X145630952Y-122467380D01*
X145630952Y-122467380D02*
X145535714Y-122515000D01*
X145535714Y-122515000D02*
X145488095Y-122562619D01*
X145488095Y-122562619D02*
X145392857Y-122705476D01*
X145392857Y-122705476D02*
X145345238Y-122895952D01*
X145345238Y-122895952D02*
X145345238Y-123276904D01*
X145345238Y-123276904D02*
X145392857Y-123372142D01*
X145392857Y-123372142D02*
X145440476Y-123419761D01*
X145440476Y-123419761D02*
X145535714Y-123467380D01*
X145535714Y-123467380D02*
X145726190Y-123467380D01*
X145726190Y-123467380D02*
X145821428Y-123419761D01*
X145821428Y-123419761D02*
X145869047Y-123372142D01*
X145869047Y-123372142D02*
X145916666Y-123276904D01*
X145916666Y-123276904D02*
X145916666Y-123038809D01*
X145916666Y-123038809D02*
X145869047Y-122943571D01*
X145869047Y-122943571D02*
X145821428Y-122895952D01*
X145821428Y-122895952D02*
X145726190Y-122848333D01*
X145726190Y-122848333D02*
X145535714Y-122848333D01*
X145535714Y-122848333D02*
X145440476Y-122895952D01*
X145440476Y-122895952D02*
X145392857Y-122943571D01*
X145392857Y-122943571D02*
X145345238Y-123038809D01*
%TO.C,JPC5*%
X138216666Y-122467380D02*
X138216666Y-123181666D01*
X138216666Y-123181666D02*
X138169047Y-123324523D01*
X138169047Y-123324523D02*
X138073809Y-123419761D01*
X138073809Y-123419761D02*
X137930952Y-123467380D01*
X137930952Y-123467380D02*
X137835714Y-123467380D01*
X138692857Y-123467380D02*
X138692857Y-122467380D01*
X138692857Y-122467380D02*
X139073809Y-122467380D01*
X139073809Y-122467380D02*
X139169047Y-122515000D01*
X139169047Y-122515000D02*
X139216666Y-122562619D01*
X139216666Y-122562619D02*
X139264285Y-122657857D01*
X139264285Y-122657857D02*
X139264285Y-122800714D01*
X139264285Y-122800714D02*
X139216666Y-122895952D01*
X139216666Y-122895952D02*
X139169047Y-122943571D01*
X139169047Y-122943571D02*
X139073809Y-122991190D01*
X139073809Y-122991190D02*
X138692857Y-122991190D01*
X140264285Y-123372142D02*
X140216666Y-123419761D01*
X140216666Y-123419761D02*
X140073809Y-123467380D01*
X140073809Y-123467380D02*
X139978571Y-123467380D01*
X139978571Y-123467380D02*
X139835714Y-123419761D01*
X139835714Y-123419761D02*
X139740476Y-123324523D01*
X139740476Y-123324523D02*
X139692857Y-123229285D01*
X139692857Y-123229285D02*
X139645238Y-123038809D01*
X139645238Y-123038809D02*
X139645238Y-122895952D01*
X139645238Y-122895952D02*
X139692857Y-122705476D01*
X139692857Y-122705476D02*
X139740476Y-122610238D01*
X139740476Y-122610238D02*
X139835714Y-122515000D01*
X139835714Y-122515000D02*
X139978571Y-122467380D01*
X139978571Y-122467380D02*
X140073809Y-122467380D01*
X140073809Y-122467380D02*
X140216666Y-122515000D01*
X140216666Y-122515000D02*
X140264285Y-122562619D01*
X141169047Y-122467380D02*
X140692857Y-122467380D01*
X140692857Y-122467380D02*
X140645238Y-122943571D01*
X140645238Y-122943571D02*
X140692857Y-122895952D01*
X140692857Y-122895952D02*
X140788095Y-122848333D01*
X140788095Y-122848333D02*
X141026190Y-122848333D01*
X141026190Y-122848333D02*
X141121428Y-122895952D01*
X141121428Y-122895952D02*
X141169047Y-122943571D01*
X141169047Y-122943571D02*
X141216666Y-123038809D01*
X141216666Y-123038809D02*
X141216666Y-123276904D01*
X141216666Y-123276904D02*
X141169047Y-123372142D01*
X141169047Y-123372142D02*
X141121428Y-123419761D01*
X141121428Y-123419761D02*
X141026190Y-123467380D01*
X141026190Y-123467380D02*
X140788095Y-123467380D01*
X140788095Y-123467380D02*
X140692857Y-123419761D01*
X140692857Y-123419761D02*
X140645238Y-123372142D01*
%TO.C,JPC4*%
X138216666Y-127067380D02*
X138216666Y-127781666D01*
X138216666Y-127781666D02*
X138169047Y-127924523D01*
X138169047Y-127924523D02*
X138073809Y-128019761D01*
X138073809Y-128019761D02*
X137930952Y-128067380D01*
X137930952Y-128067380D02*
X137835714Y-128067380D01*
X138692857Y-128067380D02*
X138692857Y-127067380D01*
X138692857Y-127067380D02*
X139073809Y-127067380D01*
X139073809Y-127067380D02*
X139169047Y-127115000D01*
X139169047Y-127115000D02*
X139216666Y-127162619D01*
X139216666Y-127162619D02*
X139264285Y-127257857D01*
X139264285Y-127257857D02*
X139264285Y-127400714D01*
X139264285Y-127400714D02*
X139216666Y-127495952D01*
X139216666Y-127495952D02*
X139169047Y-127543571D01*
X139169047Y-127543571D02*
X139073809Y-127591190D01*
X139073809Y-127591190D02*
X138692857Y-127591190D01*
X140264285Y-127972142D02*
X140216666Y-128019761D01*
X140216666Y-128019761D02*
X140073809Y-128067380D01*
X140073809Y-128067380D02*
X139978571Y-128067380D01*
X139978571Y-128067380D02*
X139835714Y-128019761D01*
X139835714Y-128019761D02*
X139740476Y-127924523D01*
X139740476Y-127924523D02*
X139692857Y-127829285D01*
X139692857Y-127829285D02*
X139645238Y-127638809D01*
X139645238Y-127638809D02*
X139645238Y-127495952D01*
X139645238Y-127495952D02*
X139692857Y-127305476D01*
X139692857Y-127305476D02*
X139740476Y-127210238D01*
X139740476Y-127210238D02*
X139835714Y-127115000D01*
X139835714Y-127115000D02*
X139978571Y-127067380D01*
X139978571Y-127067380D02*
X140073809Y-127067380D01*
X140073809Y-127067380D02*
X140216666Y-127115000D01*
X140216666Y-127115000D02*
X140264285Y-127162619D01*
X141121428Y-127400714D02*
X141121428Y-128067380D01*
X140883333Y-127019761D02*
X140645238Y-127734047D01*
X140645238Y-127734047D02*
X141264285Y-127734047D01*
%TO.C,JPC3*%
X118716666Y-122567380D02*
X118716666Y-123281666D01*
X118716666Y-123281666D02*
X118669047Y-123424523D01*
X118669047Y-123424523D02*
X118573809Y-123519761D01*
X118573809Y-123519761D02*
X118430952Y-123567380D01*
X118430952Y-123567380D02*
X118335714Y-123567380D01*
X119192857Y-123567380D02*
X119192857Y-122567380D01*
X119192857Y-122567380D02*
X119573809Y-122567380D01*
X119573809Y-122567380D02*
X119669047Y-122615000D01*
X119669047Y-122615000D02*
X119716666Y-122662619D01*
X119716666Y-122662619D02*
X119764285Y-122757857D01*
X119764285Y-122757857D02*
X119764285Y-122900714D01*
X119764285Y-122900714D02*
X119716666Y-122995952D01*
X119716666Y-122995952D02*
X119669047Y-123043571D01*
X119669047Y-123043571D02*
X119573809Y-123091190D01*
X119573809Y-123091190D02*
X119192857Y-123091190D01*
X120764285Y-123472142D02*
X120716666Y-123519761D01*
X120716666Y-123519761D02*
X120573809Y-123567380D01*
X120573809Y-123567380D02*
X120478571Y-123567380D01*
X120478571Y-123567380D02*
X120335714Y-123519761D01*
X120335714Y-123519761D02*
X120240476Y-123424523D01*
X120240476Y-123424523D02*
X120192857Y-123329285D01*
X120192857Y-123329285D02*
X120145238Y-123138809D01*
X120145238Y-123138809D02*
X120145238Y-122995952D01*
X120145238Y-122995952D02*
X120192857Y-122805476D01*
X120192857Y-122805476D02*
X120240476Y-122710238D01*
X120240476Y-122710238D02*
X120335714Y-122615000D01*
X120335714Y-122615000D02*
X120478571Y-122567380D01*
X120478571Y-122567380D02*
X120573809Y-122567380D01*
X120573809Y-122567380D02*
X120716666Y-122615000D01*
X120716666Y-122615000D02*
X120764285Y-122662619D01*
X121097619Y-122567380D02*
X121716666Y-122567380D01*
X121716666Y-122567380D02*
X121383333Y-122948333D01*
X121383333Y-122948333D02*
X121526190Y-122948333D01*
X121526190Y-122948333D02*
X121621428Y-122995952D01*
X121621428Y-122995952D02*
X121669047Y-123043571D01*
X121669047Y-123043571D02*
X121716666Y-123138809D01*
X121716666Y-123138809D02*
X121716666Y-123376904D01*
X121716666Y-123376904D02*
X121669047Y-123472142D01*
X121669047Y-123472142D02*
X121621428Y-123519761D01*
X121621428Y-123519761D02*
X121526190Y-123567380D01*
X121526190Y-123567380D02*
X121240476Y-123567380D01*
X121240476Y-123567380D02*
X121145238Y-123519761D01*
X121145238Y-123519761D02*
X121097619Y-123472142D01*
%TO.C,JPC2*%
X113716666Y-122467380D02*
X113716666Y-123181666D01*
X113716666Y-123181666D02*
X113669047Y-123324523D01*
X113669047Y-123324523D02*
X113573809Y-123419761D01*
X113573809Y-123419761D02*
X113430952Y-123467380D01*
X113430952Y-123467380D02*
X113335714Y-123467380D01*
X114192857Y-123467380D02*
X114192857Y-122467380D01*
X114192857Y-122467380D02*
X114573809Y-122467380D01*
X114573809Y-122467380D02*
X114669047Y-122515000D01*
X114669047Y-122515000D02*
X114716666Y-122562619D01*
X114716666Y-122562619D02*
X114764285Y-122657857D01*
X114764285Y-122657857D02*
X114764285Y-122800714D01*
X114764285Y-122800714D02*
X114716666Y-122895952D01*
X114716666Y-122895952D02*
X114669047Y-122943571D01*
X114669047Y-122943571D02*
X114573809Y-122991190D01*
X114573809Y-122991190D02*
X114192857Y-122991190D01*
X115764285Y-123372142D02*
X115716666Y-123419761D01*
X115716666Y-123419761D02*
X115573809Y-123467380D01*
X115573809Y-123467380D02*
X115478571Y-123467380D01*
X115478571Y-123467380D02*
X115335714Y-123419761D01*
X115335714Y-123419761D02*
X115240476Y-123324523D01*
X115240476Y-123324523D02*
X115192857Y-123229285D01*
X115192857Y-123229285D02*
X115145238Y-123038809D01*
X115145238Y-123038809D02*
X115145238Y-122895952D01*
X115145238Y-122895952D02*
X115192857Y-122705476D01*
X115192857Y-122705476D02*
X115240476Y-122610238D01*
X115240476Y-122610238D02*
X115335714Y-122515000D01*
X115335714Y-122515000D02*
X115478571Y-122467380D01*
X115478571Y-122467380D02*
X115573809Y-122467380D01*
X115573809Y-122467380D02*
X115716666Y-122515000D01*
X115716666Y-122515000D02*
X115764285Y-122562619D01*
X116145238Y-122562619D02*
X116192857Y-122515000D01*
X116192857Y-122515000D02*
X116288095Y-122467380D01*
X116288095Y-122467380D02*
X116526190Y-122467380D01*
X116526190Y-122467380D02*
X116621428Y-122515000D01*
X116621428Y-122515000D02*
X116669047Y-122562619D01*
X116669047Y-122562619D02*
X116716666Y-122657857D01*
X116716666Y-122657857D02*
X116716666Y-122753095D01*
X116716666Y-122753095D02*
X116669047Y-122895952D01*
X116669047Y-122895952D02*
X116097619Y-123467380D01*
X116097619Y-123467380D02*
X116716666Y-123467380D01*
%TO.C,JPC1*%
X113666666Y-127167380D02*
X113666666Y-127881666D01*
X113666666Y-127881666D02*
X113619047Y-128024523D01*
X113619047Y-128024523D02*
X113523809Y-128119761D01*
X113523809Y-128119761D02*
X113380952Y-128167380D01*
X113380952Y-128167380D02*
X113285714Y-128167380D01*
X114142857Y-128167380D02*
X114142857Y-127167380D01*
X114142857Y-127167380D02*
X114523809Y-127167380D01*
X114523809Y-127167380D02*
X114619047Y-127215000D01*
X114619047Y-127215000D02*
X114666666Y-127262619D01*
X114666666Y-127262619D02*
X114714285Y-127357857D01*
X114714285Y-127357857D02*
X114714285Y-127500714D01*
X114714285Y-127500714D02*
X114666666Y-127595952D01*
X114666666Y-127595952D02*
X114619047Y-127643571D01*
X114619047Y-127643571D02*
X114523809Y-127691190D01*
X114523809Y-127691190D02*
X114142857Y-127691190D01*
X115714285Y-128072142D02*
X115666666Y-128119761D01*
X115666666Y-128119761D02*
X115523809Y-128167380D01*
X115523809Y-128167380D02*
X115428571Y-128167380D01*
X115428571Y-128167380D02*
X115285714Y-128119761D01*
X115285714Y-128119761D02*
X115190476Y-128024523D01*
X115190476Y-128024523D02*
X115142857Y-127929285D01*
X115142857Y-127929285D02*
X115095238Y-127738809D01*
X115095238Y-127738809D02*
X115095238Y-127595952D01*
X115095238Y-127595952D02*
X115142857Y-127405476D01*
X115142857Y-127405476D02*
X115190476Y-127310238D01*
X115190476Y-127310238D02*
X115285714Y-127215000D01*
X115285714Y-127215000D02*
X115428571Y-127167380D01*
X115428571Y-127167380D02*
X115523809Y-127167380D01*
X115523809Y-127167380D02*
X115666666Y-127215000D01*
X115666666Y-127215000D02*
X115714285Y-127262619D01*
X116666666Y-128167380D02*
X116095238Y-128167380D01*
X116380952Y-128167380D02*
X116380952Y-127167380D01*
X116380952Y-127167380D02*
X116285714Y-127310238D01*
X116285714Y-127310238D02*
X116190476Y-127405476D01*
X116190476Y-127405476D02*
X116095238Y-127453095D01*
%TO.C,D6*%
X164932380Y-114743094D02*
X163932380Y-114743094D01*
X163932380Y-114743094D02*
X163932380Y-114504999D01*
X163932380Y-114504999D02*
X163980000Y-114362142D01*
X163980000Y-114362142D02*
X164075238Y-114266904D01*
X164075238Y-114266904D02*
X164170476Y-114219285D01*
X164170476Y-114219285D02*
X164360952Y-114171666D01*
X164360952Y-114171666D02*
X164503809Y-114171666D01*
X164503809Y-114171666D02*
X164694285Y-114219285D01*
X164694285Y-114219285D02*
X164789523Y-114266904D01*
X164789523Y-114266904D02*
X164884761Y-114362142D01*
X164884761Y-114362142D02*
X164932380Y-114504999D01*
X164932380Y-114504999D02*
X164932380Y-114743094D01*
X163932380Y-113314523D02*
X163932380Y-113504999D01*
X163932380Y-113504999D02*
X163980000Y-113600237D01*
X163980000Y-113600237D02*
X164027619Y-113647856D01*
X164027619Y-113647856D02*
X164170476Y-113743094D01*
X164170476Y-113743094D02*
X164360952Y-113790713D01*
X164360952Y-113790713D02*
X164741904Y-113790713D01*
X164741904Y-113790713D02*
X164837142Y-113743094D01*
X164837142Y-113743094D02*
X164884761Y-113695475D01*
X164884761Y-113695475D02*
X164932380Y-113600237D01*
X164932380Y-113600237D02*
X164932380Y-113409761D01*
X164932380Y-113409761D02*
X164884761Y-113314523D01*
X164884761Y-113314523D02*
X164837142Y-113266904D01*
X164837142Y-113266904D02*
X164741904Y-113219285D01*
X164741904Y-113219285D02*
X164503809Y-113219285D01*
X164503809Y-113219285D02*
X164408571Y-113266904D01*
X164408571Y-113266904D02*
X164360952Y-113314523D01*
X164360952Y-113314523D02*
X164313333Y-113409761D01*
X164313333Y-113409761D02*
X164313333Y-113600237D01*
X164313333Y-113600237D02*
X164360952Y-113695475D01*
X164360952Y-113695475D02*
X164408571Y-113743094D01*
X164408571Y-113743094D02*
X164503809Y-113790713D01*
%TO.C,D5*%
X164732380Y-101743094D02*
X163732380Y-101743094D01*
X163732380Y-101743094D02*
X163732380Y-101504999D01*
X163732380Y-101504999D02*
X163780000Y-101362142D01*
X163780000Y-101362142D02*
X163875238Y-101266904D01*
X163875238Y-101266904D02*
X163970476Y-101219285D01*
X163970476Y-101219285D02*
X164160952Y-101171666D01*
X164160952Y-101171666D02*
X164303809Y-101171666D01*
X164303809Y-101171666D02*
X164494285Y-101219285D01*
X164494285Y-101219285D02*
X164589523Y-101266904D01*
X164589523Y-101266904D02*
X164684761Y-101362142D01*
X164684761Y-101362142D02*
X164732380Y-101504999D01*
X164732380Y-101504999D02*
X164732380Y-101743094D01*
X163732380Y-100266904D02*
X163732380Y-100743094D01*
X163732380Y-100743094D02*
X164208571Y-100790713D01*
X164208571Y-100790713D02*
X164160952Y-100743094D01*
X164160952Y-100743094D02*
X164113333Y-100647856D01*
X164113333Y-100647856D02*
X164113333Y-100409761D01*
X164113333Y-100409761D02*
X164160952Y-100314523D01*
X164160952Y-100314523D02*
X164208571Y-100266904D01*
X164208571Y-100266904D02*
X164303809Y-100219285D01*
X164303809Y-100219285D02*
X164541904Y-100219285D01*
X164541904Y-100219285D02*
X164637142Y-100266904D01*
X164637142Y-100266904D02*
X164684761Y-100314523D01*
X164684761Y-100314523D02*
X164732380Y-100409761D01*
X164732380Y-100409761D02*
X164732380Y-100647856D01*
X164732380Y-100647856D02*
X164684761Y-100743094D01*
X164684761Y-100743094D02*
X164637142Y-100790713D01*
%TO.C,D4*%
X149866905Y-109602380D02*
X149866905Y-108602380D01*
X149866905Y-108602380D02*
X150105000Y-108602380D01*
X150105000Y-108602380D02*
X150247857Y-108650000D01*
X150247857Y-108650000D02*
X150343095Y-108745238D01*
X150343095Y-108745238D02*
X150390714Y-108840476D01*
X150390714Y-108840476D02*
X150438333Y-109030952D01*
X150438333Y-109030952D02*
X150438333Y-109173809D01*
X150438333Y-109173809D02*
X150390714Y-109364285D01*
X150390714Y-109364285D02*
X150343095Y-109459523D01*
X150343095Y-109459523D02*
X150247857Y-109554761D01*
X150247857Y-109554761D02*
X150105000Y-109602380D01*
X150105000Y-109602380D02*
X149866905Y-109602380D01*
X151295476Y-108935714D02*
X151295476Y-109602380D01*
X151057381Y-108554761D02*
X150819286Y-109269047D01*
X150819286Y-109269047D02*
X151438333Y-109269047D01*
%TO.C,D3*%
X136966905Y-109502380D02*
X136966905Y-108502380D01*
X136966905Y-108502380D02*
X137205000Y-108502380D01*
X137205000Y-108502380D02*
X137347857Y-108550000D01*
X137347857Y-108550000D02*
X137443095Y-108645238D01*
X137443095Y-108645238D02*
X137490714Y-108740476D01*
X137490714Y-108740476D02*
X137538333Y-108930952D01*
X137538333Y-108930952D02*
X137538333Y-109073809D01*
X137538333Y-109073809D02*
X137490714Y-109264285D01*
X137490714Y-109264285D02*
X137443095Y-109359523D01*
X137443095Y-109359523D02*
X137347857Y-109454761D01*
X137347857Y-109454761D02*
X137205000Y-109502380D01*
X137205000Y-109502380D02*
X136966905Y-109502380D01*
X137871667Y-108502380D02*
X138490714Y-108502380D01*
X138490714Y-108502380D02*
X138157381Y-108883333D01*
X138157381Y-108883333D02*
X138300238Y-108883333D01*
X138300238Y-108883333D02*
X138395476Y-108930952D01*
X138395476Y-108930952D02*
X138443095Y-108978571D01*
X138443095Y-108978571D02*
X138490714Y-109073809D01*
X138490714Y-109073809D02*
X138490714Y-109311904D01*
X138490714Y-109311904D02*
X138443095Y-109407142D01*
X138443095Y-109407142D02*
X138395476Y-109454761D01*
X138395476Y-109454761D02*
X138300238Y-109502380D01*
X138300238Y-109502380D02*
X138014524Y-109502380D01*
X138014524Y-109502380D02*
X137919286Y-109454761D01*
X137919286Y-109454761D02*
X137871667Y-109407142D01*
%TO.C,D2*%
X126002380Y-101633094D02*
X125002380Y-101633094D01*
X125002380Y-101633094D02*
X125002380Y-101394999D01*
X125002380Y-101394999D02*
X125050000Y-101252142D01*
X125050000Y-101252142D02*
X125145238Y-101156904D01*
X125145238Y-101156904D02*
X125240476Y-101109285D01*
X125240476Y-101109285D02*
X125430952Y-101061666D01*
X125430952Y-101061666D02*
X125573809Y-101061666D01*
X125573809Y-101061666D02*
X125764285Y-101109285D01*
X125764285Y-101109285D02*
X125859523Y-101156904D01*
X125859523Y-101156904D02*
X125954761Y-101252142D01*
X125954761Y-101252142D02*
X126002380Y-101394999D01*
X126002380Y-101394999D02*
X126002380Y-101633094D01*
X125097619Y-100680713D02*
X125050000Y-100633094D01*
X125050000Y-100633094D02*
X125002380Y-100537856D01*
X125002380Y-100537856D02*
X125002380Y-100299761D01*
X125002380Y-100299761D02*
X125050000Y-100204523D01*
X125050000Y-100204523D02*
X125097619Y-100156904D01*
X125097619Y-100156904D02*
X125192857Y-100109285D01*
X125192857Y-100109285D02*
X125288095Y-100109285D01*
X125288095Y-100109285D02*
X125430952Y-100156904D01*
X125430952Y-100156904D02*
X126002380Y-100728332D01*
X126002380Y-100728332D02*
X126002380Y-100109285D01*
%TO.C,D1*%
X126202380Y-114833094D02*
X125202380Y-114833094D01*
X125202380Y-114833094D02*
X125202380Y-114594999D01*
X125202380Y-114594999D02*
X125250000Y-114452142D01*
X125250000Y-114452142D02*
X125345238Y-114356904D01*
X125345238Y-114356904D02*
X125440476Y-114309285D01*
X125440476Y-114309285D02*
X125630952Y-114261666D01*
X125630952Y-114261666D02*
X125773809Y-114261666D01*
X125773809Y-114261666D02*
X125964285Y-114309285D01*
X125964285Y-114309285D02*
X126059523Y-114356904D01*
X126059523Y-114356904D02*
X126154761Y-114452142D01*
X126154761Y-114452142D02*
X126202380Y-114594999D01*
X126202380Y-114594999D02*
X126202380Y-114833094D01*
X126202380Y-113309285D02*
X126202380Y-113880713D01*
X126202380Y-113594999D02*
X125202380Y-113594999D01*
X125202380Y-113594999D02*
X125345238Y-113690237D01*
X125345238Y-113690237D02*
X125440476Y-113785475D01*
X125440476Y-113785475D02*
X125488095Y-113880713D01*
%TO.C,C9*%
X174858333Y-119042142D02*
X174810714Y-119089761D01*
X174810714Y-119089761D02*
X174667857Y-119137380D01*
X174667857Y-119137380D02*
X174572619Y-119137380D01*
X174572619Y-119137380D02*
X174429762Y-119089761D01*
X174429762Y-119089761D02*
X174334524Y-118994523D01*
X174334524Y-118994523D02*
X174286905Y-118899285D01*
X174286905Y-118899285D02*
X174239286Y-118708809D01*
X174239286Y-118708809D02*
X174239286Y-118565952D01*
X174239286Y-118565952D02*
X174286905Y-118375476D01*
X174286905Y-118375476D02*
X174334524Y-118280238D01*
X174334524Y-118280238D02*
X174429762Y-118185000D01*
X174429762Y-118185000D02*
X174572619Y-118137380D01*
X174572619Y-118137380D02*
X174667857Y-118137380D01*
X174667857Y-118137380D02*
X174810714Y-118185000D01*
X174810714Y-118185000D02*
X174858333Y-118232619D01*
X175334524Y-119137380D02*
X175525000Y-119137380D01*
X175525000Y-119137380D02*
X175620238Y-119089761D01*
X175620238Y-119089761D02*
X175667857Y-119042142D01*
X175667857Y-119042142D02*
X175763095Y-118899285D01*
X175763095Y-118899285D02*
X175810714Y-118708809D01*
X175810714Y-118708809D02*
X175810714Y-118327857D01*
X175810714Y-118327857D02*
X175763095Y-118232619D01*
X175763095Y-118232619D02*
X175715476Y-118185000D01*
X175715476Y-118185000D02*
X175620238Y-118137380D01*
X175620238Y-118137380D02*
X175429762Y-118137380D01*
X175429762Y-118137380D02*
X175334524Y-118185000D01*
X175334524Y-118185000D02*
X175286905Y-118232619D01*
X175286905Y-118232619D02*
X175239286Y-118327857D01*
X175239286Y-118327857D02*
X175239286Y-118565952D01*
X175239286Y-118565952D02*
X175286905Y-118661190D01*
X175286905Y-118661190D02*
X175334524Y-118708809D01*
X175334524Y-118708809D02*
X175429762Y-118756428D01*
X175429762Y-118756428D02*
X175620238Y-118756428D01*
X175620238Y-118756428D02*
X175715476Y-118708809D01*
X175715476Y-118708809D02*
X175763095Y-118661190D01*
X175763095Y-118661190D02*
X175810714Y-118565952D01*
%TO.C,C8*%
X170058333Y-119142142D02*
X170010714Y-119189761D01*
X170010714Y-119189761D02*
X169867857Y-119237380D01*
X169867857Y-119237380D02*
X169772619Y-119237380D01*
X169772619Y-119237380D02*
X169629762Y-119189761D01*
X169629762Y-119189761D02*
X169534524Y-119094523D01*
X169534524Y-119094523D02*
X169486905Y-118999285D01*
X169486905Y-118999285D02*
X169439286Y-118808809D01*
X169439286Y-118808809D02*
X169439286Y-118665952D01*
X169439286Y-118665952D02*
X169486905Y-118475476D01*
X169486905Y-118475476D02*
X169534524Y-118380238D01*
X169534524Y-118380238D02*
X169629762Y-118285000D01*
X169629762Y-118285000D02*
X169772619Y-118237380D01*
X169772619Y-118237380D02*
X169867857Y-118237380D01*
X169867857Y-118237380D02*
X170010714Y-118285000D01*
X170010714Y-118285000D02*
X170058333Y-118332619D01*
X170629762Y-118665952D02*
X170534524Y-118618333D01*
X170534524Y-118618333D02*
X170486905Y-118570714D01*
X170486905Y-118570714D02*
X170439286Y-118475476D01*
X170439286Y-118475476D02*
X170439286Y-118427857D01*
X170439286Y-118427857D02*
X170486905Y-118332619D01*
X170486905Y-118332619D02*
X170534524Y-118285000D01*
X170534524Y-118285000D02*
X170629762Y-118237380D01*
X170629762Y-118237380D02*
X170820238Y-118237380D01*
X170820238Y-118237380D02*
X170915476Y-118285000D01*
X170915476Y-118285000D02*
X170963095Y-118332619D01*
X170963095Y-118332619D02*
X171010714Y-118427857D01*
X171010714Y-118427857D02*
X171010714Y-118475476D01*
X171010714Y-118475476D02*
X170963095Y-118570714D01*
X170963095Y-118570714D02*
X170915476Y-118618333D01*
X170915476Y-118618333D02*
X170820238Y-118665952D01*
X170820238Y-118665952D02*
X170629762Y-118665952D01*
X170629762Y-118665952D02*
X170534524Y-118713571D01*
X170534524Y-118713571D02*
X170486905Y-118761190D01*
X170486905Y-118761190D02*
X170439286Y-118856428D01*
X170439286Y-118856428D02*
X170439286Y-119046904D01*
X170439286Y-119046904D02*
X170486905Y-119142142D01*
X170486905Y-119142142D02*
X170534524Y-119189761D01*
X170534524Y-119189761D02*
X170629762Y-119237380D01*
X170629762Y-119237380D02*
X170820238Y-119237380D01*
X170820238Y-119237380D02*
X170915476Y-119189761D01*
X170915476Y-119189761D02*
X170963095Y-119142142D01*
X170963095Y-119142142D02*
X171010714Y-119046904D01*
X171010714Y-119046904D02*
X171010714Y-118856428D01*
X171010714Y-118856428D02*
X170963095Y-118761190D01*
X170963095Y-118761190D02*
X170915476Y-118713571D01*
X170915476Y-118713571D02*
X170820238Y-118665952D01*
%TO.C,C6*%
X144258333Y-118942142D02*
X144210714Y-118989761D01*
X144210714Y-118989761D02*
X144067857Y-119037380D01*
X144067857Y-119037380D02*
X143972619Y-119037380D01*
X143972619Y-119037380D02*
X143829762Y-118989761D01*
X143829762Y-118989761D02*
X143734524Y-118894523D01*
X143734524Y-118894523D02*
X143686905Y-118799285D01*
X143686905Y-118799285D02*
X143639286Y-118608809D01*
X143639286Y-118608809D02*
X143639286Y-118465952D01*
X143639286Y-118465952D02*
X143686905Y-118275476D01*
X143686905Y-118275476D02*
X143734524Y-118180238D01*
X143734524Y-118180238D02*
X143829762Y-118085000D01*
X143829762Y-118085000D02*
X143972619Y-118037380D01*
X143972619Y-118037380D02*
X144067857Y-118037380D01*
X144067857Y-118037380D02*
X144210714Y-118085000D01*
X144210714Y-118085000D02*
X144258333Y-118132619D01*
X145115476Y-118037380D02*
X144925000Y-118037380D01*
X144925000Y-118037380D02*
X144829762Y-118085000D01*
X144829762Y-118085000D02*
X144782143Y-118132619D01*
X144782143Y-118132619D02*
X144686905Y-118275476D01*
X144686905Y-118275476D02*
X144639286Y-118465952D01*
X144639286Y-118465952D02*
X144639286Y-118846904D01*
X144639286Y-118846904D02*
X144686905Y-118942142D01*
X144686905Y-118942142D02*
X144734524Y-118989761D01*
X144734524Y-118989761D02*
X144829762Y-119037380D01*
X144829762Y-119037380D02*
X145020238Y-119037380D01*
X145020238Y-119037380D02*
X145115476Y-118989761D01*
X145115476Y-118989761D02*
X145163095Y-118942142D01*
X145163095Y-118942142D02*
X145210714Y-118846904D01*
X145210714Y-118846904D02*
X145210714Y-118608809D01*
X145210714Y-118608809D02*
X145163095Y-118513571D01*
X145163095Y-118513571D02*
X145115476Y-118465952D01*
X145115476Y-118465952D02*
X145020238Y-118418333D01*
X145020238Y-118418333D02*
X144829762Y-118418333D01*
X144829762Y-118418333D02*
X144734524Y-118465952D01*
X144734524Y-118465952D02*
X144686905Y-118513571D01*
X144686905Y-118513571D02*
X144639286Y-118608809D01*
%TO.C,C5*%
X139433333Y-118942142D02*
X139385714Y-118989761D01*
X139385714Y-118989761D02*
X139242857Y-119037380D01*
X139242857Y-119037380D02*
X139147619Y-119037380D01*
X139147619Y-119037380D02*
X139004762Y-118989761D01*
X139004762Y-118989761D02*
X138909524Y-118894523D01*
X138909524Y-118894523D02*
X138861905Y-118799285D01*
X138861905Y-118799285D02*
X138814286Y-118608809D01*
X138814286Y-118608809D02*
X138814286Y-118465952D01*
X138814286Y-118465952D02*
X138861905Y-118275476D01*
X138861905Y-118275476D02*
X138909524Y-118180238D01*
X138909524Y-118180238D02*
X139004762Y-118085000D01*
X139004762Y-118085000D02*
X139147619Y-118037380D01*
X139147619Y-118037380D02*
X139242857Y-118037380D01*
X139242857Y-118037380D02*
X139385714Y-118085000D01*
X139385714Y-118085000D02*
X139433333Y-118132619D01*
X140338095Y-118037380D02*
X139861905Y-118037380D01*
X139861905Y-118037380D02*
X139814286Y-118513571D01*
X139814286Y-118513571D02*
X139861905Y-118465952D01*
X139861905Y-118465952D02*
X139957143Y-118418333D01*
X139957143Y-118418333D02*
X140195238Y-118418333D01*
X140195238Y-118418333D02*
X140290476Y-118465952D01*
X140290476Y-118465952D02*
X140338095Y-118513571D01*
X140338095Y-118513571D02*
X140385714Y-118608809D01*
X140385714Y-118608809D02*
X140385714Y-118846904D01*
X140385714Y-118846904D02*
X140338095Y-118942142D01*
X140338095Y-118942142D02*
X140290476Y-118989761D01*
X140290476Y-118989761D02*
X140195238Y-119037380D01*
X140195238Y-119037380D02*
X139957143Y-119037380D01*
X139957143Y-119037380D02*
X139861905Y-118989761D01*
X139861905Y-118989761D02*
X139814286Y-118942142D01*
%TO.C,C3*%
X119858333Y-119042142D02*
X119810714Y-119089761D01*
X119810714Y-119089761D02*
X119667857Y-119137380D01*
X119667857Y-119137380D02*
X119572619Y-119137380D01*
X119572619Y-119137380D02*
X119429762Y-119089761D01*
X119429762Y-119089761D02*
X119334524Y-118994523D01*
X119334524Y-118994523D02*
X119286905Y-118899285D01*
X119286905Y-118899285D02*
X119239286Y-118708809D01*
X119239286Y-118708809D02*
X119239286Y-118565952D01*
X119239286Y-118565952D02*
X119286905Y-118375476D01*
X119286905Y-118375476D02*
X119334524Y-118280238D01*
X119334524Y-118280238D02*
X119429762Y-118185000D01*
X119429762Y-118185000D02*
X119572619Y-118137380D01*
X119572619Y-118137380D02*
X119667857Y-118137380D01*
X119667857Y-118137380D02*
X119810714Y-118185000D01*
X119810714Y-118185000D02*
X119858333Y-118232619D01*
X120191667Y-118137380D02*
X120810714Y-118137380D01*
X120810714Y-118137380D02*
X120477381Y-118518333D01*
X120477381Y-118518333D02*
X120620238Y-118518333D01*
X120620238Y-118518333D02*
X120715476Y-118565952D01*
X120715476Y-118565952D02*
X120763095Y-118613571D01*
X120763095Y-118613571D02*
X120810714Y-118708809D01*
X120810714Y-118708809D02*
X120810714Y-118946904D01*
X120810714Y-118946904D02*
X120763095Y-119042142D01*
X120763095Y-119042142D02*
X120715476Y-119089761D01*
X120715476Y-119089761D02*
X120620238Y-119137380D01*
X120620238Y-119137380D02*
X120334524Y-119137380D01*
X120334524Y-119137380D02*
X120239286Y-119089761D01*
X120239286Y-119089761D02*
X120191667Y-119042142D01*
%TO.C,C2*%
X115033333Y-119042142D02*
X114985714Y-119089761D01*
X114985714Y-119089761D02*
X114842857Y-119137380D01*
X114842857Y-119137380D02*
X114747619Y-119137380D01*
X114747619Y-119137380D02*
X114604762Y-119089761D01*
X114604762Y-119089761D02*
X114509524Y-118994523D01*
X114509524Y-118994523D02*
X114461905Y-118899285D01*
X114461905Y-118899285D02*
X114414286Y-118708809D01*
X114414286Y-118708809D02*
X114414286Y-118565952D01*
X114414286Y-118565952D02*
X114461905Y-118375476D01*
X114461905Y-118375476D02*
X114509524Y-118280238D01*
X114509524Y-118280238D02*
X114604762Y-118185000D01*
X114604762Y-118185000D02*
X114747619Y-118137380D01*
X114747619Y-118137380D02*
X114842857Y-118137380D01*
X114842857Y-118137380D02*
X114985714Y-118185000D01*
X114985714Y-118185000D02*
X115033333Y-118232619D01*
X115414286Y-118232619D02*
X115461905Y-118185000D01*
X115461905Y-118185000D02*
X115557143Y-118137380D01*
X115557143Y-118137380D02*
X115795238Y-118137380D01*
X115795238Y-118137380D02*
X115890476Y-118185000D01*
X115890476Y-118185000D02*
X115938095Y-118232619D01*
X115938095Y-118232619D02*
X115985714Y-118327857D01*
X115985714Y-118327857D02*
X115985714Y-118423095D01*
X115985714Y-118423095D02*
X115938095Y-118565952D01*
X115938095Y-118565952D02*
X115366667Y-119137380D01*
X115366667Y-119137380D02*
X115985714Y-119137380D01*
D11*
%TO.C,TPS3*%
X175950000Y-134000000D02*
G75*
G03*
X175950000Y-134000000I-950000J0D01*
G01*
%TO.C,TPS2*%
X140250000Y-134300000D02*
G75*
G03*
X140250000Y-134300000I-950000J0D01*
G01*
%TO.C,TPS1*%
X115950000Y-134000000D02*
G75*
G03*
X115950000Y-134000000I-950000J0D01*
G01*
%TO.C,TPE3*%
X161150000Y-114500000D02*
G75*
G03*
X161150000Y-114500000I-950000J0D01*
G01*
%TO.C,TPE2*%
X158350000Y-126300000D02*
G75*
G03*
X158350000Y-126300000I-950000J0D01*
G01*
%TO.C,TPE1*%
X133850000Y-126200000D02*
G75*
G03*
X133850000Y-126200000I-950000J0D01*
G01*
%TO.C,TPPWM7*%
X128450000Y-129800000D02*
G75*
G03*
X128450000Y-129800000I-950000J0D01*
G01*
%TO.C,TPPWM4*%
X152350000Y-129600000D02*
G75*
G03*
X152350000Y-129600000I-950000J0D01*
G01*
%TO.C,TPPWM1*%
X164950000Y-129300000D02*
G75*
G03*
X164950000Y-129300000I-950000J0D01*
G01*
%TO.C,TPBATT1*%
X163050000Y-135100000D02*
G75*
G03*
X163050000Y-135100000I-950000J0D01*
G01*
%TO.C,TPA15*%
X131950000Y-135200000D02*
G75*
G03*
X131950000Y-135200000I-950000J0D01*
G01*
%TO.C,TPA11*%
X151850000Y-135200000D02*
G75*
G03*
X151850000Y-135200000I-950000J0D01*
G01*
%TO.C,TPA8*%
X157650000Y-135200000D02*
G75*
G03*
X157650000Y-135200000I-950000J0D01*
G01*
%TO.C,TP5*%
X165750000Y-107800000D02*
G75*
G03*
X165750000Y-107800000I-950000J0D01*
G01*
%TO.C,TP3V3*%
X125850000Y-107300000D02*
G75*
G03*
X125850000Y-107300000I-950000J0D01*
G01*
%TO.C,TP3*%
X136350000Y-114800000D02*
G75*
G03*
X136350000Y-114800000I-950000J0D01*
G01*
%TO.C,TP1*%
X131750000Y-114800000D02*
G75*
G03*
X131750000Y-114800000I-950000J0D01*
G01*
%TO.C,RS3*%
X169537742Y-134322500D02*
X170012258Y-134322500D01*
X169537742Y-133277500D02*
X170012258Y-133277500D01*
%TO.C,RS2*%
X144862742Y-134622500D02*
X145337258Y-134622500D01*
X144862742Y-133577500D02*
X145337258Y-133577500D01*
%TO.C,RS1*%
X120537742Y-134422500D02*
X121012258Y-134422500D01*
X120537742Y-133377500D02*
X121012258Y-133377500D01*
%TO.C,RB3*%
X164137742Y-120622500D02*
X164612258Y-120622500D01*
X164137742Y-119577500D02*
X164612258Y-119577500D01*
%TO.C,RB2*%
X150137742Y-120822500D02*
X150612258Y-120822500D01*
X150137742Y-119777500D02*
X150612258Y-119777500D01*
%TO.C,RB1*%
X125637742Y-120622500D02*
X126112258Y-120622500D01*
X125637742Y-119577500D02*
X126112258Y-119577500D01*
%TO.C,R6*%
X159037742Y-110422500D02*
X159512258Y-110422500D01*
X159037742Y-109377500D02*
X159512258Y-109377500D01*
%TO.C,R5*%
X158787742Y-102122500D02*
X159262258Y-102122500D01*
X158787742Y-101077500D02*
X159262258Y-101077500D01*
%TO.C,R4*%
X147037742Y-115377500D02*
X147512258Y-115377500D01*
X147037742Y-116422500D02*
X147512258Y-116422500D01*
%TO.C,R3*%
X140737742Y-116422500D02*
X141212258Y-116422500D01*
X140737742Y-115377500D02*
X141212258Y-115377500D01*
%TO.C,R2*%
X130437742Y-102422500D02*
X130912258Y-102422500D01*
X130437742Y-101377500D02*
X130912258Y-101377500D01*
%TO.C,R1*%
X130337742Y-110522500D02*
X130812258Y-110522500D01*
X130337742Y-109477500D02*
X130812258Y-109477500D01*
%TO.C,Q6*%
X171285000Y-108750000D02*
X171285000Y-108750000D01*
X171285000Y-109040000D02*
X171285000Y-105920000D01*
X171285000Y-106210000D02*
X171155000Y-106210000D01*
X171285000Y-105520000D02*
X172405000Y-105520000D01*
X171155000Y-108750000D02*
X171285000Y-108750000D01*
X171285000Y-109040000D02*
X175145000Y-109040000D01*
X171285000Y-105920000D02*
X171285000Y-105520000D01*
X172405000Y-105520000D02*
X172405000Y-105920000D01*
X171285000Y-106210000D02*
X171285000Y-106210000D01*
X172405000Y-105920000D02*
X171285000Y-105920000D01*
X171285000Y-108750000D02*
X171155000Y-108750000D01*
X171155000Y-108750000D02*
X171155000Y-108750000D01*
X171155000Y-106210000D02*
X171155000Y-106210000D01*
X171155000Y-106210000D02*
X171285000Y-106210000D01*
X171285000Y-105920000D02*
X175145000Y-105920000D01*
X175145000Y-109040000D02*
G75*
G03*
X175145000Y-105920000I0J1560000D01*
G01*
%TO.C,Q5*%
X145450000Y-102615000D02*
X145450000Y-102615000D01*
X145740000Y-102615000D02*
X142620000Y-102615000D01*
X142910000Y-102615000D02*
X142910000Y-102745000D01*
X142220000Y-102615000D02*
X142220000Y-101495000D01*
X145450000Y-102745000D02*
X145450000Y-102615000D01*
X145740000Y-102615000D02*
X145740000Y-98755000D01*
X142620000Y-102615000D02*
X142220000Y-102615000D01*
X142220000Y-101495000D02*
X142620000Y-101495000D01*
X142910000Y-102615000D02*
X142910000Y-102615000D01*
X142620000Y-101495000D02*
X142620000Y-102615000D01*
X145450000Y-102615000D02*
X145450000Y-102745000D01*
X145450000Y-102745000D02*
X145450000Y-102745000D01*
X142910000Y-102745000D02*
X142910000Y-102745000D01*
X142910000Y-102745000D02*
X142910000Y-102615000D01*
X142620000Y-102615000D02*
X142620000Y-98755000D01*
X145740000Y-98755000D02*
G75*
G03*
X142620000Y-98755000I-1560000J0D01*
G01*
%TO.C,Q4*%
X119115000Y-106250000D02*
X119115000Y-106250000D01*
X119115000Y-105960000D02*
X119115000Y-109080000D01*
X119115000Y-108790000D02*
X119245000Y-108790000D01*
X119115000Y-109480000D02*
X117995000Y-109480000D01*
X119245000Y-106250000D02*
X119115000Y-106250000D01*
X119115000Y-105960000D02*
X115255000Y-105960000D01*
X119115000Y-109080000D02*
X119115000Y-109480000D01*
X117995000Y-109480000D02*
X117995000Y-109080000D01*
X119115000Y-108790000D02*
X119115000Y-108790000D01*
X117995000Y-109080000D02*
X119115000Y-109080000D01*
X119115000Y-106250000D02*
X119245000Y-106250000D01*
X119245000Y-106250000D02*
X119245000Y-106250000D01*
X119245000Y-108790000D02*
X119245000Y-108790000D01*
X119245000Y-108790000D02*
X119115000Y-108790000D01*
X119115000Y-109080000D02*
X115255000Y-109080000D01*
X115255000Y-105960000D02*
G75*
G03*
X115255000Y-109080000I0J-1560000D01*
G01*
%TO.C,Q3*%
X154962500Y-112440000D02*
X155612500Y-112440000D01*
X154962500Y-115560000D02*
X155612500Y-115560000D01*
X154962500Y-112440000D02*
X153287500Y-112440000D01*
X154962500Y-115560000D02*
X154312500Y-115560000D01*
%TO.C,Q2*%
X157362500Y-119140000D02*
X158012500Y-119140000D01*
X157362500Y-122260000D02*
X158012500Y-122260000D01*
X157362500Y-119140000D02*
X155687500Y-119140000D01*
X157362500Y-122260000D02*
X156712500Y-122260000D01*
%TO.C,Q1*%
X133162500Y-122160000D02*
X132512500Y-122160000D01*
X133162500Y-119040000D02*
X131487500Y-119040000D01*
X133162500Y-122160000D02*
X133812500Y-122160000D01*
X133162500Y-119040000D02*
X133812500Y-119040000D01*
%TO.C,JPRS3*%
X171200000Y-130600000D02*
X168400000Y-130600000D01*
X167750000Y-129900000D02*
X167750000Y-129300000D01*
X171850000Y-129300000D02*
X171850000Y-129900000D01*
X168400000Y-128600000D02*
X171200000Y-128600000D01*
X168450000Y-128600000D02*
G75*
G03*
X167750000Y-129300000I-1J-699999D01*
G01*
X171850000Y-129300000D02*
G75*
G03*
X171150000Y-128600000I-700000J0D01*
G01*
X167750000Y-129900000D02*
G75*
G03*
X168450000Y-130600000I699999J-1D01*
G01*
X171150000Y-130600000D02*
G75*
G03*
X171850000Y-129900000I0J700000D01*
G01*
%TO.C,JPRS2*%
X146500000Y-130800000D02*
X143700000Y-130800000D01*
X143050000Y-130100000D02*
X143050000Y-129500000D01*
X147150000Y-129500000D02*
X147150000Y-130100000D01*
X143700000Y-128800000D02*
X146500000Y-128800000D01*
X143750000Y-128800000D02*
G75*
G03*
X143050000Y-129500000I-1J-699999D01*
G01*
X147150000Y-129500000D02*
G75*
G03*
X146450000Y-128800000I-700000J0D01*
G01*
X143050000Y-130100000D02*
G75*
G03*
X143750000Y-130800000I699999J-1D01*
G01*
X146450000Y-130800000D02*
G75*
G03*
X147150000Y-130100000I0J700000D01*
G01*
%TO.C,JPRS1*%
X122100000Y-130700000D02*
X119300000Y-130700000D01*
X118650000Y-130000000D02*
X118650000Y-129400000D01*
X122750000Y-129400000D02*
X122750000Y-130000000D01*
X119300000Y-128700000D02*
X122100000Y-128700000D01*
X119350000Y-128700000D02*
G75*
G03*
X118650000Y-129400000I-1J-699999D01*
G01*
X122750000Y-129400000D02*
G75*
G03*
X122050000Y-128700000I-700000J0D01*
G01*
X118650000Y-130000000D02*
G75*
G03*
X119350000Y-130700000I699999J-1D01*
G01*
X122050000Y-130700000D02*
G75*
G03*
X122750000Y-130000000I0J700000D01*
G01*
%TO.C,JPRB3*%
X165550000Y-125900000D02*
G75*
G03*
X166250000Y-125200000I0J700000D01*
G01*
X162150000Y-125200000D02*
G75*
G03*
X162850000Y-125900000I699999J-1D01*
G01*
X166250000Y-124600000D02*
G75*
G03*
X165550000Y-123900000I-700000J0D01*
G01*
X162850000Y-123900000D02*
G75*
G03*
X162150000Y-124600000I-1J-699999D01*
G01*
X162800000Y-123900000D02*
X165600000Y-123900000D01*
X166250000Y-124600000D02*
X166250000Y-125200000D01*
X162150000Y-125200000D02*
X162150000Y-124600000D01*
X165600000Y-125900000D02*
X162800000Y-125900000D01*
%TO.C,JPRB2*%
X151700000Y-126000000D02*
X148900000Y-126000000D01*
X148250000Y-125300000D02*
X148250000Y-124700000D01*
X152350000Y-124700000D02*
X152350000Y-125300000D01*
X148900000Y-124000000D02*
X151700000Y-124000000D01*
X148950000Y-124000000D02*
G75*
G03*
X148250000Y-124700000I-1J-699999D01*
G01*
X152350000Y-124700000D02*
G75*
G03*
X151650000Y-124000000I-700000J0D01*
G01*
X148250000Y-125300000D02*
G75*
G03*
X148950000Y-126000000I699999J-1D01*
G01*
X151650000Y-126000000D02*
G75*
G03*
X152350000Y-125300000I0J700000D01*
G01*
%TO.C,JPRB1*%
X127300000Y-126000000D02*
X124500000Y-126000000D01*
X123850000Y-125300000D02*
X123850000Y-124700000D01*
X127950000Y-124700000D02*
X127950000Y-125300000D01*
X124500000Y-124000000D02*
X127300000Y-124000000D01*
X124550000Y-124000000D02*
G75*
G03*
X123850000Y-124700000I-1J-699999D01*
G01*
X127950000Y-124700000D02*
G75*
G03*
X127250000Y-124000000I-700000J0D01*
G01*
X123850000Y-125300000D02*
G75*
G03*
X124550000Y-126000000I699999J-1D01*
G01*
X127250000Y-126000000D02*
G75*
G03*
X127950000Y-125300000I0J700000D01*
G01*
%TO.C,JPR6*%
X160600000Y-107200000D02*
X157800000Y-107200000D01*
X157150000Y-106500000D02*
X157150000Y-105900000D01*
X161250000Y-105900000D02*
X161250000Y-106500000D01*
X157800000Y-105200000D02*
X160600000Y-105200000D01*
X157850000Y-105200000D02*
G75*
G03*
X157150000Y-105900000I-1J-699999D01*
G01*
X161250000Y-105900000D02*
G75*
G03*
X160550000Y-105200000I-700000J0D01*
G01*
X157150000Y-106500000D02*
G75*
G03*
X157850000Y-107200000I699999J-1D01*
G01*
X160550000Y-107200000D02*
G75*
G03*
X161250000Y-106500000I0J700000D01*
G01*
%TO.C,JPR5*%
X160400000Y-99000000D02*
X157600000Y-99000000D01*
X156950000Y-98300000D02*
X156950000Y-97700000D01*
X161050000Y-97700000D02*
X161050000Y-98300000D01*
X157600000Y-97000000D02*
X160400000Y-97000000D01*
X157650000Y-97000000D02*
G75*
G03*
X156950000Y-97700000I-1J-699999D01*
G01*
X161050000Y-97700000D02*
G75*
G03*
X160350000Y-97000000I-700000J0D01*
G01*
X156950000Y-98300000D02*
G75*
G03*
X157650000Y-99000000I699999J-1D01*
G01*
X160350000Y-99000000D02*
G75*
G03*
X161050000Y-98300000I0J700000D01*
G01*
%TO.C,JPR4*%
X148700000Y-113300000D02*
X145900000Y-113300000D01*
X145250000Y-112600000D02*
X145250000Y-112000000D01*
X149350000Y-112000000D02*
X149350000Y-112600000D01*
X145900000Y-111300000D02*
X148700000Y-111300000D01*
X145950000Y-111300000D02*
G75*
G03*
X145250000Y-112000000I-1J-699999D01*
G01*
X149350000Y-112000000D02*
G75*
G03*
X148650000Y-111300000I-700000J0D01*
G01*
X145250000Y-112600000D02*
G75*
G03*
X145950000Y-113300000I699999J-1D01*
G01*
X148650000Y-113300000D02*
G75*
G03*
X149350000Y-112600000I0J700000D01*
G01*
%TO.C,JPR3*%
X142300000Y-113300000D02*
X139500000Y-113300000D01*
X138850000Y-112600000D02*
X138850000Y-112000000D01*
X142950000Y-112000000D02*
X142950000Y-112600000D01*
X139500000Y-111300000D02*
X142300000Y-111300000D01*
X139550000Y-111300000D02*
G75*
G03*
X138850000Y-112000000I-1J-699999D01*
G01*
X142950000Y-112000000D02*
G75*
G03*
X142250000Y-111300000I-700000J0D01*
G01*
X138850000Y-112600000D02*
G75*
G03*
X139550000Y-113300000I699999J-1D01*
G01*
X142250000Y-113300000D02*
G75*
G03*
X142950000Y-112600000I0J700000D01*
G01*
%TO.C,JPR2*%
X132100000Y-99300000D02*
X129300000Y-99300000D01*
X128650000Y-98600000D02*
X128650000Y-98000000D01*
X132750000Y-98000000D02*
X132750000Y-98600000D01*
X129300000Y-97300000D02*
X132100000Y-97300000D01*
X129350000Y-97300000D02*
G75*
G03*
X128650000Y-98000000I-1J-699999D01*
G01*
X132750000Y-98000000D02*
G75*
G03*
X132050000Y-97300000I-700000J0D01*
G01*
X128650000Y-98600000D02*
G75*
G03*
X129350000Y-99300000I699999J-1D01*
G01*
X132050000Y-99300000D02*
G75*
G03*
X132750000Y-98600000I0J700000D01*
G01*
%TO.C,JPR1*%
X132100000Y-107400000D02*
X129300000Y-107400000D01*
X128650000Y-106700000D02*
X128650000Y-106100000D01*
X132750000Y-106100000D02*
X132750000Y-106700000D01*
X129300000Y-105400000D02*
X132100000Y-105400000D01*
X129350000Y-105400000D02*
G75*
G03*
X128650000Y-106100000I-1J-699999D01*
G01*
X132750000Y-106100000D02*
G75*
G03*
X132050000Y-105400000I-700000J0D01*
G01*
X128650000Y-106700000D02*
G75*
G03*
X129350000Y-107400000I699999J-1D01*
G01*
X132050000Y-107400000D02*
G75*
G03*
X132750000Y-106700000I0J700000D01*
G01*
%TO.C,JPC9*%
X174300000Y-124000000D02*
X175700000Y-124000000D01*
X175700000Y-126000000D02*
X174300000Y-126000000D01*
X176400000Y-124700000D02*
X176400000Y-125300000D01*
X173600000Y-125300000D02*
X173600000Y-124700000D01*
X176400000Y-124700000D02*
G75*
G03*
X175700000Y-124000000I-700000J0D01*
G01*
X174300000Y-124000000D02*
G75*
G03*
X173600000Y-124700000I-1J-699999D01*
G01*
X173600000Y-125300000D02*
G75*
G03*
X174300000Y-126000000I699999J-1D01*
G01*
X175700000Y-126000000D02*
G75*
G03*
X176400000Y-125300000I0J700000D01*
G01*
%TO.C,JPC8*%
X169450000Y-124000000D02*
X170850000Y-124000000D01*
X170850000Y-126000000D02*
X169450000Y-126000000D01*
X171550000Y-124700000D02*
X171550000Y-125300000D01*
X168750000Y-125300000D02*
X168750000Y-124700000D01*
X171550000Y-124700000D02*
G75*
G03*
X170850000Y-124000000I-700000J0D01*
G01*
X169450000Y-124000000D02*
G75*
G03*
X168750000Y-124700000I-1J-699999D01*
G01*
X168750000Y-125300000D02*
G75*
G03*
X169450000Y-126000000I699999J-1D01*
G01*
X170850000Y-126000000D02*
G75*
G03*
X171550000Y-125300000I0J700000D01*
G01*
%TO.C,JPC7*%
X174300000Y-128600000D02*
X175700000Y-128600000D01*
X175700000Y-130600000D02*
X174300000Y-130600000D01*
X176400000Y-129300000D02*
X176400000Y-129900000D01*
X173600000Y-129900000D02*
X173600000Y-129300000D01*
X176400000Y-129300000D02*
G75*
G03*
X175700000Y-128600000I-700000J0D01*
G01*
X174300000Y-128600000D02*
G75*
G03*
X173600000Y-129300000I-1J-699999D01*
G01*
X173600000Y-129900000D02*
G75*
G03*
X174300000Y-130600000I699999J-1D01*
G01*
X175700000Y-130600000D02*
G75*
G03*
X176400000Y-129900000I0J700000D01*
G01*
%TO.C,JPC6*%
X143550000Y-123900000D02*
X144950000Y-123900000D01*
X144950000Y-125900000D02*
X143550000Y-125900000D01*
X145650000Y-124600000D02*
X145650000Y-125200000D01*
X142850000Y-125200000D02*
X142850000Y-124600000D01*
X145650000Y-124600000D02*
G75*
G03*
X144950000Y-123900000I-700000J0D01*
G01*
X143550000Y-123900000D02*
G75*
G03*
X142850000Y-124600000I-1J-699999D01*
G01*
X142850000Y-125200000D02*
G75*
G03*
X143550000Y-125900000I699999J-1D01*
G01*
X144950000Y-125900000D02*
G75*
G03*
X145650000Y-125200000I0J700000D01*
G01*
%TO.C,JPC5*%
X138850000Y-123900000D02*
X140250000Y-123900000D01*
X140250000Y-125900000D02*
X138850000Y-125900000D01*
X140950000Y-124600000D02*
X140950000Y-125200000D01*
X138150000Y-125200000D02*
X138150000Y-124600000D01*
X140950000Y-124600000D02*
G75*
G03*
X140250000Y-123900000I-700000J0D01*
G01*
X138850000Y-123900000D02*
G75*
G03*
X138150000Y-124600000I-1J-699999D01*
G01*
X138150000Y-125200000D02*
G75*
G03*
X138850000Y-125900000I699999J-1D01*
G01*
X140250000Y-125900000D02*
G75*
G03*
X140950000Y-125200000I0J700000D01*
G01*
%TO.C,JPC4*%
X138850000Y-128500000D02*
X140250000Y-128500000D01*
X140250000Y-130500000D02*
X138850000Y-130500000D01*
X140950000Y-129200000D02*
X140950000Y-129800000D01*
X138150000Y-129800000D02*
X138150000Y-129200000D01*
X140950000Y-129200000D02*
G75*
G03*
X140250000Y-128500000I-700000J0D01*
G01*
X138850000Y-128500000D02*
G75*
G03*
X138150000Y-129200000I-1J-699999D01*
G01*
X138150000Y-129800000D02*
G75*
G03*
X138850000Y-130500000I699999J-1D01*
G01*
X140250000Y-130500000D02*
G75*
G03*
X140950000Y-129800000I0J700000D01*
G01*
%TO.C,JPC3*%
X119350000Y-124000000D02*
X120750000Y-124000000D01*
X120750000Y-126000000D02*
X119350000Y-126000000D01*
X121450000Y-124700000D02*
X121450000Y-125300000D01*
X118650000Y-125300000D02*
X118650000Y-124700000D01*
X121450000Y-124700000D02*
G75*
G03*
X120750000Y-124000000I-700000J0D01*
G01*
X119350000Y-124000000D02*
G75*
G03*
X118650000Y-124700000I-1J-699999D01*
G01*
X118650000Y-125300000D02*
G75*
G03*
X119350000Y-126000000I699999J-1D01*
G01*
X120750000Y-126000000D02*
G75*
G03*
X121450000Y-125300000I0J700000D01*
G01*
%TO.C,JPC2*%
X114350000Y-123900000D02*
X115750000Y-123900000D01*
X115750000Y-125900000D02*
X114350000Y-125900000D01*
X116450000Y-124600000D02*
X116450000Y-125200000D01*
X113650000Y-125200000D02*
X113650000Y-124600000D01*
X116450000Y-124600000D02*
G75*
G03*
X115750000Y-123900000I-700000J0D01*
G01*
X114350000Y-123900000D02*
G75*
G03*
X113650000Y-124600000I-1J-699999D01*
G01*
X113650000Y-125200000D02*
G75*
G03*
X114350000Y-125900000I699999J-1D01*
G01*
X115750000Y-125900000D02*
G75*
G03*
X116450000Y-125200000I0J700000D01*
G01*
%TO.C,JPC1*%
X114300000Y-128600000D02*
X115700000Y-128600000D01*
X115700000Y-130600000D02*
X114300000Y-130600000D01*
X116400000Y-129300000D02*
X116400000Y-129900000D01*
X113600000Y-129900000D02*
X113600000Y-129300000D01*
X116400000Y-129300000D02*
G75*
G03*
X115700000Y-128600000I-700000J0D01*
G01*
X114300000Y-128600000D02*
G75*
G03*
X113600000Y-129300000I-1J-699999D01*
G01*
X113600000Y-129900000D02*
G75*
G03*
X114300000Y-130600000I699999J-1D01*
G01*
X115700000Y-130600000D02*
G75*
G03*
X116400000Y-129900000I0J700000D01*
G01*
%TO.C,D6*%
X167605000Y-112735000D02*
X167605000Y-112735000D01*
X167735000Y-116565000D02*
X167735000Y-111445000D01*
X167605000Y-115275000D02*
X167735000Y-115275000D01*
X167605000Y-112735000D02*
X167735000Y-112735000D01*
X167735000Y-112735000D02*
X167605000Y-112735000D01*
X167735000Y-116565000D02*
X173895000Y-116565000D01*
X167605000Y-115275000D02*
X167605000Y-115275000D01*
X168855000Y-111045000D02*
X168855000Y-111445000D01*
X167735000Y-111445000D02*
X167735000Y-111045000D01*
X167735000Y-115275000D02*
X167735000Y-115275000D01*
X167735000Y-111045000D02*
X168855000Y-111045000D01*
X167735000Y-112735000D02*
X167735000Y-112735000D01*
X167735000Y-111445000D02*
X173895000Y-111445000D01*
X168855000Y-111445000D02*
X167735000Y-111445000D01*
X167735000Y-115275000D02*
X167605000Y-115275000D01*
X173895000Y-116565000D02*
G75*
G03*
X173895000Y-111445000I0J2560000D01*
G01*
%TO.C,D5*%
X173695000Y-103565000D02*
G75*
G03*
X173695000Y-98445000I0J2560000D01*
G01*
X167535000Y-102275000D02*
X167405000Y-102275000D01*
X168655000Y-98445000D02*
X167535000Y-98445000D01*
X167535000Y-98445000D02*
X173695000Y-98445000D01*
X167535000Y-99735000D02*
X167535000Y-99735000D01*
X167535000Y-98045000D02*
X168655000Y-98045000D01*
X167535000Y-102275000D02*
X167535000Y-102275000D01*
X167535000Y-98445000D02*
X167535000Y-98045000D01*
X168655000Y-98045000D02*
X168655000Y-98445000D01*
X167405000Y-102275000D02*
X167405000Y-102275000D01*
X167535000Y-103565000D02*
X173695000Y-103565000D01*
X167535000Y-99735000D02*
X167405000Y-99735000D01*
X167405000Y-99735000D02*
X167535000Y-99735000D01*
X167405000Y-102275000D02*
X167535000Y-102275000D01*
X167535000Y-103565000D02*
X167535000Y-98445000D01*
X167405000Y-99735000D02*
X167405000Y-99735000D01*
%TO.C,D4*%
X153165000Y-99905000D02*
G75*
G03*
X148045000Y-99905000I-2560000J0D01*
G01*
X151875000Y-106065000D02*
X151875000Y-106195000D01*
X148045000Y-104945000D02*
X148045000Y-106065000D01*
X148045000Y-106065000D02*
X148045000Y-99905000D01*
X149335000Y-106065000D02*
X149335000Y-106065000D01*
X147645000Y-106065000D02*
X147645000Y-104945000D01*
X151875000Y-106065000D02*
X151875000Y-106065000D01*
X148045000Y-106065000D02*
X147645000Y-106065000D01*
X147645000Y-104945000D02*
X148045000Y-104945000D01*
X151875000Y-106195000D02*
X151875000Y-106195000D01*
X153165000Y-106065000D02*
X153165000Y-99905000D01*
X149335000Y-106065000D02*
X149335000Y-106195000D01*
X149335000Y-106195000D02*
X149335000Y-106065000D01*
X151875000Y-106195000D02*
X151875000Y-106065000D01*
X153165000Y-106065000D02*
X148045000Y-106065000D01*
X149335000Y-106195000D02*
X149335000Y-106195000D01*
%TO.C,D3*%
X136435000Y-106095000D02*
X136435000Y-106095000D01*
X140265000Y-105965000D02*
X135145000Y-105965000D01*
X138975000Y-106095000D02*
X138975000Y-105965000D01*
X136435000Y-106095000D02*
X136435000Y-105965000D01*
X136435000Y-105965000D02*
X136435000Y-106095000D01*
X140265000Y-105965000D02*
X140265000Y-99805000D01*
X138975000Y-106095000D02*
X138975000Y-106095000D01*
X134745000Y-104845000D02*
X135145000Y-104845000D01*
X135145000Y-105965000D02*
X134745000Y-105965000D01*
X138975000Y-105965000D02*
X138975000Y-105965000D01*
X134745000Y-105965000D02*
X134745000Y-104845000D01*
X136435000Y-105965000D02*
X136435000Y-105965000D01*
X135145000Y-105965000D02*
X135145000Y-99805000D01*
X135145000Y-104845000D02*
X135145000Y-105965000D01*
X138975000Y-105965000D02*
X138975000Y-106095000D01*
X140265000Y-99805000D02*
G75*
G03*
X135145000Y-99805000I-2560000J0D01*
G01*
%TO.C,D2*%
X122595000Y-102165000D02*
X122595000Y-102165000D01*
X122465000Y-98335000D02*
X122465000Y-103455000D01*
X122595000Y-99625000D02*
X122465000Y-99625000D01*
X122595000Y-102165000D02*
X122465000Y-102165000D01*
X122465000Y-102165000D02*
X122595000Y-102165000D01*
X122465000Y-98335000D02*
X116305000Y-98335000D01*
X122595000Y-99625000D02*
X122595000Y-99625000D01*
X121345000Y-103855000D02*
X121345000Y-103455000D01*
X122465000Y-103455000D02*
X122465000Y-103855000D01*
X122465000Y-99625000D02*
X122465000Y-99625000D01*
X122465000Y-103855000D02*
X121345000Y-103855000D01*
X122465000Y-102165000D02*
X122465000Y-102165000D01*
X122465000Y-103455000D02*
X116305000Y-103455000D01*
X121345000Y-103455000D02*
X122465000Y-103455000D01*
X122465000Y-99625000D02*
X122595000Y-99625000D01*
X116305000Y-98335000D02*
G75*
G03*
X116305000Y-103455000I0J-2560000D01*
G01*
%TO.C,D1*%
X122795000Y-115365000D02*
X122795000Y-115365000D01*
X122665000Y-111535000D02*
X122665000Y-116655000D01*
X122795000Y-112825000D02*
X122665000Y-112825000D01*
X122795000Y-115365000D02*
X122665000Y-115365000D01*
X122665000Y-115365000D02*
X122795000Y-115365000D01*
X122665000Y-111535000D02*
X116505000Y-111535000D01*
X122795000Y-112825000D02*
X122795000Y-112825000D01*
X121545000Y-117055000D02*
X121545000Y-116655000D01*
X122665000Y-116655000D02*
X122665000Y-117055000D01*
X122665000Y-112825000D02*
X122665000Y-112825000D01*
X122665000Y-117055000D02*
X121545000Y-117055000D01*
X122665000Y-115365000D02*
X122665000Y-115365000D01*
X122665000Y-116655000D02*
X116505000Y-116655000D01*
X121545000Y-116655000D02*
X122665000Y-116655000D01*
X122665000Y-112825000D02*
X122795000Y-112825000D01*
X116505000Y-111535000D02*
G75*
G03*
X116505000Y-116655000I0J-2560000D01*
G01*
%TO.C,C9*%
X174884420Y-120710000D02*
X175165580Y-120710000D01*
X174884420Y-119690000D02*
X175165580Y-119690000D01*
%TO.C,C8*%
X170084420Y-120810000D02*
X170365580Y-120810000D01*
X170084420Y-119790000D02*
X170365580Y-119790000D01*
%TO.C,C6*%
X144284420Y-120610000D02*
X144565580Y-120610000D01*
X144284420Y-119590000D02*
X144565580Y-119590000D01*
%TO.C,C5*%
X139459420Y-120610000D02*
X139740580Y-120610000D01*
X139459420Y-119590000D02*
X139740580Y-119590000D01*
%TO.C,C3*%
X119884420Y-120710000D02*
X120165580Y-120710000D01*
X119884420Y-119690000D02*
X120165580Y-119690000D01*
%TO.C,C2*%
X115059420Y-120710000D02*
X115340580Y-120710000D01*
X115059420Y-119690000D02*
X115340580Y-119690000D01*
%TD*%
%LPC*%
D12*
%TO.C,TPS3*%
X175000000Y-134000000D03*
%TD*%
%TO.C,TPS2*%
X139300000Y-134300000D03*
%TD*%
%TO.C,TPS1*%
X115000000Y-134000000D03*
%TD*%
%TO.C,TPE3*%
X160200000Y-114500000D03*
%TD*%
%TO.C,TPE2*%
X157400000Y-126300000D03*
%TD*%
%TO.C,TPE1*%
X132900000Y-126200000D03*
%TD*%
%TO.C,TPPWM7*%
X127500000Y-129800000D03*
%TD*%
%TO.C,TPPWM4*%
X151400000Y-129600000D03*
%TD*%
%TO.C,TPPWM1*%
X164000000Y-129300000D03*
%TD*%
%TO.C,TPBATT1*%
X162100000Y-135100000D03*
%TD*%
%TO.C,TPA15*%
X131000000Y-135200000D03*
%TD*%
%TO.C,TPA11*%
X150900000Y-135200000D03*
%TD*%
%TO.C,TPA8*%
X156700000Y-135200000D03*
%TD*%
%TO.C,TP5*%
X164800000Y-107800000D03*
%TD*%
%TO.C,TP3V3*%
X124900000Y-107300000D03*
%TD*%
%TO.C,TP3*%
X135400000Y-114800000D03*
%TD*%
%TO.C,TP1*%
X130800000Y-114800000D03*
%TD*%
D13*
%TO.C,RS3*%
X168950000Y-133800000D03*
X170600000Y-133800000D03*
%TD*%
%TO.C,RS2*%
X144275000Y-134100000D03*
X145925000Y-134100000D03*
%TD*%
%TO.C,RS1*%
X119950000Y-133900000D03*
X121600000Y-133900000D03*
%TD*%
%TO.C,RB3*%
X163550000Y-120100000D03*
X165200000Y-120100000D03*
%TD*%
%TO.C,RB2*%
X149550000Y-120300000D03*
X151200000Y-120300000D03*
%TD*%
%TO.C,RB1*%
X125050000Y-120100000D03*
X126700000Y-120100000D03*
%TD*%
%TO.C,R6*%
X158450000Y-109900000D03*
X160100000Y-109900000D03*
%TD*%
%TO.C,R5*%
X158200000Y-101600000D03*
X159850000Y-101600000D03*
%TD*%
%TO.C,R4*%
X148100000Y-115900000D03*
X146450000Y-115900000D03*
%TD*%
%TO.C,R3*%
X140150000Y-115900000D03*
X141800000Y-115900000D03*
%TD*%
%TO.C,R2*%
X129850000Y-101900000D03*
X131500000Y-101900000D03*
%TD*%
%TO.C,R1*%
X129750000Y-110000000D03*
X131400000Y-110000000D03*
%TD*%
D14*
%TO.C,Q6*%
X170074999Y-108749999D03*
D15*
X170075000Y-106210000D03*
%TD*%
D14*
%TO.C,Q5*%
X145449999Y-103824999D03*
D15*
X142910000Y-103825000D03*
%TD*%
D14*
%TO.C,Q4*%
X120324999Y-106249999D03*
D15*
X120325000Y-108790000D03*
%TD*%
D16*
%TO.C,Q3*%
X154025000Y-113050000D03*
X154025000Y-114950000D03*
X155900000Y-114000000D03*
%TD*%
%TO.C,Q2*%
X156425000Y-119750000D03*
X156425000Y-121650000D03*
X158300000Y-120700000D03*
%TD*%
%TO.C,Q1*%
X134100000Y-120600000D03*
X132225000Y-121550000D03*
X132225000Y-119650000D03*
%TD*%
D17*
%TO.C,JPRS3*%
X168500000Y-129600000D03*
D18*
X169799999Y-129599999D03*
D19*
X171100000Y-129600000D03*
%TD*%
D17*
%TO.C,JPRS2*%
X143800000Y-129800000D03*
D18*
X145099999Y-129799999D03*
D19*
X146400000Y-129800000D03*
%TD*%
D17*
%TO.C,JPRS1*%
X119400000Y-129700000D03*
D18*
X120699999Y-129699999D03*
D19*
X122000000Y-129700000D03*
%TD*%
%TO.C,JPRB3*%
X165500000Y-124900000D03*
D18*
X164199999Y-124899999D03*
D17*
X162900000Y-124900000D03*
%TD*%
%TO.C,JPRB2*%
X149000000Y-125000000D03*
D18*
X150299999Y-124999999D03*
D19*
X151600000Y-125000000D03*
%TD*%
D17*
%TO.C,JPRB1*%
X124600000Y-125000000D03*
D18*
X125899999Y-124999999D03*
D19*
X127200000Y-125000000D03*
%TD*%
D17*
%TO.C,JPR6*%
X157900000Y-106200000D03*
D18*
X159199999Y-106199999D03*
D19*
X160500000Y-106200000D03*
%TD*%
D17*
%TO.C,JPR5*%
X157700000Y-98000000D03*
D18*
X158999999Y-97999999D03*
D19*
X160300000Y-98000000D03*
%TD*%
D17*
%TO.C,JPR4*%
X146000000Y-112300000D03*
D18*
X147299999Y-112299999D03*
D19*
X148600000Y-112300000D03*
%TD*%
D17*
%TO.C,JPR3*%
X139600000Y-112300000D03*
D18*
X140899999Y-112299999D03*
D19*
X142200000Y-112300000D03*
%TD*%
D17*
%TO.C,JPR2*%
X129400000Y-98300000D03*
D18*
X130699999Y-98299999D03*
D19*
X132000000Y-98300000D03*
%TD*%
D17*
%TO.C,JPR1*%
X129400000Y-106400000D03*
D18*
X130699999Y-106399999D03*
D19*
X132000000Y-106400000D03*
%TD*%
D20*
%TO.C,JPC9*%
X174350000Y-125000000D03*
D21*
X175650000Y-125000000D03*
%TD*%
D20*
%TO.C,JPC8*%
X169500000Y-125000000D03*
D21*
X170800000Y-125000000D03*
%TD*%
D20*
%TO.C,JPC7*%
X174350000Y-129600000D03*
D21*
X175650000Y-129600000D03*
%TD*%
D20*
%TO.C,JPC6*%
X143600000Y-124900000D03*
D21*
X144900000Y-124900000D03*
%TD*%
D20*
%TO.C,JPC5*%
X138900000Y-124900000D03*
D21*
X140200000Y-124900000D03*
%TD*%
D20*
%TO.C,JPC4*%
X138900000Y-129500000D03*
D21*
X140200000Y-129500000D03*
%TD*%
D20*
%TO.C,JPC3*%
X119400000Y-125000000D03*
D21*
X120700000Y-125000000D03*
%TD*%
D20*
%TO.C,JPC2*%
X114400000Y-124900000D03*
D21*
X115700000Y-124900000D03*
%TD*%
D20*
%TO.C,JPC1*%
X114350000Y-129600000D03*
D21*
X115650000Y-129600000D03*
%TD*%
D22*
%TO.C,J1*%
X161519999Y-141799999D03*
D23*
X161519999Y-139259999D03*
X158979999Y-141799999D03*
X158979999Y-139259999D03*
X156439999Y-141799999D03*
X156439999Y-139259999D03*
X153899999Y-141799999D03*
X153899999Y-139259999D03*
X151359999Y-141799999D03*
X151359999Y-139259999D03*
X148819999Y-141799999D03*
X148819999Y-139259999D03*
X146279999Y-141799999D03*
X146279999Y-139259999D03*
X143739999Y-141799999D03*
X143739999Y-139259999D03*
X141199999Y-141799999D03*
X141199999Y-139259999D03*
X138659999Y-141799999D03*
X138659999Y-139259999D03*
X136119999Y-141799999D03*
X136119999Y-139259999D03*
X133579999Y-141799999D03*
X133579999Y-139259999D03*
X131039999Y-141799999D03*
X131039999Y-139259999D03*
X128499999Y-141799999D03*
X128499999Y-139259999D03*
%TD*%
D14*
%TO.C,D6*%
X166524999Y-115274999D03*
D15*
X166525000Y-112735000D03*
%TD*%
%TO.C,D5*%
X166325000Y-99735000D03*
D14*
X166324999Y-102274999D03*
%TD*%
D15*
%TO.C,D4*%
X149335000Y-107275000D03*
D14*
X151874999Y-107274999D03*
%TD*%
%TO.C,D3*%
X138974999Y-107174999D03*
D15*
X136435000Y-107175000D03*
%TD*%
D14*
%TO.C,D2*%
X123674999Y-99624999D03*
D15*
X123675000Y-102165000D03*
%TD*%
D14*
%TO.C,D1*%
X123874999Y-112824999D03*
D15*
X123875000Y-115365000D03*
%TD*%
D24*
%TO.C,C9*%
X174250000Y-120200000D03*
X175800000Y-120200000D03*
%TD*%
%TO.C,C8*%
X169450000Y-120300000D03*
X171000000Y-120300000D03*
%TD*%
%TO.C,C6*%
X143650000Y-120100000D03*
X145200000Y-120100000D03*
%TD*%
%TO.C,C5*%
X138825000Y-120100000D03*
X140375000Y-120100000D03*
%TD*%
%TO.C,C3*%
X119250000Y-120200000D03*
X120800000Y-120200000D03*
%TD*%
%TO.C,C2*%
X114425000Y-120200000D03*
X115975000Y-120200000D03*
%TD*%
M02*
