%TF.GenerationSoftware,KiCad,Pcbnew,(7.0.0)*%
%TF.CreationDate,2024-03-24T15:02:48+02:00*%
%TF.ProjectId,MMPCB,4d4d5043-422e-46b6-9963-61645f706362,rev?*%
%TF.SameCoordinates,Original*%
%TF.FileFunction,Copper,L1,Top*%
%TF.FilePolarity,Positive*%
%FSLAX46Y46*%
G04 Gerber Fmt 4.6, Leading zero omitted, Abs format (unit mm)*
G04 Created by KiCad (PCBNEW (7.0.0)) date 2024-03-24 15:02:48*
%MOMM*%
%LPD*%
G01*
G04 APERTURE LIST*
G04 Aperture macros list*
%AMRoundRect*
0 Rectangle with rounded corners*
0 $1 Rounding radius*
0 $2 $3 $4 $5 $6 $7 $8 $9 X,Y pos of 4 corners*
0 Add a 4 corners polygon primitive as box body*
4,1,4,$2,$3,$4,$5,$6,$7,$8,$9,$2,$3,0*
0 Add four circle primitives for the rounded corners*
1,1,$1+$1,$2,$3*
1,1,$1+$1,$4,$5*
1,1,$1+$1,$6,$7*
1,1,$1+$1,$8,$9*
0 Add four rect primitives between the rounded corners*
20,1,$1+$1,$2,$3,$4,$5,0*
20,1,$1+$1,$4,$5,$6,$7,0*
20,1,$1+$1,$6,$7,$8,$9,0*
20,1,$1+$1,$8,$9,$2,$3,0*%
%AMFreePoly0*
4,1,19,0.550000,-0.750000,0.000000,-0.750000,0.000000,-0.744911,-0.071157,-0.744911,-0.207708,-0.704816,-0.327430,-0.627875,-0.420627,-0.520320,-0.479746,-0.390866,-0.500000,-0.250000,-0.500000,0.250000,-0.479746,0.390866,-0.420627,0.520320,-0.327430,0.627875,-0.207708,0.704816,-0.071157,0.744911,0.000000,0.744911,0.000000,0.750000,0.550000,0.750000,0.550000,-0.750000,0.550000,-0.750000,
$1*%
%AMFreePoly1*
4,1,19,0.000000,0.744911,0.071157,0.744911,0.207708,0.704816,0.327430,0.627875,0.420627,0.520320,0.479746,0.390866,0.500000,0.250000,0.500000,-0.250000,0.479746,-0.390866,0.420627,-0.520320,0.327430,-0.627875,0.207708,-0.704816,0.071157,-0.744911,0.000000,-0.744911,0.000000,-0.750000,-0.550000,-0.750000,-0.550000,0.750000,0.000000,0.750000,0.000000,0.744911,0.000000,0.744911,
$1*%
%AMFreePoly2*
4,1,19,0.500000,-0.750000,0.000000,-0.750000,0.000000,-0.744911,-0.071157,-0.744911,-0.207708,-0.704816,-0.327430,-0.627875,-0.420627,-0.520320,-0.479746,-0.390866,-0.500000,-0.250000,-0.500000,0.250000,-0.479746,0.390866,-0.420627,0.520320,-0.327430,0.627875,-0.207708,0.704816,-0.071157,0.744911,0.000000,0.744911,0.000000,0.750000,0.500000,0.750000,0.500000,-0.750000,0.500000,-0.750000,
$1*%
%AMFreePoly3*
4,1,19,0.000000,0.744911,0.071157,0.744911,0.207708,0.704816,0.327430,0.627875,0.420627,0.520320,0.479746,0.390866,0.500000,0.250000,0.500000,-0.250000,0.479746,-0.390866,0.420627,-0.520320,0.327430,-0.627875,0.207708,-0.704816,0.071157,-0.744911,0.000000,-0.744911,0.000000,-0.750000,-0.500000,-0.750000,-0.500000,0.750000,0.000000,0.750000,0.000000,0.744911,0.000000,0.744911,
$1*%
G04 Aperture macros list end*
%TA.AperFunction,SMDPad,CuDef*%
%ADD10C,1.500000*%
%TD*%
%TA.AperFunction,SMDPad,CuDef*%
%ADD11RoundRect,0.200000X-0.200000X-0.275000X0.200000X-0.275000X0.200000X0.275000X-0.200000X0.275000X0*%
%TD*%
%TA.AperFunction,ComponentPad*%
%ADD12R,1.800000X1.800000*%
%TD*%
%TA.AperFunction,ComponentPad*%
%ADD13C,1.800000*%
%TD*%
%TA.AperFunction,SMDPad,CuDef*%
%ADD14RoundRect,0.150000X-0.587500X-0.150000X0.587500X-0.150000X0.587500X0.150000X-0.587500X0.150000X0*%
%TD*%
%TA.AperFunction,SMDPad,CuDef*%
%ADD15FreePoly0,0.000000*%
%TD*%
%TA.AperFunction,SMDPad,CuDef*%
%ADD16R,1.000000X1.500000*%
%TD*%
%TA.AperFunction,SMDPad,CuDef*%
%ADD17FreePoly1,0.000000*%
%TD*%
%TA.AperFunction,SMDPad,CuDef*%
%ADD18FreePoly2,0.000000*%
%TD*%
%TA.AperFunction,SMDPad,CuDef*%
%ADD19FreePoly3,0.000000*%
%TD*%
%TA.AperFunction,ComponentPad*%
%ADD20R,1.700000X1.700000*%
%TD*%
%TA.AperFunction,ComponentPad*%
%ADD21O,1.700000X1.700000*%
%TD*%
%TA.AperFunction,SMDPad,CuDef*%
%ADD22RoundRect,0.225000X-0.225000X-0.250000X0.225000X-0.250000X0.225000X0.250000X-0.225000X0.250000X0*%
%TD*%
%TA.AperFunction,ViaPad*%
%ADD23C,0.800000*%
%TD*%
%TA.AperFunction,Conductor*%
%ADD24C,0.500000*%
%TD*%
G04 APERTURE END LIST*
D10*
%TO.P,TPS3,1,1*%
%TO.N,Analog8*%
X175000000Y-134000000D03*
%TD*%
%TO.P,TPS2,1,1*%
%TO.N,Analog11*%
X139300000Y-134300000D03*
%TD*%
%TO.P,TPS1,1,1*%
%TO.N,Analog15*%
X115000000Y-134000000D03*
%TD*%
%TO.P,TPE3,1,1*%
%TO.N,Net-(D5-K)*%
X160200000Y-114500000D03*
%TD*%
%TO.P,TPE2,1,1*%
%TO.N,Net-(D3-K)*%
X157400000Y-126300000D03*
%TD*%
%TO.P,TPE1,1,1*%
%TO.N,Net-(D1-K)*%
X132900000Y-126200000D03*
%TD*%
%TO.P,TPPWM7,1,1*%
%TO.N,PWM7*%
X127500000Y-129800000D03*
%TD*%
%TO.P,TPPWM4,1,1*%
%TO.N,PWM4*%
X151400000Y-129600000D03*
%TD*%
%TO.P,TPPWM1,1,1*%
%TO.N,PWM1*%
X164000000Y-129300000D03*
%TD*%
%TO.P,TPBATT1,1,1*%
%TO.N,BATT*%
X162100000Y-135100000D03*
%TD*%
%TO.P,TPA15,1,1*%
%TO.N,Analog15*%
X131000000Y-135200000D03*
%TD*%
%TO.P,TPA11,1,1*%
%TO.N,Analog11*%
X150900000Y-135200000D03*
%TD*%
%TO.P,TPA8,1,1*%
%TO.N,Analog8*%
X156700000Y-135200000D03*
%TD*%
%TO.P,TP5,1,1*%
%TO.N,Net-(D5-A)*%
X164800000Y-107800000D03*
%TD*%
%TO.P,TP3V3,1,1*%
%TO.N,3V3*%
X124900000Y-107300000D03*
%TD*%
%TO.P,TP3,1,1*%
%TO.N,Net-(D3-A)*%
X135400000Y-114800000D03*
%TD*%
%TO.P,TP1,1,1*%
%TO.N,Net-(D1-A)*%
X130800000Y-114800000D03*
%TD*%
D11*
%TO.P,RS3,1*%
%TO.N,Net-(JPRS3-A)*%
X168950000Y-133800000D03*
%TO.P,RS3,2*%
%TO.N,GND*%
X170600000Y-133800000D03*
%TD*%
%TO.P,RS2,1*%
%TO.N,Net-(JPRS2-A)*%
X144275000Y-134100000D03*
%TO.P,RS2,2*%
%TO.N,GND*%
X145925000Y-134100000D03*
%TD*%
%TO.P,RS1,1*%
%TO.N,Net-(JPRS1-A)*%
X119950000Y-133900000D03*
%TO.P,RS1,2*%
%TO.N,GND*%
X121600000Y-133900000D03*
%TD*%
%TO.P,RB3,1*%
%TO.N,Net-(JPRB3-A)*%
X163550000Y-120100000D03*
%TO.P,RB3,2*%
%TO.N,Net-(JPRB3-B)*%
X165200000Y-120100000D03*
%TD*%
%TO.P,RB2,1*%
%TO.N,Net-(JPRB2-A)*%
X149550000Y-120300000D03*
%TO.P,RB2,2*%
%TO.N,Net-(JPRB2-B)*%
X151200000Y-120300000D03*
%TD*%
%TO.P,RB1,1*%
%TO.N,Net-(JPRB1-A)*%
X125050000Y-120100000D03*
%TO.P,RB1,2*%
%TO.N,Net-(JPRB1-B)*%
X126700000Y-120100000D03*
%TD*%
%TO.P,R6,1*%
%TO.N,Net-(JPR6-A)*%
X158450000Y-109900000D03*
%TO.P,R6,2*%
%TO.N,Net-(D6-A)*%
X160100000Y-109900000D03*
%TD*%
%TO.P,R5,1*%
%TO.N,Net-(JPR5-A)*%
X158200000Y-101600000D03*
%TO.P,R5,2*%
%TO.N,Net-(D5-A)*%
X159850000Y-101600000D03*
%TD*%
%TO.P,R4,2*%
%TO.N,Net-(D4-A)*%
X148100000Y-115900000D03*
%TO.P,R4,1*%
%TO.N,Net-(JPR4-A)*%
X146450000Y-115900000D03*
%TD*%
%TO.P,R3,1*%
%TO.N,Net-(JPR3-A)*%
X140150000Y-115900000D03*
%TO.P,R3,2*%
%TO.N,Net-(D3-A)*%
X141800000Y-115900000D03*
%TD*%
%TO.P,R2,1*%
%TO.N,Net-(JPR2-A)*%
X129850000Y-101900000D03*
%TO.P,R2,2*%
%TO.N,Net-(D2-A)*%
X131500000Y-101900000D03*
%TD*%
%TO.P,R1,1*%
%TO.N,Net-(JPR1-A)*%
X129750000Y-110000000D03*
%TO.P,R1,2*%
%TO.N,Net-(D1-A)*%
X131400000Y-110000000D03*
%TD*%
D12*
%TO.P,Q6,1,C*%
%TO.N,3V3*%
X170074999Y-108749999D03*
D13*
%TO.P,Q6,2,E*%
%TO.N,Analog8*%
X170075000Y-106210000D03*
%TD*%
D12*
%TO.P,Q5,1,C*%
%TO.N,3V3*%
X145449999Y-103824999D03*
D13*
%TO.P,Q5,2,E*%
%TO.N,Analog11*%
X142910000Y-103825000D03*
%TD*%
D12*
%TO.P,Q4,1,C*%
%TO.N,3V3*%
X120324999Y-106249999D03*
D13*
%TO.P,Q4,2,E*%
%TO.N,Analog15*%
X120325000Y-108790000D03*
%TD*%
D14*
%TO.P,Q3,1,B*%
%TO.N,Net-(JPRB3-B)*%
X154025000Y-113050000D03*
%TO.P,Q3,2,E*%
%TO.N,GND*%
X154025000Y-114950000D03*
%TO.P,Q3,3,C*%
%TO.N,Net-(D5-K)*%
X155900000Y-114000000D03*
%TD*%
%TO.P,Q2,1,B*%
%TO.N,Net-(JPRB2-B)*%
X156425000Y-119750000D03*
%TO.P,Q2,2,E*%
%TO.N,GND*%
X156425000Y-121650000D03*
%TO.P,Q2,3,C*%
%TO.N,Net-(D3-K)*%
X158300000Y-120700000D03*
%TD*%
%TO.P,Q1,3,C*%
%TO.N,Net-(D1-K)*%
X134100000Y-120600000D03*
%TO.P,Q1,2,E*%
%TO.N,GND*%
X132225000Y-121550000D03*
%TO.P,Q1,1,B*%
%TO.N,Net-(JPRB1-B)*%
X132225000Y-119650000D03*
%TD*%
D15*
%TO.P,JPRS3,1,A*%
%TO.N,Net-(JPRS3-A)*%
X168500000Y-129600000D03*
D16*
%TO.P,JPRS3,2,C*%
%TO.N,Analog8*%
X169799999Y-129599999D03*
D17*
%TO.P,JPRS3,3,B*%
%TO.N,GND*%
X171100000Y-129600000D03*
%TD*%
D15*
%TO.P,JPRS2,1,A*%
%TO.N,Net-(JPRS2-A)*%
X143800000Y-129800000D03*
D16*
%TO.P,JPRS2,2,C*%
%TO.N,Analog11*%
X145099999Y-129799999D03*
D17*
%TO.P,JPRS2,3,B*%
%TO.N,GND*%
X146400000Y-129800000D03*
%TD*%
D15*
%TO.P,JPRS1,1,A*%
%TO.N,Net-(JPRS1-A)*%
X119400000Y-129700000D03*
D16*
%TO.P,JPRS1,2,C*%
%TO.N,Analog15*%
X120699999Y-129699999D03*
D17*
%TO.P,JPRS1,3,B*%
%TO.N,GND*%
X122000000Y-129700000D03*
%TD*%
%TO.P,JPRB3,3,B*%
%TO.N,Net-(JPRB3-B)*%
X165500000Y-124900000D03*
D16*
%TO.P,JPRB3,2,C*%
%TO.N,PWM1*%
X164199999Y-124899999D03*
D15*
%TO.P,JPRB3,1,A*%
%TO.N,Net-(JPRB3-A)*%
X162900000Y-124900000D03*
%TD*%
%TO.P,JPRB2,1,A*%
%TO.N,Net-(JPRB2-A)*%
X149000000Y-125000000D03*
D16*
%TO.P,JPRB2,2,C*%
%TO.N,PWM4*%
X150299999Y-124999999D03*
D17*
%TO.P,JPRB2,3,B*%
%TO.N,Net-(JPRB2-B)*%
X151600000Y-125000000D03*
%TD*%
D15*
%TO.P,JPRB1,1,A*%
%TO.N,Net-(JPRB1-A)*%
X124600000Y-125000000D03*
D16*
%TO.P,JPRB1,2,C*%
%TO.N,PWM7*%
X125899999Y-124999999D03*
D17*
%TO.P,JPRB1,3,B*%
%TO.N,Net-(JPRB1-B)*%
X127200000Y-125000000D03*
%TD*%
D15*
%TO.P,JPR6,1,A*%
%TO.N,Net-(JPR6-A)*%
X157900000Y-106200000D03*
D16*
%TO.P,JPR6,2,C*%
%TO.N,BATT*%
X159199999Y-106199999D03*
D17*
%TO.P,JPR6,3,B*%
%TO.N,Net-(D6-A)*%
X160500000Y-106200000D03*
%TD*%
D15*
%TO.P,JPR5,1,A*%
%TO.N,Net-(JPR5-A)*%
X157700000Y-98000000D03*
D16*
%TO.P,JPR5,2,C*%
%TO.N,BATT*%
X158999999Y-97999999D03*
D17*
%TO.P,JPR5,3,B*%
%TO.N,Net-(D5-A)*%
X160300000Y-98000000D03*
%TD*%
D15*
%TO.P,JPR4,1,A*%
%TO.N,Net-(JPR4-A)*%
X146000000Y-112300000D03*
D16*
%TO.P,JPR4,2,C*%
%TO.N,BATT*%
X147299999Y-112299999D03*
D17*
%TO.P,JPR4,3,B*%
%TO.N,Net-(D4-A)*%
X148600000Y-112300000D03*
%TD*%
D15*
%TO.P,JPR3,1,A*%
%TO.N,Net-(JPR3-A)*%
X139600000Y-112300000D03*
D16*
%TO.P,JPR3,2,C*%
%TO.N,BATT*%
X140899999Y-112299999D03*
D17*
%TO.P,JPR3,3,B*%
%TO.N,Net-(D3-A)*%
X142200000Y-112300000D03*
%TD*%
D15*
%TO.P,JPR2,1,A*%
%TO.N,Net-(JPR2-A)*%
X129400000Y-98300000D03*
D16*
%TO.P,JPR2,2,C*%
%TO.N,BATT*%
X130699999Y-98299999D03*
D17*
%TO.P,JPR2,3,B*%
%TO.N,Net-(D2-A)*%
X132000000Y-98300000D03*
%TD*%
D15*
%TO.P,JPR1,1,A*%
%TO.N,Net-(JPR1-A)*%
X129400000Y-106400000D03*
D16*
%TO.P,JPR1,2,C*%
%TO.N,BATT*%
X130699999Y-106399999D03*
D17*
%TO.P,JPR1,3,B*%
%TO.N,Net-(D1-A)*%
X132000000Y-106400000D03*
%TD*%
D18*
%TO.P,JPC9,1,A*%
%TO.N,Analog8*%
X174350000Y-125000000D03*
D19*
%TO.P,JPC9,2,B*%
%TO.N,Net-(JPC9-B)*%
X175650000Y-125000000D03*
%TD*%
D18*
%TO.P,JPC8,1,A*%
%TO.N,Analog8*%
X169500000Y-125000000D03*
D19*
%TO.P,JPC8,2,B*%
%TO.N,Net-(JPC8-B)*%
X170800000Y-125000000D03*
%TD*%
D18*
%TO.P,JPC7,1,A*%
%TO.N,Analog8*%
X174350000Y-129600000D03*
D19*
%TO.P,JPC7,2,B*%
%TO.N,GND*%
X175650000Y-129600000D03*
%TD*%
D18*
%TO.P,JPC6,1,A*%
%TO.N,Analog11*%
X143600000Y-124900000D03*
D19*
%TO.P,JPC6,2,B*%
%TO.N,Net-(JPC6-B)*%
X144900000Y-124900000D03*
%TD*%
D18*
%TO.P,JPC5,1,A*%
%TO.N,Analog11*%
X138900000Y-124900000D03*
D19*
%TO.P,JPC5,2,B*%
%TO.N,Net-(JPC5-B)*%
X140200000Y-124900000D03*
%TD*%
D18*
%TO.P,JPC4,1,A*%
%TO.N,Analog11*%
X138900000Y-129500000D03*
D19*
%TO.P,JPC4,2,B*%
%TO.N,GND*%
X140200000Y-129500000D03*
%TD*%
D18*
%TO.P,JPC3,1,A*%
%TO.N,Analog15*%
X119400000Y-125000000D03*
D19*
%TO.P,JPC3,2,B*%
%TO.N,Net-(JPC3-B)*%
X120700000Y-125000000D03*
%TD*%
D18*
%TO.P,JPC2,1,A*%
%TO.N,Analog15*%
X114400000Y-124900000D03*
D19*
%TO.P,JPC2,2,B*%
%TO.N,Net-(JPC2-B)*%
X115700000Y-124900000D03*
%TD*%
D18*
%TO.P,JPC1,1,A*%
%TO.N,Analog15*%
X114350000Y-129600000D03*
D19*
%TO.P,JPC1,2,B*%
%TO.N,GND*%
X115650000Y-129600000D03*
%TD*%
D20*
%TO.P,J1,1,Pin_1*%
%TO.N,RESV3*%
X161519999Y-141799999D03*
D21*
%TO.P,J1,2,Pin_2*%
%TO.N,3V3*%
X161519999Y-139259999D03*
%TO.P,J1,3,Pin_3*%
%TO.N,GND*%
X158979999Y-141799999D03*
%TO.P,J1,4,Pin_4*%
%TO.N,BATT*%
X158979999Y-139259999D03*
%TO.P,J1,5,Pin_5*%
%TO.N,Analog8*%
X156439999Y-141799999D03*
%TO.P,J1,6,Pin_6*%
%TO.N,RESV2*%
X156439999Y-139259999D03*
%TO.P,J1,7,Pin_7*%
%TO.N,Analog9*%
X153899999Y-141799999D03*
%TO.P,J1,8,Pin_8*%
%TO.N,PWM1*%
X153899999Y-139259999D03*
%TO.P,J1,9,Pin_9*%
%TO.N,GND*%
X151359999Y-141799999D03*
%TO.P,J1,10,Pin_10*%
%TO.N,PWM2*%
X151359999Y-139259999D03*
%TO.P,J1,11,Pin_11*%
%TO.N,Analog10*%
X148819999Y-141799999D03*
%TO.P,J1,12,Pin_12*%
%TO.N,PWM3*%
X148819999Y-139259999D03*
%TO.P,J1,13,Pin_13*%
%TO.N,Analog11*%
X146279999Y-141799999D03*
%TO.P,J1,14,Pin_14*%
%TO.N,PWM4*%
X146279999Y-139259999D03*
%TO.P,J1,15,Pin_15*%
%TO.N,GND*%
X143739999Y-141799999D03*
%TO.P,J1,16,Pin_16*%
%TO.N,PWM5*%
X143739999Y-139259999D03*
%TO.P,J1,17,Pin_17*%
%TO.N,Analog12*%
X141199999Y-141799999D03*
%TO.P,J1,18,Pin_18*%
%TO.N,PWM6*%
X141199999Y-139259999D03*
%TO.P,J1,19,Pin_19*%
%TO.N,Analog13*%
X138659999Y-141799999D03*
%TO.P,J1,20,Pin_20*%
%TO.N,PWM7*%
X138659999Y-139259999D03*
%TO.P,J1,21,Pin_21*%
%TO.N,GND*%
X136119999Y-141799999D03*
%TO.P,J1,22,Pin_22*%
%TO.N,PWM8*%
X136119999Y-139259999D03*
%TO.P,J1,23,Pin_23*%
%TO.N,Analog14*%
X133579999Y-141799999D03*
%TO.P,J1,24,Pin_24*%
%TO.N,RESV1*%
X133579999Y-139259999D03*
%TO.P,J1,25,Pin_25*%
%TO.N,Analog15*%
X131039999Y-141799999D03*
%TO.P,J1,26,Pin_26*%
%TO.N,BATT*%
X131039999Y-139259999D03*
%TO.P,J1,27,Pin_27*%
%TO.N,GND*%
X128499999Y-141799999D03*
%TO.P,J1,28,Pin_28*%
%TO.N,3V3*%
X128499999Y-139259999D03*
%TD*%
D12*
%TO.P,D6,1,K*%
%TO.N,Net-(D5-K)*%
X166524999Y-115274999D03*
D13*
%TO.P,D6,2,A*%
%TO.N,Net-(D6-A)*%
X166525000Y-112735000D03*
%TD*%
%TO.P,D5,2,A*%
%TO.N,Net-(D5-A)*%
X166325000Y-99735000D03*
D12*
%TO.P,D5,1,K*%
%TO.N,Net-(D5-K)*%
X166324999Y-102274999D03*
%TD*%
D13*
%TO.P,D4,2,A*%
%TO.N,Net-(D4-A)*%
X149335000Y-107275000D03*
D12*
%TO.P,D4,1,K*%
%TO.N,Net-(D3-K)*%
X151874999Y-107274999D03*
%TD*%
%TO.P,D3,1,K*%
%TO.N,Net-(D3-K)*%
X138974999Y-107174999D03*
D13*
%TO.P,D3,2,A*%
%TO.N,Net-(D3-A)*%
X136435000Y-107175000D03*
%TD*%
D12*
%TO.P,D2,1,K*%
%TO.N,Net-(D1-K)*%
X123674999Y-99624999D03*
D13*
%TO.P,D2,2,A*%
%TO.N,Net-(D2-A)*%
X123675000Y-102165000D03*
%TD*%
D12*
%TO.P,D1,1,K*%
%TO.N,Net-(D1-K)*%
X123874999Y-112824999D03*
D13*
%TO.P,D1,2,A*%
%TO.N,Net-(D1-A)*%
X123875000Y-115365000D03*
%TD*%
D22*
%TO.P,C9,1*%
%TO.N,Net-(JPC9-B)*%
X174250000Y-120200000D03*
%TO.P,C9,2*%
%TO.N,GND*%
X175800000Y-120200000D03*
%TD*%
%TO.P,C8,1*%
%TO.N,Net-(JPC8-B)*%
X169450000Y-120300000D03*
%TO.P,C8,2*%
%TO.N,GND*%
X171000000Y-120300000D03*
%TD*%
%TO.P,C6,1*%
%TO.N,Net-(JPC6-B)*%
X143650000Y-120100000D03*
%TO.P,C6,2*%
%TO.N,GND*%
X145200000Y-120100000D03*
%TD*%
%TO.P,C5,1*%
%TO.N,Net-(JPC5-B)*%
X138825000Y-120100000D03*
%TO.P,C5,2*%
%TO.N,GND*%
X140375000Y-120100000D03*
%TD*%
%TO.P,C3,1*%
%TO.N,Net-(JPC3-B)*%
X119250000Y-120200000D03*
%TO.P,C3,2*%
%TO.N,GND*%
X120800000Y-120200000D03*
%TD*%
%TO.P,C2,1*%
%TO.N,Net-(JPC2-B)*%
X114425000Y-120200000D03*
%TO.P,C2,2*%
%TO.N,GND*%
X115975000Y-120200000D03*
%TD*%
D23*
%TO.N,PWM7*%
X129119000Y-130472600D03*
%TO.N,PWM4*%
X151252500Y-130969800D03*
%TO.N,PWM1*%
X158956700Y-134203300D03*
%TO.N,Net-(D3-K)*%
X154997300Y-116856900D03*
%TO.N,Analog15*%
X128108200Y-135495000D03*
%TO.N,Analog11*%
X142150000Y-125168300D03*
%TO.N,Analog8*%
X162169300Y-137336300D03*
%TO.N,BATT*%
X160897500Y-136056900D03*
%TD*%
D24*
%TO.N,Net-(JPRS3-A)*%
X168500000Y-133350000D02*
X168500000Y-129600000D01*
X168950000Y-133800000D02*
X168500000Y-133350000D01*
%TO.N,Net-(JPRS2-A)*%
X143800000Y-133625000D02*
X144275000Y-134100000D01*
X143800000Y-129800000D02*
X143800000Y-133625000D01*
%TO.N,Net-(JPRB3-B)*%
X165500000Y-120400000D02*
X165200000Y-120100000D01*
X165500000Y-124900000D02*
X165500000Y-120400000D01*
X162812300Y-117712300D02*
X165200000Y-120100000D01*
X161225400Y-117712300D02*
X162812300Y-117712300D01*
X156563100Y-113050000D02*
X161225400Y-117712300D01*
X154025000Y-113050000D02*
X156563100Y-113050000D01*
%TO.N,Net-(JPRB3-A)*%
X162900000Y-120750000D02*
X163550000Y-120100000D01*
X162900000Y-124900000D02*
X162900000Y-120750000D01*
%TO.N,Net-(JPRB2-B)*%
X155475000Y-120700000D02*
X156425000Y-119750000D01*
X151600000Y-120700000D02*
X155475000Y-120700000D01*
X151600000Y-125000000D02*
X151600000Y-120700000D01*
X151600000Y-120700000D02*
X151200000Y-120300000D01*
%TO.N,Net-(JPRB2-A)*%
X149000000Y-120850000D02*
X149550000Y-120300000D01*
X149000000Y-125000000D02*
X149000000Y-120850000D01*
%TO.N,Net-(JPR6-A)*%
X157900000Y-109350000D02*
X158450000Y-109900000D01*
X157900000Y-106200000D02*
X157900000Y-109350000D01*
%TO.N,Net-(JPR5-A)*%
X157700000Y-101100000D02*
X158200000Y-101600000D01*
X157700000Y-98000000D02*
X157700000Y-101100000D01*
%TO.N,Net-(JPR4-A)*%
X146000000Y-115450000D02*
X146450000Y-115900000D01*
X146000000Y-112300000D02*
X146000000Y-115450000D01*
%TO.N,Net-(JPR3-A)*%
X139600000Y-115350000D02*
X140150000Y-115900000D01*
X139600000Y-112300000D02*
X139600000Y-115350000D01*
%TO.N,PWM7*%
X125900000Y-128200000D02*
X125900000Y-125000000D01*
X127500000Y-129800000D02*
X125900000Y-128200000D01*
X128172600Y-130472600D02*
X129119000Y-130472600D01*
X127500000Y-129800000D02*
X128172600Y-130472600D01*
%TO.N,PWM4*%
X151400000Y-130822300D02*
X151400000Y-129600000D01*
X151252500Y-130969800D02*
X151400000Y-130822300D01*
X150300000Y-128500000D02*
X150300000Y-125000000D01*
X151400000Y-129600000D02*
X150300000Y-128500000D01*
%TO.N,PWM1*%
X164000000Y-126350000D02*
X164200000Y-126150000D01*
X164000000Y-129300000D02*
X164000000Y-126350000D01*
X164200000Y-124900000D02*
X164200000Y-126150000D01*
X163860000Y-129300000D02*
X158956700Y-134203300D01*
X164000000Y-129300000D02*
X163860000Y-129300000D01*
%TO.N,Net-(D6-A)*%
X160500000Y-109900000D02*
X160100000Y-109900000D01*
X163335000Y-112735000D02*
X160500000Y-109900000D01*
X166525000Y-112735000D02*
X163335000Y-112735000D01*
X160500000Y-109900000D02*
X160500000Y-106200000D01*
%TO.N,Net-(D5-A)*%
X164800000Y-101260000D02*
X164800000Y-101600000D01*
X166325000Y-99735000D02*
X164800000Y-101260000D01*
X164800000Y-101600000D02*
X164800000Y-107800000D01*
X160300000Y-101600000D02*
X160300000Y-98000000D01*
X164800000Y-101600000D02*
X160300000Y-101600000D01*
X160300000Y-101600000D02*
X159850000Y-101600000D01*
%TO.N,Net-(D5-K)*%
X153319000Y-114000000D02*
X155900000Y-114000000D01*
X152794000Y-113475000D02*
X153319000Y-114000000D01*
X152794000Y-112625800D02*
X152794000Y-113475000D01*
X153164700Y-112255100D02*
X152794000Y-112625800D01*
X157955100Y-112255100D02*
X153164700Y-112255100D01*
X160200000Y-114500000D02*
X157955100Y-112255100D01*
X160975000Y-115275000D02*
X160200000Y-114500000D01*
X166525000Y-115275000D02*
X160975000Y-115275000D01*
%TO.N,Net-(D4-A)*%
X149335000Y-111565000D02*
X148600000Y-112300000D01*
X149335000Y-107275000D02*
X149335000Y-111565000D01*
X148600000Y-115400000D02*
X148100000Y-115900000D01*
X148600000Y-112300000D02*
X148600000Y-115400000D01*
%TO.N,Net-(D3-A)*%
X136435000Y-107175000D02*
X136435000Y-113765000D01*
X136435000Y-113765000D02*
X135400000Y-114800000D01*
X140866700Y-116833300D02*
X141800000Y-115900000D01*
X139503300Y-116833300D02*
X140866700Y-116833300D01*
X136435000Y-113765000D02*
X139503300Y-116833300D01*
X142200000Y-115500000D02*
X142200000Y-112300000D01*
X141800000Y-115900000D02*
X142200000Y-115500000D01*
%TO.N,Net-(D3-K)*%
X158300000Y-125400000D02*
X158300000Y-120700000D01*
X157400000Y-126300000D02*
X158300000Y-125400000D01*
X155142400Y-116856900D02*
X154997300Y-116856900D01*
X158300000Y-120014500D02*
X155142400Y-116856900D01*
X158300000Y-120700000D02*
X158300000Y-120014500D01*
%TO.N,Net-(JPC9-B)*%
X175650000Y-121600000D02*
X175650000Y-125000000D01*
X174250000Y-120200000D02*
X175650000Y-121600000D01*
%TO.N,Net-(JPC8-B)*%
X170800000Y-121650000D02*
X170800000Y-125000000D01*
X169450000Y-120300000D02*
X170800000Y-121650000D01*
%TO.N,Net-(JPC6-B)*%
X144900000Y-121350000D02*
X144900000Y-124900000D01*
X143650000Y-120100000D02*
X144900000Y-121350000D01*
%TO.N,Net-(JPC5-B)*%
X140200000Y-121475000D02*
X140200000Y-124900000D01*
X138825000Y-120100000D02*
X140200000Y-121475000D01*
%TO.N,Net-(JPRS1-A)*%
X119400000Y-133350000D02*
X119400000Y-129700000D01*
X119950000Y-133900000D02*
X119400000Y-133350000D01*
%TO.N,Net-(JPRB1-B)*%
X131275000Y-120600000D02*
X127200000Y-120600000D01*
X132225000Y-119650000D02*
X131275000Y-120600000D01*
X127200000Y-125000000D02*
X127200000Y-120600000D01*
X127200000Y-120600000D02*
X126700000Y-120100000D01*
%TO.N,Net-(JPRB1-A)*%
X124600000Y-120550000D02*
X125050000Y-120100000D01*
X124600000Y-125000000D02*
X124600000Y-120550000D01*
%TO.N,Net-(JPR2-A)*%
X129400000Y-101450000D02*
X129850000Y-101900000D01*
X129400000Y-98300000D02*
X129400000Y-101450000D01*
%TO.N,Net-(JPR1-A)*%
X129400000Y-109650000D02*
X129750000Y-110000000D01*
X129400000Y-106400000D02*
X129400000Y-109650000D01*
%TO.N,Analog15*%
X114400000Y-125489100D02*
X114400000Y-124900000D01*
X115058900Y-126148000D02*
X114400000Y-125489100D01*
X113506700Y-124006700D02*
X114400000Y-124900000D01*
X113506700Y-115608300D02*
X113506700Y-124006700D01*
X120325000Y-108790000D02*
X113506700Y-115608300D01*
X114350000Y-126856900D02*
X114350000Y-129600000D01*
X115058900Y-126148000D02*
X114350000Y-126856900D01*
X120700000Y-129700000D02*
X120700000Y-128450000D01*
X115000000Y-130863100D02*
X115000000Y-134000000D01*
X114350000Y-130213100D02*
X114350000Y-129600000D01*
X115000000Y-130863100D02*
X114350000Y-130213100D01*
X118712600Y-128450000D02*
X120700000Y-128450000D01*
X116299500Y-130863100D02*
X118712600Y-128450000D01*
X115000000Y-130863100D02*
X116299500Y-130863100D01*
X118252000Y-126148000D02*
X115058900Y-126148000D01*
X119400000Y-125000000D02*
X118252000Y-126148000D01*
X130705000Y-135495000D02*
X131000000Y-135200000D01*
X128108200Y-135495000D02*
X130705000Y-135495000D01*
%TO.N,Analog11*%
X140200000Y-135200000D02*
X139300000Y-134300000D01*
X150900000Y-135200000D02*
X140200000Y-135200000D01*
X143331700Y-125168300D02*
X143600000Y-124900000D01*
X142150000Y-125168300D02*
X143331700Y-125168300D01*
X141216400Y-126101900D02*
X139463800Y-126101900D01*
X142150000Y-125168300D02*
X141216400Y-126101900D01*
X138900000Y-125538100D02*
X138900000Y-124900000D01*
X139463800Y-126101900D02*
X138900000Y-125538100D01*
X138900000Y-126665700D02*
X138900000Y-129500000D01*
X139463800Y-126101900D02*
X138900000Y-126665700D01*
X145100000Y-129800000D02*
X145100000Y-128550000D01*
X139300000Y-130701900D02*
X139300000Y-134300000D01*
X141296300Y-130701900D02*
X139300000Y-130701900D01*
X143448200Y-128550000D02*
X141296300Y-130701900D01*
X145100000Y-128550000D02*
X143448200Y-128550000D01*
X138900000Y-130301900D02*
X138900000Y-129500000D01*
X139300000Y-130701900D02*
X138900000Y-130301900D01*
%TO.N,Analog8*%
X174350000Y-133350000D02*
X174350000Y-129600000D01*
X175000000Y-134000000D02*
X174350000Y-133350000D01*
X169800000Y-129600000D02*
X169800000Y-128350000D01*
X168535800Y-124035800D02*
X169500000Y-125000000D01*
X168535800Y-119677400D02*
X168535800Y-124035800D01*
X171426900Y-116786300D02*
X168535800Y-119677400D01*
X171426900Y-107561900D02*
X171426900Y-116786300D01*
X170075000Y-106210000D02*
X171426900Y-107561900D01*
X173100000Y-126250000D02*
X174350000Y-125000000D01*
X173100000Y-128350000D02*
X173100000Y-126250000D01*
X169800000Y-128350000D02*
X173100000Y-128350000D01*
X173100000Y-128350000D02*
X174350000Y-129600000D01*
X169800000Y-128350000D02*
X169500000Y-128050000D01*
X169500000Y-128050000D02*
X169500000Y-125000000D01*
X162169300Y-136946600D02*
X162169300Y-137336300D01*
X167531600Y-131584300D02*
X162169300Y-136946600D01*
X167531600Y-128970000D02*
X167531600Y-131584300D01*
X168451600Y-128050000D02*
X167531600Y-128970000D01*
X169500000Y-128050000D02*
X168451600Y-128050000D01*
X158750800Y-135200000D02*
X156700000Y-135200000D01*
X160497400Y-136946600D02*
X158750800Y-135200000D01*
X162169300Y-136946600D02*
X160497400Y-136946600D01*
%TO.N,BATT*%
X159000000Y-98000000D02*
X159000000Y-96750000D01*
X130700000Y-106400000D02*
X130700000Y-105150000D01*
X130700000Y-98300000D02*
X130700000Y-99550000D01*
X132366300Y-101216300D02*
X130700000Y-99550000D01*
X132366300Y-104396500D02*
X132366300Y-101216300D01*
X131453500Y-104396500D02*
X130700000Y-105150000D01*
X132366300Y-104396500D02*
X131453500Y-104396500D01*
X147300000Y-112300000D02*
X147300000Y-111050000D01*
X159200000Y-106200000D02*
X159200000Y-104999600D01*
X140428800Y-104396500D02*
X132366300Y-104396500D01*
X148055100Y-96750000D02*
X159000000Y-96750000D01*
X140428800Y-104376300D02*
X148055100Y-96750000D01*
X140428800Y-104396500D02*
X140428800Y-104376300D01*
X147300000Y-111050000D02*
X147300000Y-107392500D01*
X159198500Y-104998100D02*
X159200000Y-104999600D01*
X149694400Y-104998100D02*
X159198500Y-104998100D01*
X147300000Y-107392500D02*
X149694400Y-104998100D01*
X140900000Y-109917300D02*
X140900000Y-112300000D01*
X143424800Y-107392500D02*
X140900000Y-109917300D01*
X147300000Y-107392500D02*
X143424800Y-107392500D01*
X143424800Y-107392500D02*
X140428800Y-104396500D01*
X165723600Y-131476400D02*
X162100000Y-135100000D01*
X165723600Y-127122900D02*
X165723600Y-131476400D01*
X167460000Y-125386500D02*
X165723600Y-127122900D01*
X167460000Y-117299100D02*
X167460000Y-125386500D01*
X167883800Y-116875300D02*
X167460000Y-117299100D01*
X167883800Y-112136600D02*
X167883800Y-116875300D01*
X166634800Y-110887600D02*
X167883800Y-112136600D01*
X165149800Y-110887600D02*
X166634800Y-110887600D01*
X161601300Y-107339100D02*
X165149800Y-110887600D01*
X161601300Y-105693200D02*
X161601300Y-107339100D01*
X160906200Y-104998100D02*
X161601300Y-105693200D01*
X159201500Y-104998100D02*
X160906200Y-104998100D01*
X159200000Y-104999600D02*
X159201500Y-104998100D01*
X161854400Y-135100000D02*
X162100000Y-135100000D01*
X160897500Y-136056900D02*
X161854400Y-135100000D01*
X157671600Y-137951600D02*
X158980000Y-139260000D01*
X132348400Y-137951600D02*
X157671600Y-137951600D01*
X131040000Y-139260000D02*
X132348400Y-137951600D01*
%TO.N,3V3*%
X123850000Y-106250000D02*
X124900000Y-107300000D01*
X120325000Y-106250000D02*
X123850000Y-106250000D01*
X168418700Y-109006300D02*
X168675000Y-108750000D01*
X164285000Y-109006300D02*
X168418700Y-109006300D01*
X162703000Y-107424300D02*
X164285000Y-109006300D01*
X162703000Y-105786000D02*
X162703000Y-107424300D01*
X160742000Y-103825000D02*
X162703000Y-105786000D01*
X145450000Y-103825000D02*
X160742000Y-103825000D01*
X170075000Y-108750000D02*
X168675000Y-108750000D01*
X159503900Y-137243900D02*
X161520000Y-139260000D01*
X130516100Y-137243900D02*
X159503900Y-137243900D01*
X128500000Y-139260000D02*
X130516100Y-137243900D01*
%TO.N,Net-(D2-A)*%
X123675000Y-102165000D02*
X128388100Y-102165000D01*
X130565000Y-102835000D02*
X131500000Y-101900000D01*
X129058100Y-102835000D02*
X130565000Y-102835000D01*
X128388100Y-102165000D02*
X129058100Y-102835000D01*
X128388100Y-97655600D02*
X128388100Y-102165000D01*
X128956800Y-97086900D02*
X128388100Y-97655600D01*
X131387100Y-97086900D02*
X128956800Y-97086900D01*
X132000000Y-97699800D02*
X131387100Y-97086900D01*
X132000000Y-98300000D02*
X132000000Y-97699800D01*
%TO.N,Net-(JPC3-B)*%
X120700000Y-121650000D02*
X120700000Y-125000000D01*
X119250000Y-120200000D02*
X120700000Y-121650000D01*
%TO.N,Net-(D1-A)*%
X132000000Y-109400000D02*
X131400000Y-110000000D01*
X132000000Y-106400000D02*
X132000000Y-109400000D01*
X130235000Y-115365000D02*
X130800000Y-114800000D01*
X123875000Y-115365000D02*
X130235000Y-115365000D01*
X131400000Y-114200000D02*
X131400000Y-110000000D01*
X130800000Y-114800000D02*
X131400000Y-114200000D01*
%TO.N,GND*%
X151360000Y-141800000D02*
X151360000Y-143101900D01*
X136120000Y-141800000D02*
X136120000Y-143101900D01*
X129801900Y-143101900D02*
X128500000Y-141800000D01*
X136120000Y-143101900D02*
X129801900Y-143101900D01*
X143740000Y-141800000D02*
X143740000Y-143101900D01*
X151360000Y-143101900D02*
X143740000Y-143101900D01*
X143740000Y-143101900D02*
X136120000Y-143101900D01*
X139413500Y-119138500D02*
X140375000Y-120100000D01*
X138294300Y-119138500D02*
X139413500Y-119138500D01*
X137900400Y-119532400D02*
X138294300Y-119138500D01*
X137900400Y-122910500D02*
X137900400Y-119532400D01*
X133406800Y-127404100D02*
X137900400Y-122910500D01*
X131651400Y-127404100D02*
X133406800Y-127404100D01*
X131651400Y-122123600D02*
X131651400Y-127404100D01*
X132225000Y-121550000D02*
X131651400Y-122123600D01*
X176216900Y-130166900D02*
X175650000Y-129600000D01*
X176216900Y-134560500D02*
X176216900Y-130166900D01*
X175558400Y-135219000D02*
X176216900Y-134560500D01*
X173019000Y-135219000D02*
X175558400Y-135219000D01*
X171100000Y-133300000D02*
X173019000Y-135219000D01*
X171100000Y-129600000D02*
X171100000Y-133300000D01*
X171100000Y-133300000D02*
X170600000Y-133800000D01*
X176601900Y-121001900D02*
X175800000Y-120200000D01*
X176601900Y-128648100D02*
X176601900Y-121001900D01*
X175650000Y-129600000D02*
X176601900Y-128648100D01*
X174867500Y-119267500D02*
X175800000Y-120200000D01*
X172032500Y-119267500D02*
X174867500Y-119267500D01*
X171000000Y-120300000D02*
X172032500Y-119267500D01*
X151599900Y-131847700D02*
X146400000Y-131847700D01*
X152816000Y-130631600D02*
X151599900Y-131847700D01*
X152816000Y-125259000D02*
X152816000Y-130631600D01*
X156425000Y-121650000D02*
X152816000Y-125259000D01*
X146400000Y-129800000D02*
X146400000Y-131847700D01*
X146400000Y-133625000D02*
X145925000Y-134100000D01*
X146400000Y-131847700D02*
X146400000Y-133625000D01*
X141852200Y-127847800D02*
X145448300Y-127847800D01*
X140200000Y-129500000D02*
X141852200Y-127847800D01*
X146400000Y-128799500D02*
X146400000Y-129800000D01*
X145448300Y-127847800D02*
X146400000Y-128799500D01*
X144240500Y-119140500D02*
X145200000Y-120100000D01*
X141334500Y-119140500D02*
X144240500Y-119140500D01*
X140375000Y-120100000D02*
X141334500Y-119140500D01*
X151722000Y-114950000D02*
X154025000Y-114950000D01*
X145886000Y-120786000D02*
X151722000Y-114950000D01*
X145200000Y-120100000D02*
X145886000Y-120786000D01*
X145886000Y-127410100D02*
X145448300Y-127847800D01*
X145886000Y-120786000D02*
X145886000Y-127410100D01*
X119851600Y-119251600D02*
X120800000Y-120200000D01*
X116923400Y-119251600D02*
X119851600Y-119251600D01*
X115975000Y-120200000D02*
X116923400Y-119251600D01*
X121668300Y-127063300D02*
X121007000Y-127724600D01*
X121668300Y-121068300D02*
X121668300Y-127063300D01*
X120800000Y-120200000D02*
X121668300Y-121068300D01*
X117525400Y-127724600D02*
X115650000Y-129600000D01*
X121007000Y-127724600D02*
X117525400Y-127724600D01*
X157678100Y-143101900D02*
X158980000Y-141800000D01*
X151360000Y-143101900D02*
X157678100Y-143101900D01*
X168705800Y-135694200D02*
X170600000Y-133800000D01*
X165805500Y-135694200D02*
X168705800Y-135694200D01*
X164461800Y-137037900D02*
X165805500Y-135694200D01*
X164461800Y-141200100D02*
X164461800Y-137037900D01*
X162560000Y-143101900D02*
X164461800Y-141200100D01*
X160281900Y-143101900D02*
X162560000Y-143101900D01*
X158980000Y-141800000D02*
X160281900Y-143101900D01*
X122000000Y-128717600D02*
X122000000Y-129700000D01*
X121007000Y-127724600D02*
X122000000Y-128717600D01*
X122000000Y-129700000D02*
X122000000Y-133500000D01*
X122000000Y-133500000D02*
X121600000Y-133900000D01*
X122099400Y-133599400D02*
X122000000Y-133500000D01*
X127197000Y-133599400D02*
X122099400Y-133599400D01*
X127197000Y-140497000D02*
X127197000Y-133599400D01*
X128500000Y-141800000D02*
X127197000Y-140497000D01*
X131651400Y-129145000D02*
X131651400Y-127404100D01*
X127197000Y-133599400D02*
X131651400Y-129145000D01*
%TO.N,Net-(JPC2-B)*%
X115700000Y-121475000D02*
X115700000Y-124900000D01*
X114425000Y-120200000D02*
X115700000Y-121475000D01*
%TO.N,Net-(D1-K)*%
X134100000Y-125000000D02*
X132900000Y-126200000D01*
X134100000Y-120600000D02*
X134100000Y-125000000D01*
X134100000Y-119877400D02*
X134100000Y-120600000D01*
X132895900Y-118673300D02*
X134100000Y-119877400D01*
X125261300Y-118673300D02*
X132895900Y-118673300D01*
X122509600Y-115921600D02*
X125261300Y-118673300D01*
X122509600Y-114190400D02*
X122509600Y-115921600D01*
X123875000Y-112825000D02*
X122509600Y-114190400D01*
%TD*%
M02*
