M48
; DRILL file {KiCad (7.0.0)} date Sun Mar 24 15:02:49 2024
; FORMAT={-:-/ absolute / inch / decimal}
; #@! TF.CreationDate,2024-03-24T15:02:49+02:00
; #@! TF.GenerationSoftware,Kicad,Pcbnew,(7.0.0)
; #@! TF.FileFunction,Plated,1,2,PTH
FMAT,2
INCH
; #@! TA.AperFunction,Plated,PTH,ViaDrill
T1C0.0157
; #@! TA.AperFunction,Plated,PTH,ComponentDrill
T2C0.0354
; #@! TA.AperFunction,Plated,PTH,ComponentDrill
T3C0.0394
%
G90
G05
T1
X5.0436Y-5.3344
X5.0834Y-5.1367
X5.5965Y-4.9279
X5.9548Y-5.1563
X6.1023Y-4.6007
X6.2581Y-5.2836
X6.3345Y-5.3566
X6.3846Y-5.4069
T2
X4.7372Y-4.1831
X4.7372Y-4.2831
X4.8691Y-3.9222
X4.8691Y-4.0222
X4.877Y-4.4419
X4.877Y-4.5419
X5.3715Y-4.2195
X5.4715Y-4.2195
X5.6264Y-4.0876
X5.7264Y-4.0876
X5.8793Y-4.2234
X5.9793Y-4.2234
X6.5482Y-3.9266
X6.5482Y-4.0266
X6.5561Y-4.4384
X6.5561Y-4.5384
X6.6959Y-4.1815
X6.6959Y-4.2815
T3
X5.0591Y-5.4827
X5.0591Y-5.5827
X5.1591Y-5.4827
X5.1591Y-5.5827
X5.2591Y-5.4827
X5.2591Y-5.5827
X5.3591Y-5.4827
X5.3591Y-5.5827
X5.4591Y-5.4827
X5.4591Y-5.5827
X5.5591Y-5.4827
X5.5591Y-5.5827
X5.6591Y-5.4827
X5.6591Y-5.5827
X5.7591Y-5.4827
X5.7591Y-5.5827
X5.8591Y-5.4827
X5.8591Y-5.5827
X5.9591Y-5.4827
X5.9591Y-5.5827
X6.0591Y-5.4827
X6.0591Y-5.5827
X6.1591Y-5.4827
X6.1591Y-5.5827
X6.2591Y-5.4827
X6.2591Y-5.5827
X6.3591Y-5.4827
X6.3591Y-5.5827
T0
M30
