%TF.GenerationSoftware,KiCad,Pcbnew,(7.0.0)*%
%TF.CreationDate,2024-03-24T15:02:48+02:00*%
%TF.ProjectId,MMPCB,4d4d5043-422e-46b6-9963-61645f706362,rev?*%
%TF.SameCoordinates,Original*%
%TF.FileFunction,Paste,Top*%
%TF.FilePolarity,Positive*%
%FSLAX46Y46*%
G04 Gerber Fmt 4.6, Leading zero omitted, Abs format (unit mm)*
G04 Created by KiCad (PCBNEW (7.0.0)) date 2024-03-24 15:02:48*
%MOMM*%
%LPD*%
G01*
G04 APERTURE LIST*
G04 Aperture macros list*
%AMRoundRect*
0 Rectangle with rounded corners*
0 $1 Rounding radius*
0 $2 $3 $4 $5 $6 $7 $8 $9 X,Y pos of 4 corners*
0 Add a 4 corners polygon primitive as box body*
4,1,4,$2,$3,$4,$5,$6,$7,$8,$9,$2,$3,0*
0 Add four circle primitives for the rounded corners*
1,1,$1+$1,$2,$3*
1,1,$1+$1,$4,$5*
1,1,$1+$1,$6,$7*
1,1,$1+$1,$8,$9*
0 Add four rect primitives between the rounded corners*
20,1,$1+$1,$2,$3,$4,$5,0*
20,1,$1+$1,$4,$5,$6,$7,0*
20,1,$1+$1,$6,$7,$8,$9,0*
20,1,$1+$1,$8,$9,$2,$3,0*%
G04 Aperture macros list end*
%ADD10RoundRect,0.200000X-0.200000X-0.275000X0.200000X-0.275000X0.200000X0.275000X-0.200000X0.275000X0*%
%ADD11RoundRect,0.150000X-0.587500X-0.150000X0.587500X-0.150000X0.587500X0.150000X-0.587500X0.150000X0*%
%ADD12RoundRect,0.225000X-0.225000X-0.250000X0.225000X-0.250000X0.225000X0.250000X-0.225000X0.250000X0*%
G04 APERTURE END LIST*
D10*
%TO.C,RS3*%
X168950000Y-133800000D03*
X170600000Y-133800000D03*
%TD*%
%TO.C,RS2*%
X144275000Y-134100000D03*
X145925000Y-134100000D03*
%TD*%
%TO.C,RS1*%
X119950000Y-133900000D03*
X121600000Y-133900000D03*
%TD*%
%TO.C,RB3*%
X163550000Y-120100000D03*
X165200000Y-120100000D03*
%TD*%
%TO.C,RB2*%
X149550000Y-120300000D03*
X151200000Y-120300000D03*
%TD*%
%TO.C,RB1*%
X125050000Y-120100000D03*
X126700000Y-120100000D03*
%TD*%
%TO.C,R6*%
X158450000Y-109900000D03*
X160100000Y-109900000D03*
%TD*%
%TO.C,R5*%
X158200000Y-101600000D03*
X159850000Y-101600000D03*
%TD*%
%TO.C,R4*%
X148100000Y-115900000D03*
X146450000Y-115900000D03*
%TD*%
%TO.C,R3*%
X140150000Y-115900000D03*
X141800000Y-115900000D03*
%TD*%
%TO.C,R2*%
X129850000Y-101900000D03*
X131500000Y-101900000D03*
%TD*%
%TO.C,R1*%
X129750000Y-110000000D03*
X131400000Y-110000000D03*
%TD*%
D11*
%TO.C,Q3*%
X154025000Y-113050000D03*
X154025000Y-114950000D03*
X155900000Y-114000000D03*
%TD*%
%TO.C,Q2*%
X156425000Y-119750000D03*
X156425000Y-121650000D03*
X158300000Y-120700000D03*
%TD*%
%TO.C,Q1*%
X134100000Y-120600000D03*
X132225000Y-121550000D03*
X132225000Y-119650000D03*
%TD*%
D12*
%TO.C,C9*%
X174250000Y-120200000D03*
X175800000Y-120200000D03*
%TD*%
%TO.C,C8*%
X169450000Y-120300000D03*
X171000000Y-120300000D03*
%TD*%
%TO.C,C6*%
X143650000Y-120100000D03*
X145200000Y-120100000D03*
%TD*%
%TO.C,C5*%
X138825000Y-120100000D03*
X140375000Y-120100000D03*
%TD*%
%TO.C,C3*%
X119250000Y-120200000D03*
X120800000Y-120200000D03*
%TD*%
%TO.C,C2*%
X114425000Y-120200000D03*
X115975000Y-120200000D03*
%TD*%
M02*
